<svg width="108" height="108" viewBox="0 0 108 108" fill="none" xmlns="http://www.w3.org/2000/svg">
<g clip-path="url(#clip0_546_43)">
<path d="M69.75 51.7501C69.75 60.7501 58.5 67.5001 58.5 74.2501H49.5C49.5 67.5001 38.25 60.7501 38.25 51.7501C38.25 43.0651 45.315 36.0001 54 36.0001C62.685 36.0001 69.75 43.0651 69.75 51.7501ZM58.5 78.7501H49.5V85.5001H58.5V78.7501ZM99 54.0001C99 41.5801 93.96 30.3301 85.815 22.1851L81.045 26.9551C87.975 33.8851 92.25 43.4701 92.25 54.0001C92.25 64.5301 87.975 74.1151 81.045 81.0451L85.815 85.8151C93.96 77.6701 99 66.4201 99 54.0001ZM15.75 54.0001C15.75 43.4701 20.025 33.8851 26.955 26.9551L22.185 22.1851C14.04 30.3301 9 41.5801 9 54.0001C9 66.4201 14.04 77.6701 22.185 85.8151L26.955 81.0451C20.025 74.1151 15.75 64.5301 15.75 54.0001ZM78.75 54.0001C78.75 60.8401 75.96 67.0051 71.505 71.5051L76.275 76.2751C81.99 70.5601 85.5 62.6851 85.5 54.0001C85.5 45.3151 81.99 37.4401 76.275 31.7251L71.505 36.4951C75.96 40.9951 78.75 47.1601 78.75 54.0001ZM31.725 76.2751L36.495 71.5051C31.995 67.0051 29.25 60.8401 29.25 54.0001C29.25 47.1601 32.04 40.9951 36.495 36.4951L31.725 31.7251C26.01 37.4401 22.5 45.3151 22.5 54.0001C22.5 62.6851 26.01 70.5601 31.725 76.2751Z" fill="#F15A25"/>
</g>
<defs>
<clipPath id="clip0_546_43">
<rect width="108" height="108" fill="white"/>
</clipPath>
</defs>
</svg>
