<svg width="237" height="237" viewBox="0 0 237 237" fill="none" xmlns="http://www.w3.org/2000/svg">
<mask id="mask0_612_172" style="mask-type:luminance" maskUnits="userSpaceOnUse" x="28" y="28" width="181" height="181">
<path d="M28.293 28.3027H208.583V208.593H28.293V28.3027Z" fill="white"/>
</mask>
<g mask="url(#mask0_612_172)">
<mask id="mask1_612_172" style="mask-type:luminance" maskUnits="userSpaceOnUse" x="28" y="28" width="181" height="181">
<path d="M118.438 28.3027C68.6521 28.3027 28.293 68.6619 28.293 118.448C28.293 168.234 68.6521 208.593 118.438 208.593C168.224 208.593 208.583 168.234 208.583 118.448C208.583 68.6619 168.224 28.3027 118.438 28.3027Z" fill="white"/>
</mask>
<g mask="url(#mask1_612_172)">
<path d="M28.293 28.3027H208.583V208.593H28.293V28.3027Z" fill="#292929"/>
</g>
</g>
<mask id="mask2_612_172" style="mask-type:luminance" maskUnits="userSpaceOnUse" x="123" y="72" width="43" height="28">
<path d="M123.994 72.4937H165.813V99.1469H123.994V72.4937Z" fill="white"/>
</mask>
<g mask="url(#mask2_612_172)">
<path d="M165.814 98.8898L124.111 92.2825L154.459 72.5176L165.814 98.8898Z" fill="white"/>
</g>
<path d="M71.0625 164.335C71.0625 164.335 121.06 143.199 133.671 90.7473L150.479 87.479L156.034 95.9941C156.034 95.9941 134.803 147.749 71.0625 164.335Z" fill="white"/>
<path d="M71.0625 164.335C71.0774 164.33 71.0922 164.328 71.1071 164.322C71.0933 164.327 71.0762 164.332 71.0625 164.335ZM71.1185 164.32C71.131 164.318 71.139 164.314 71.1516 164.312C71.1402 164.314 71.1299 164.318 71.1185 164.32ZM71.1699 164.306C71.1779 164.305 71.187 164.303 71.1962 164.299C71.1847 164.303 71.1813 164.304 71.1699 164.306ZM71.2156 164.296C71.2236 164.292 71.2316 164.29 71.2396 164.289C71.2339 164.29 71.2224 164.292 71.2156 164.296ZM71.2613 164.282C71.2693 164.281 71.2761 164.279 71.2841 164.276C71.2773 164.279 71.2681 164.281 71.2613 164.282ZM71.3058 164.272C71.3138 164.268 71.3207 164.267 71.3287 164.265C71.3218 164.267 71.3127 164.27 71.3058 164.272ZM71.3949 164.249C71.4029 164.246 71.4109 164.244 71.4178 164.242C71.4063 164.244 71.4052 164.244 71.3949 164.249ZM71.4406 164.236C71.4486 164.234 71.4509 164.232 71.4589 164.231C71.452 164.232 71.4475 164.234 71.4406 164.236ZM71.4852 164.224C71.4886 164.223 71.4932 164.222 71.4966 164.22C71.4943 164.222 71.4886 164.223 71.4852 164.224ZM71.5491 164.207C71.5571 164.206 71.564 164.203 71.572 164.201C71.564 164.203 71.556 164.206 71.5491 164.207ZM71.5948 164.195C71.5994 164.195 71.6108 164.191 71.6154 164.19C71.6085 164.192 71.6017 164.193 71.5948 164.195ZM71.6405 164.183C71.6451 164.183 71.6554 164.178 71.6599 164.178C71.6554 164.178 71.644 164.183 71.6405 164.183ZM71.6839 164.173C71.6919 164.169 71.6965 164.168 71.7045 164.167C71.6976 164.168 71.6908 164.17 71.6839 164.173ZM71.7273 164.16C71.7353 164.159 71.7399 164.158 71.7479 164.154C71.7422 164.158 71.7353 164.159 71.7273 164.16ZM71.8187 164.136C71.8222 164.136 71.829 164.133 71.8336 164.131C71.8302 164.133 71.821 164.136 71.8187 164.136ZM71.8633 164.125C71.8656 164.123 71.8724 164.122 71.8759 164.121C71.8736 164.122 71.8656 164.123 71.8633 164.125ZM71.9056 164.113C71.9135 164.11 71.9113 164.112 71.9193 164.109C71.9147 164.11 71.909 164.112 71.9056 164.113ZM72.1066 164.059C72.1089 164.059 72.118 164.056 72.1226 164.055C72.1192 164.056 72.1089 164.059 72.1066 164.059ZM72.1489 164.047C72.1534 164.047 72.1614 164.045 72.1649 164.042C72.1592 164.046 72.1569 164.046 72.1489 164.047ZM72.2368 164.024C72.2448 164.022 72.246 164.022 72.254 164.019C72.246 164.022 72.2437 164.023 72.2368 164.024ZM72.3259 164C72.3294 164 72.3351 163.999 72.3385 163.997C72.3351 163.997 72.3282 164 72.3259 164ZM72.4893 163.955C72.4939 163.955 72.4916 163.955 72.4961 163.954C72.4939 163.955 72.4939 163.955 72.4893 163.955ZM72.5316 163.945C72.535 163.943 72.535 163.943 72.5396 163.942C72.535 163.943 72.5338 163.943 72.5316 163.945ZM72.5704 163.934C72.5738 163.933 72.5795 163.931 72.5841 163.93C72.5807 163.931 72.5738 163.933 72.5704 163.934ZM72.6561 163.911C72.6641 163.909 72.6629 163.909 72.6709 163.907C72.6641 163.909 72.6629 163.909 72.6561 163.911ZM72.6995 163.899C72.7029 163.897 72.7098 163.895 72.7143 163.895C72.7075 163.896 72.7075 163.896 72.6995 163.899ZM72.8309 163.863C72.8354 163.862 72.832 163.863 72.8354 163.862L72.8309 163.863ZM72.9497 163.83L72.9577 163.828C72.9531 163.829 72.9519 163.829 72.9497 163.83ZM73.0285 163.809C73.0331 163.807 73.0422 163.805 73.0468 163.804C73.0376 163.806 73.0353 163.806 73.0285 163.809ZM73.0707 163.797C73.0787 163.796 73.0822 163.794 73.0902 163.791C73.0822 163.794 73.0776 163.796 73.0707 163.797ZM73.1153 163.784C73.1233 163.782 73.1256 163.782 73.1324 163.781C73.1256 163.782 73.121 163.783 73.1153 163.784ZM73.1587 163.773C73.1656 163.772 73.169 163.77 73.177 163.768C73.1701 163.77 73.1656 163.772 73.1587 163.773ZM73.3472 163.72C73.3598 163.718 73.3632 163.716 73.3746 163.713C73.3678 163.714 73.3552 163.719 73.3472 163.72ZM73.394 163.708C73.4055 163.704 73.4077 163.704 73.4203 163.7C73.4135 163.703 73.4009 163.705 73.394 163.708ZM73.5277 163.67C73.5357 163.668 73.5425 163.666 73.5505 163.664C73.5437 163.666 73.5345 163.668 73.5277 163.67ZM73.6156 163.646C73.6236 163.644 73.6316 163.64 73.6385 163.639C73.6316 163.64 73.6214 163.644 73.6156 163.646ZM73.6591 163.632C73.6671 163.631 73.6785 163.628 73.6865 163.626C73.6762 163.629 73.6705 163.63 73.6591 163.632ZM73.7013 163.622C73.7139 163.617 73.7242 163.615 73.7367 163.613C73.7253 163.615 73.7116 163.617 73.7013 163.622ZM73.7459 163.609C73.7767 163.6 73.803 163.592 73.8338 163.584C73.8064 163.592 73.7733 163.601 73.7459 163.609ZM73.8487 163.581C73.8601 163.576 73.867 163.575 73.8772 163.572C73.8704 163.574 73.8555 163.578 73.8487 163.581ZM73.8932 163.568C73.9047 163.564 73.9115 163.563 73.9218 163.559C73.9127 163.563 73.9047 163.566 73.8932 163.568ZM73.9389 163.555C73.9469 163.552 73.9584 163.549 73.9663 163.547C73.9549 163.549 73.9504 163.552 73.9389 163.555ZM73.9835 163.543C73.9915 163.54 74.0006 163.537 74.0098 163.534C74.0029 163.537 73.9915 163.54 73.9835 163.543ZM74.028 163.529C74.036 163.528 74.0463 163.524 74.0555 163.523C74.0486 163.524 74.036 163.528 74.028 163.529ZM74.0714 163.517C74.0794 163.516 74.0932 163.511 74.0989 163.509C74.0897 163.511 74.0817 163.515 74.0714 163.517ZM74.116 163.505C74.1274 163.501 74.1343 163.5 74.1468 163.495C74.1354 163.5 74.1263 163.502 74.116 163.505ZM74.1583 163.493C74.1708 163.488 74.1823 163.486 74.1937 163.483C74.18 163.486 74.172 163.488 74.1583 163.493ZM74.2028 163.479C74.2337 163.471 74.2622 163.463 74.2931 163.454C74.2645 163.462 74.2314 163.472 74.2028 163.479ZM74.2953 163.454C74.3102 163.449 74.3216 163.446 74.3365 163.441C74.3228 163.446 74.3091 163.449 74.2953 163.454ZM74.3456 163.439C74.357 163.437 74.3685 163.432 74.3799 163.43C74.3696 163.432 74.3559 163.437 74.3456 163.439ZM74.3913 163.427C74.4027 163.423 74.4153 163.419 74.4279 163.416C74.4164 163.419 74.4016 163.423 74.3913 163.427ZM74.4347 163.414C74.4496 163.409 74.4553 163.408 74.4701 163.403C74.4576 163.408 74.4473 163.411 74.4347 163.414ZM74.4804 163.401C74.4953 163.396 74.4998 163.395 74.5158 163.391C74.501 163.395 74.493 163.397 74.4804 163.401ZM74.5238 163.388C74.5387 163.384 74.5467 163.381 74.5615 163.377C74.5512 163.38 74.5352 163.385 74.5238 163.388ZM74.5684 163.376C74.5832 163.371 74.5958 163.368 74.6106 163.364C74.5969 163.368 74.5821 163.372 74.5684 163.376ZM74.8402 163.296C74.8551 163.293 74.8688 163.288 74.8848 163.285C74.8677 163.289 74.8574 163.293 74.8402 163.296ZM74.8848 163.285C74.9008 163.28 74.9145 163.275 74.9305 163.271C74.9156 163.275 74.8996 163.28 74.8848 163.285ZM74.9305 163.271C119.01 150.481 141.826 120.82 151.026 105.514C141.828 120.819 119.014 150.48 74.9305 163.271ZM165.813 98.8896L155.473 97.2515C155.475 97.2515 155.475 97.2515 155.475 97.2515L165.813 98.8896Z" fill="white"/>
<mask id="mask3_612_172" style="mask-type:luminance" maskUnits="userSpaceOnUse" x="147" y="72" width="19" height="28">
<path d="M147.684 72.4937H165.815V99.1469H147.684V72.4937Z" fill="white"/>
</mask>
<g mask="url(#mask3_612_172)">
<path d="M165.815 98.8898L155.477 97.2517C155.854 96.4361 156.035 95.994 156.035 95.994L150.48 87.4789L147.879 87.9838L154.46 72.5176L165.815 98.8898Z" fill="#F15A25"/>
</g>
<path d="M71.0625 164.335C71.0625 164.335 124.147 147.501 144.937 94.894L147.877 87.9839L150.479 87.479L156.034 95.9941C156.034 95.9941 155.852 96.4362 155.475 97.2518H155.473C154.751 98.8054 153.307 101.717 151.026 105.514C141.826 120.821 119.01 150.482 74.9305 163.272C74.9145 163.275 74.9008 163.281 74.8848 163.285C74.8688 163.289 74.8551 163.293 74.8402 163.297L74.8391 163.298C74.7637 163.32 74.6883 163.341 74.6118 163.363L74.6106 163.364C74.5958 163.369 74.5832 163.371 74.5684 163.377C74.5649 163.377 74.5661 163.377 74.5615 163.378C74.5467 163.381 74.5387 163.385 74.5238 163.388C74.5204 163.389 74.5192 163.389 74.5158 163.391C74.4998 163.395 74.4953 163.396 74.4804 163.402L74.4701 163.403C74.4553 163.409 74.4496 163.41 74.4347 163.414C74.4301 163.415 74.4301 163.415 74.4279 163.417C74.4153 163.419 74.4027 163.423 74.3913 163.427C74.3867 163.427 74.3833 163.428 74.3799 163.43C74.3685 163.433 74.357 163.437 74.3456 163.439C74.3422 163.441 74.3399 163.441 74.3365 163.442C74.3216 163.446 74.3102 163.45 74.2953 163.454C74.2931 163.454 74.2953 163.454 74.2931 163.454C74.2622 163.463 74.2337 163.471 74.2028 163.479C74.1994 163.481 74.1971 163.483 74.1937 163.483C74.1823 163.486 74.1708 163.489 74.1583 163.493C74.1548 163.494 74.1491 163.495 74.1468 163.495C74.1343 163.5 74.1274 163.501 74.116 163.506C74.1114 163.506 74.1034 163.508 74.0989 163.509C74.0932 163.511 74.0794 163.516 74.0714 163.517C74.0646 163.521 74.0612 163.521 74.0555 163.523C74.0463 163.524 74.036 163.529 74.028 163.53C74.0212 163.532 74.0155 163.533 74.0098 163.534C74.0006 163.538 73.9915 163.54 73.9835 163.543C73.9766 163.545 73.9732 163.546 73.9663 163.547C73.9584 163.549 73.9469 163.553 73.9389 163.555C73.9355 163.556 73.9264 163.559 73.9218 163.559C73.9115 163.563 73.9047 163.564 73.8932 163.569C73.8864 163.57 73.8852 163.57 73.8772 163.572C73.867 163.575 73.8601 163.577 73.8487 163.581C73.843 163.582 73.8407 163.583 73.8338 163.585C73.803 163.593 73.7767 163.601 73.7459 163.61C73.7413 163.61 73.7402 163.612 73.7367 163.613C73.7242 163.615 73.7139 163.618 73.7013 163.622C73.6945 163.623 73.6933 163.623 73.6865 163.627C73.6785 163.628 73.6671 163.631 73.6591 163.633C73.6533 163.636 73.6465 163.637 73.6385 163.639C73.6316 163.641 73.6236 163.644 73.6156 163.646C73.6088 163.647 73.6031 163.65 73.5951 163.652C73.5882 163.653 73.5791 163.655 73.5711 163.659C73.5642 163.66 73.5574 163.662 73.5505 163.665C73.5425 163.667 73.5357 163.668 73.5277 163.67C73.5208 163.673 73.514 163.675 73.506 163.676C73.4991 163.678 73.4911 163.681 73.4843 163.683C73.474 163.685 73.4729 163.685 73.4614 163.688C73.4546 163.691 73.4454 163.693 73.4386 163.695C73.4317 163.698 73.4272 163.699 73.4203 163.7C73.4077 163.704 73.4055 163.704 73.394 163.708C73.3883 163.71 73.3815 163.711 73.3746 163.714C73.3632 163.716 73.3598 163.718 73.3472 163.72C73.3312 163.726 73.3152 163.73 73.2981 163.735C73.2935 163.735 73.2935 163.735 73.2901 163.736C73.2798 163.739 73.2741 163.741 73.2627 163.744C73.2604 163.744 73.249 163.747 73.2455 163.749C73.2341 163.752 73.2307 163.752 73.2193 163.756C73.217 163.757 73.2067 163.759 73.2021 163.76C73.1918 163.764 73.1873 163.765 73.177 163.768C73.169 163.771 73.1656 163.772 73.1587 163.773C73.1507 163.774 73.1404 163.779 73.1324 163.781C73.1256 163.782 73.1233 163.782 73.1153 163.784C73.1084 163.787 73.097 163.79 73.0902 163.791C73.0822 163.795 73.0787 163.796 73.0707 163.797C73.0639 163.799 73.0525 163.803 73.0468 163.804C73.0422 163.805 73.0331 163.807 73.0285 163.81C73.0182 163.812 73.0125 163.813 73.0022 163.816C72.9976 163.818 72.9896 163.82 72.9862 163.821C72.9748 163.824 72.9679 163.826 72.9577 163.828L72.9497 163.83C72.9108 163.842 72.8743 163.851 72.8354 163.862C72.832 163.863 72.8354 163.862 72.8309 163.863C72.8206 163.866 72.8092 163.868 72.8 163.872C72.7966 163.872 72.7909 163.874 72.7863 163.875C72.776 163.878 72.7692 163.88 72.7589 163.883C72.7555 163.885 72.7463 163.886 72.7418 163.887C72.7315 163.89 72.7246 163.893 72.7143 163.895C72.7098 163.895 72.7029 163.898 72.6995 163.9C72.6926 163.901 72.6778 163.904 72.6709 163.908C72.6629 163.909 72.6641 163.909 72.6561 163.911C72.6458 163.914 72.6378 163.916 72.6264 163.919C72.6229 163.919 72.6172 163.92 72.6127 163.923C72.6035 163.925 72.5944 163.927 72.5841 163.931C72.5795 163.932 72.5738 163.933 72.5704 163.934C72.559 163.936 72.5498 163.94 72.5396 163.942C72.535 163.943 72.535 163.943 72.5316 163.946C72.5201 163.948 72.5064 163.951 72.4961 163.955C72.4916 163.956 72.4939 163.956 72.4893 163.956C72.4505 163.966 72.4128 163.978 72.3739 163.988H72.3693C72.3591 163.991 72.3488 163.995 72.3385 163.997C72.3351 163.999 72.3294 164 72.3259 164C72.3145 164.003 72.3065 164.006 72.2962 164.008C72.2917 164.009 72.2848 164.011 72.2814 164.012C72.2711 164.015 72.2631 164.017 72.254 164.02C72.246 164.022 72.2448 164.022 72.2368 164.024C72.23 164.025 72.2163 164.03 72.2094 164.032C72.2014 164.033 72.2014 164.033 72.1946 164.037C72.1866 164.038 72.1717 164.041 72.1649 164.043C72.1614 164.045 72.1534 164.047 72.1489 164.047C72.1397 164.049 72.1329 164.053 72.1226 164.055C72.118 164.056 72.1089 164.06 72.1066 164.06C72.0952 164.062 72.0883 164.063 72.0792 164.067C72.0758 164.068 72.0655 164.07 72.0621 164.071C72.0529 164.075 72.0438 164.076 72.0346 164.079C72.0312 164.079 72.0289 164.079 72.0266 164.08C71.9924 164.091 71.9547 164.1 71.9193 164.109C71.9113 164.112 71.9135 164.11 71.9056 164.113C71.8953 164.116 71.8873 164.118 71.8759 164.121C71.8724 164.123 71.8656 164.124 71.8633 164.125C71.8519 164.128 71.8439 164.129 71.8336 164.132C71.829 164.133 71.8222 164.136 71.8187 164.136C71.8073 164.14 71.8005 164.141 71.7902 164.144C71.7833 164.145 71.781 164.147 71.773 164.148C71.7662 164.151 71.7548 164.153 71.7479 164.155C71.7399 164.158 71.7353 164.159 71.7273 164.16C71.7205 164.163 71.7102 164.166 71.7045 164.167C71.6965 164.168 71.6919 164.169 71.6839 164.173C71.6737 164.175 71.6702 164.176 71.6599 164.179C71.6554 164.179 71.6451 164.183 71.6405 164.183C71.6302 164.187 71.6257 164.187 71.6154 164.19C71.6108 164.191 71.5994 164.196 71.5948 164.196C71.588 164.198 71.5788 164.2 71.572 164.201C71.564 164.204 71.5571 164.206 71.5491 164.207C71.532 164.213 71.5149 164.216 71.4966 164.221C71.4932 164.222 71.4886 164.223 71.4852 164.224C71.4783 164.227 71.4657 164.23 71.4589 164.231C71.4509 164.232 71.4486 164.235 71.4406 164.237C71.4338 164.238 71.4246 164.241 71.4178 164.243C71.4109 164.245 71.4029 164.246 71.3949 164.249C71.3881 164.251 71.3812 164.252 71.3744 164.254C71.3664 164.255 71.3584 164.259 71.3515 164.26C71.3435 164.261 71.3355 164.264 71.3287 164.265C71.3207 164.268 71.3138 164.269 71.3058 164.272C71.299 164.273 71.291 164.276 71.2841 164.277C71.2761 164.279 71.2693 164.281 71.2613 164.283C71.2544 164.285 71.2464 164.287 71.2396 164.289C71.2316 164.291 71.2236 164.293 71.2156 164.296C71.2087 164.297 71.2019 164.299 71.1962 164.3C71.187 164.303 71.1779 164.305 71.1699 164.307C71.1619 164.31 71.1585 164.311 71.1516 164.312C71.139 164.315 71.131 164.318 71.1185 164.32C71.1162 164.321 71.1105 164.323 71.1071 164.323C71.0922 164.328 71.0774 164.33 71.0625 164.335Z" fill="#F15A25"/>
</svg>
