<svg width="237" height="238" viewBox="0 0 237 238" fill="none" xmlns="http://www.w3.org/2000/svg">
<mask id="mask0_612_171" style="mask-type:luminance" maskUnits="userSpaceOnUse" x="28" y="28" width="181" height="181">
<path d="M28.416 28.4917H208.706V208.782H28.416V28.4917Z" fill="white"/>
</mask>
<g mask="url(#mask0_612_171)">
<mask id="mask1_612_171" style="mask-type:luminance" maskUnits="userSpaceOnUse" x="28" y="28" width="181" height="181">
<path d="M118.561 28.4917C68.7752 28.4917 28.416 68.8509 28.416 118.637C28.416 168.423 68.7752 208.782 118.561 208.782C168.347 208.782 208.706 168.423 208.706 118.637C208.706 68.8509 168.347 28.4917 118.561 28.4917Z" fill="white"/>
</mask>
<g mask="url(#mask1_612_171)">
<path d="M28.416 28.4917H208.706V208.782H28.416V28.4917Z" fill="#292929"/>
</g>
</g>
<path d="M160.711 139.44C157.176 141.561 153.217 142.677 149.14 143.181C147.846 136.356 145.125 129.243 142.831 123.964C144.597 121.646 146.295 119.278 147.904 116.848C148.914 115.323 149.966 113.709 151.004 112.025C154.851 113.985 158.448 116.265 161.665 118.902C169.624 125.427 170.088 133.813 160.711 139.44ZM143.751 159.664C136.634 165.506 125.279 161.051 118.808 156.518C117.621 155.687 116.488 154.794 115.393 153.856C118.555 150.87 121.499 147.771 124.145 145C130.382 145.919 136.458 146.389 142.035 146.389C143.808 146.389 145.664 146.309 147.548 146.127C148.329 151.406 147.684 156.436 143.751 159.664ZM85.9137 160.008C82.9882 153.844 86.2141 144.182 90.314 135.522C93.315 136.843 96.4416 138.049 99.6459 139.137C102.778 144.473 106.413 149.55 110.603 153.777C100.214 162.404 89.7269 168.041 85.9137 160.008ZM79.2492 125.941C72.5734 121.488 65.773 114.669 74.4982 108.416C77.4912 106.271 81.045 104.826 84.8148 103.858C86.3958 109.154 88.1596 113.821 89.2185 116.655C90.2592 119.438 91.437 122.408 92.7621 125.455C92.0732 126.746 91.405 128.036 90.7595 129.319C90.4351 129.963 90.025 130.78 89.5624 131.729C85.9605 130.029 82.5015 128.111 79.2492 125.941ZM90.9675 74.7591C101.949 74.7591 111.401 81.2203 119.262 90.134C116.119 92.9545 113.148 96.0308 110.352 99.2819C106.596 99.1666 102.866 99.2282 99.2049 99.4681C95.5334 99.7092 91.3764 99.9399 87.2411 100.539C83.9591 89.6976 81.0896 74.7591 90.9675 74.7591ZM141.303 120.56C138.96 115.484 136.45 110.434 133.611 105.589C138.376 106.818 143.043 108.384 147.445 110.333C145.416 114.047 143.256 117.572 141.303 120.56ZM121.179 92.3901C123.433 95.1466 125.545 98.0905 127.516 101.115C123.115 100.294 118.665 99.7526 114.231 99.467C114.335 99.3585 114.438 99.2488 114.542 99.1414C116.577 97.0326 118.796 94.6977 121.179 92.3901ZM94.8503 121.658C93.3253 117.866 91.9362 114.083 90.6145 110.435C90.1027 109.022 89.1134 106.377 88.0613 103.146C93.4806 102.141 99.1398 101.945 104.103 101.945C105.407 101.945 106.733 101.969 108.074 102.012C103.071 108.204 98.6646 114.92 94.8503 121.658ZM97.3326 134.989C95.4226 134.281 93.5412 133.518 91.6928 132.702C92.4696 131.163 93.2544 129.674 94.0175 128.264C95.0422 130.497 96.1457 132.753 97.3326 134.989ZM101.812 136.542C99.6607 132.681 97.7667 128.64 96.0498 124.572C96.8688 123.103 97.6136 121.779 98.2316 120.648C101.903 113.913 106.543 107.842 111.692 102.183C117.578 102.55 123.705 103.352 129.746 104.67C133.592 111.028 136.826 117.561 139.435 123.354C137.606 126.022 136.113 128.001 135.328 128.903C133.79 130.67 129.312 135.818 123.61 141.639C116.302 140.486 108.917 138.841 101.812 136.542ZM104.214 140.594C109.665 142.222 115.269 143.517 120.794 144.465C118.328 146.897 115.705 149.37 113.039 151.7C109.683 148.414 106.775 144.647 104.214 140.594ZM141.842 128.878C143.417 132.611 145.793 137.992 147.029 143.39C143.39 143.66 139.698 143.501 136.168 143.184C133.126 142.909 130.031 142.562 126.91 142.128C131.778 137.15 136.49 131.979 140.837 126.524C141.185 127.329 141.521 128.115 141.842 128.878ZM145.974 79.035C160.178 79.035 155.892 94.0157 148.873 107.644C143.286 105.162 137.388 103.263 131.355 101.904C128.937 98.119 126.283 94.4932 123.3 91.1233C123.184 90.9908 123.064 90.856 122.943 90.72C129.588 84.5651 137.398 79.035 145.974 79.035ZM160.871 114.25C158.22 112.46 155.442 110.846 152.569 109.396C156.214 103.043 159.236 95.9074 158.767 88.938C157.905 76.1265 145.557 74.052 135.581 78.931C130.377 81.4762 125.521 84.7764 121.008 88.6113C113.303 80.4218 98.981 67.632 88.4257 71.5526C79.0996 75.0162 80.7549 89.0751 84.0254 101.087C78.9762 102.093 74.1612 103.808 70.5308 106.945C62.1951 114.148 69.4216 122.921 76.3945 127.819C79.9381 130.308 83.9283 132.559 88.2121 134.567C82.9619 145.907 74.8935 167.253 90.5002 167.254C98.4019 167.254 106.144 162.147 113.004 156.048C119.211 161.535 126.544 165.113 135.16 165.113C148.344 165.113 150.926 156.169 149.577 145.889C156.731 144.907 163.991 142.303 168.327 136.633C175.019 127.885 168.552 119.434 160.871 114.25Z" fill="white"/>
<path d="M129.279 120.879C128.701 125.93 124.202 129.735 119.433 130.89C114.155 132.167 109.213 128.035 108.072 123.012C107.194 119.141 108.519 115.359 111.258 112.78C113.518 108.816 119.686 108.227 123.525 110.004C127.576 111.881 129.774 116.533 129.279 120.879Z" fill="#F15A25"/>
<path d="M102.191 111.64C100.895 110.904 99.3858 110.376 97.9122 110.871C97.2964 111.077 96.5836 111.533 96.2066 112.122C95.1854 113.447 95.07 115.576 95.7211 117.243C96.9663 120.429 99.893 120.671 102.442 118.754C103.678 117.825 104.708 116.509 104.662 114.885C104.619 113.32 103.453 112.356 102.191 111.64ZM164.724 114.135C160.37 108.429 151.996 115.13 155.706 120.035C159.133 124.567 168.753 119.415 164.724 114.135ZM104.811 78.4375C102.247 80.5212 98.0435 81.1495 96.4625 77.5294C95.6275 75.6159 96.1358 73.7174 97.3501 72.3545C98.7826 69.4096 102.019 68.0273 105.034 70.2846C107.942 72.4619 107.488 76.2591 104.811 78.4375Z" fill="#F15A25"/>
<path d="M100.882 112.145C100.578 112.131 100.368 112.573 100.62 112.777C101.202 113.25 101.8 113.556 102.156 114.262C102.465 114.877 102.391 115.594 102.674 116.197C102.742 116.341 102.947 116.343 103.049 116.245C103.697 115.626 103.366 114.452 103 113.768C102.587 112.999 101.802 112.187 100.882 112.145ZM159.938 114.072C160.099 113.937 160.015 113.635 159.813 113.595C156.42 112.914 154.501 119.794 158.773 119.801C159.028 119.801 159.118 119.505 158.968 119.329C158.673 118.978 158.298 118.753 157.979 118.431C157.362 117.81 157.419 116.905 157.794 116.159C158.293 115.165 159.131 114.748 159.938 114.072ZM100.042 71.1026C98.6662 72.0096 97.453 73.1588 97.5181 74.9466C97.5581 76.0204 98.2801 77.7808 99.6121 77.4963C99.8188 77.4529 99.8748 77.2142 99.7948 77.0485C99.3676 76.1689 98.5862 75.7691 98.6251 74.6439C98.6662 73.4673 99.5195 72.2735 100.348 71.499C100.556 71.3059 100.284 70.9427 100.042 71.1026ZM123.262 126.548C122.217 126.662 121.253 127.155 120.218 127.367C118.947 127.627 117.655 127.697 116.363 127.609C115.986 127.584 115.902 128.191 116.274 128.271C118.456 128.738 121.78 128.838 123.513 127.155C123.719 126.957 123.577 126.513 123.262 126.548ZM114.458 112.57C112.908 114.537 111.964 116.905 111.608 119.376C111.422 120.668 111.272 122.086 111.672 123.351C112.06 124.579 113.028 125.448 113.71 126.504C113.869 126.75 113.606 127.001 113.36 126.959C110.267 126.424 109.816 122.412 110.145 119.917C110.542 116.902 111.559 113.942 114.082 112.084C114.393 111.856 114.652 112.322 114.458 112.57Z" fill="white"/>
<mask id="mask2_612_171" style="mask-type:luminance" maskUnits="userSpaceOnUse" x="61" y="65" width="115" height="107">
<path d="M61.541 65.4482H175.557V171.819H61.541V65.4482Z" fill="white"/>
</mask>
<g mask="url(#mask2_612_171)">
<path d="M160.931 124.107C159.198 123.938 157.826 124.23 156.216 123.278C154.715 122.388 153.932 121.076 153.221 119.533C153.086 119.241 152.621 119.394 152.628 119.695C152.673 121.617 154.078 123.274 155.657 124.237C157.095 125.115 159.607 125.873 161.112 124.78C161.409 124.565 161.296 124.144 160.931 124.107ZM128.57 130.092C126.417 130.881 124.57 132.241 122.319 132.869C119.931 133.535 117.575 133.519 115.124 133.519C114.686 133.519 114.595 134.165 115.02 134.282C117.479 134.958 120.204 134.689 122.643 134.041C124.849 133.454 127.532 132.463 128.946 130.581C129.117 130.352 128.831 129.997 128.57 130.092ZM104.084 65.8633C102.574 65.3058 100.058 65.1322 98.9161 66.503C98.7836 66.6618 98.8578 66.9531 99.0977 66.9428C99.9053 66.9085 100.663 66.5967 101.479 66.5807C102.477 66.5647 103.505 66.8183 104.378 67.3015C105.783 68.0795 106.364 70.2705 107.954 70.5766C108.265 70.636 108.459 70.3504 108.339 70.074C107.574 68.2885 105.924 66.5407 104.084 65.8633ZM90.963 77.7175C88.5584 78.067 86.902 81.1342 86.3571 83.2464C85.8613 85.1678 85.6717 88.9102 87.6845 90.0822C87.9552 90.2387 88.3048 90.0388 88.3048 89.7258C88.3036 88.8005 87.8113 87.954 87.6411 87.047C87.4286 85.9161 87.4834 84.7475 87.753 83.6314C88.0078 82.569 88.4487 81.5569 89.0896 80.6681C89.7327 79.7771 90.6409 79.1705 91.3194 78.3286C91.5582 78.0327 91.332 77.6649 90.963 77.7175ZM174.33 125.392C174.129 124.992 173.527 125.277 173.628 125.688C174.346 128.628 174.658 131.504 173.915 134.48C173.573 135.85 173.044 137.163 172.345 138.391C171.628 139.654 170.608 140.71 169.887 141.963C169.711 142.268 170.057 142.586 170.355 142.43C173.013 141.044 174.516 137.354 175.139 134.59C175.822 131.575 175.74 128.196 174.33 125.392ZM161.214 78.5571C158.805 75.2991 155 73.164 150.967 72.8305C150.623 72.8019 150.557 73.348 150.886 73.4291C154.713 74.3692 158.461 76.2313 160.675 79.6229C161.902 81.5021 162.477 83.6588 162.682 85.8772C162.877 87.9997 162.366 90.3164 162.806 92.3795C162.883 92.7393 163.37 92.6788 163.476 92.3795C164.253 90.1862 163.979 87.1007 163.664 84.8263C163.351 82.5622 162.578 80.4008 161.214 78.5571ZM145.761 165.419C143.34 166.588 141.069 167.861 138.396 168.386C135.678 168.919 132.832 168.83 130.138 168.214C129.648 168.102 129.457 168.806 129.931 168.965C135.049 170.671 142.265 170.077 146.165 165.942C146.432 165.659 146.097 165.257 145.761 165.419ZM123.172 167.811C121.579 166.846 119.819 166.231 118.264 165.18C116.596 164.054 115.31 162.596 113.783 161.316C113.559 161.127 113.246 161.358 113.378 161.629C114.947 164.823 119.441 168.093 123.01 168.405C123.338 168.434 123.424 167.964 123.172 167.811ZM87.3075 170.534C82.8832 170.716 79.6595 168.359 78.4155 164.068C77.1109 159.564 78.3218 154.95 77.954 150.382C77.922 149.996 77.328 149.854 77.2354 150.284C76.6323 153.092 76.4701 156.144 76.4415 159.01C76.4175 161.453 76.6848 163.897 77.6627 166.155C79.1637 169.618 83.5298 173.405 87.4686 171.128C87.7348 170.974 87.6285 170.522 87.3075 170.534ZM68.1332 125.65C68.3628 125.856 68.1755 126.242 67.8887 126.243C65.1185 126.249 63.1297 123.125 62.2958 120.825C60.9775 117.192 61.6367 113.322 62.3815 109.648C62.4774 109.179 63.2657 109.285 63.2188 109.761C62.9001 112.975 62.4283 116.46 63.3468 119.614C63.7432 120.978 64.4229 122.29 65.3664 123.359C66.1729 124.272 67.2319 124.852 68.1332 125.65Z" fill="#2E2E30"/>
</g>
</svg>
