<svg width="473" height="361" viewBox="0 0 473 361" fill="none" xmlns="http://www.w3.org/2000/svg">
<g clip-path="url(#clip0_631_366)">
<path d="M360.224 50.2701L360.197 50.3226C348.746 72.0102 344.811 84.4982 347.617 95.212C347.777 94.8462 347.95 94.4228 348.134 93.9518C348.134 93.9517 348.134 93.9517 348.134 93.9516L348.274 94.0062C348.483 93.4678 348.872 93.019 349.375 92.7367C349.878 92.4544 350.463 92.3562 351.03 92.4588C351.598 92.5615 352.112 92.8586 352.484 93.2994C352.857 93.7401 353.065 94.2971 353.073 94.8748L360.224 50.2701ZM360.224 50.2701L360.209 50.213C359.165 46.3994 360.482 42.7111 363.212 39.5039C365.944 36.2953 370.082 33.5823 374.639 31.7381C379.196 29.894 384.16 28.9238 388.539 29.1893C392.918 29.4549 396.69 30.9546 398.9 34.0259L399.023 34.197L399.145 34.0247C399.438 33.608 399.938 33.2213 400.569 32.8845C401.199 32.5488 401.948 32.2684 402.727 32.0589C404.292 31.6384 405.947 31.5119 406.97 31.7748C409.038 32.3064 410.785 33.6307 412.515 34.9426L412.554 34.972C412.554 34.9721 412.554 34.9722 412.554 34.9723C414.949 36.8166 417.399 38.7043 418.848 41.3187L418.848 41.3193C420.307 43.9219 420.515 47.4416 418.583 49.664L418.583 49.6642C418.206 50.0994 417.638 50.5036 416.951 50.8731C416.266 51.2417 415.471 51.5712 414.648 51.8603C413.001 52.4384 411.254 52.8507 410.073 53.0895L410.073 53.0896C408.465 53.4183 407.107 53.6846 405.936 53.8789C404.908 52.3553 404.436 50.521 404.603 48.687L404.632 48.3719L404.37 48.5491C403.547 49.1055 402.858 49.8374 402.35 50.6924C401.843 51.5475 401.531 52.5044 401.437 53.4946L401.436 53.4967C401.435 53.519 401.438 53.5412 401.439 53.5487L401.439 53.5496C401.441 53.562 401.444 53.5766 401.447 53.5925C401.453 53.6246 401.463 53.6678 401.475 53.7209C401.5 53.8275 401.537 53.9786 401.585 54.1707C401.681 54.5551 401.824 55.1067 402.005 55.801C402.368 57.1899 402.888 59.1516 403.513 61.4941C404.764 66.1791 406.434 72.388 408.105 78.5841C409.776 84.7803 411.448 90.9638 412.702 95.5983C413.329 97.9156 413.852 99.8455 414.218 101.196L414.643 102.764L414.754 103.177L414.762 103.206C413.227 104.074 411.615 104.8 409.948 105.375C406.521 100.104 403.894 94.3518 402.154 88.3064L401.86 88.3332C401.456 92.421 401.507 96.5413 402.013 100.618C402.276 102.853 402.65 105.073 403.134 107.27C395.222 108.962 385.351 109.521 376.161 107.853C366.928 106.177 358.402 102.258 353.227 95.0066C353.226 94.9617 353.224 94.9167 353.223 94.8717L360.224 50.2701Z" fill="#292929" stroke="white" stroke-width="0.3"/>
<path d="M332.997 310.192V310.7C332.977 310.531 332.977 310.361 332.997 310.192Z" fill="#292929"/>
<path d="M348.574 222.446C348.979 222.337 349.39 222.256 349.806 222.207C349.329 222.285 348.918 222.365 348.574 222.446Z" fill="#292929"/>
<path d="M348.213 222.538C348.322 222.508 348.444 222.477 348.573 222.446C348.453 222.478 348.337 222.501 348.213 222.538Z" fill="#292929"/>
<path d="M395.705 318.433C395.557 318.409 395.557 318.409 395.557 318.409L395.557 318.409L395.556 318.412L395.555 318.423L395.548 318.466L395.519 318.635L395.409 319.3C395.312 319.884 395.169 320.743 394.985 321.845C394.616 324.05 394.083 327.228 393.426 331.12C392.115 338.876 390.308 349.468 388.317 360.848H333.085C332.198 359.303 331.73 357.551 331.73 355.767C331.73 353.954 332.213 352.175 333.128 350.612C334.754 347.848 334.779 346.158 334.348 345.145C334.134 344.64 333.811 344.317 333.541 344.12C333.407 344.021 333.285 343.954 333.196 343.911C333.161 343.894 333.13 343.881 333.106 343.871C333.103 343.866 333.1 343.86 333.097 343.854C333.075 343.809 333.043 343.742 333.002 343.655C332.921 343.48 332.809 343.226 332.684 342.906C332.434 342.266 332.134 341.367 331.934 340.331C331.534 338.256 331.539 335.653 333.12 333.47C333.54 332.89 333.849 332.096 334.072 331.161C334.296 330.225 334.435 329.138 334.511 327.965C334.663 325.619 334.562 322.915 334.36 320.356C334.157 317.795 333.854 315.375 333.601 313.595C333.475 312.705 333.361 311.975 333.279 311.467C333.254 311.309 333.231 311.172 333.212 311.059C333.247 311.05 333.281 311.035 333.31 311.018C333.395 310.969 333.483 310.884 333.571 310.78C333.661 310.673 333.761 310.535 333.868 310.37C334.297 309.711 334.885 308.568 335.594 307.032C337.755 302.353 341.054 293.945 344.386 284.188C346.757 277.257 349.147 269.635 351.149 262.177H351.154L351.183 262.066C351.71 260.097 352.208 258.146 352.679 256.213L352.679 256.213C353.601 252.422 354.39 248.738 354.99 245.277C356.291 237.83 356.725 231.407 355.719 227.215C355.301 225.469 354.631 224.094 353.653 223.197C353.048 222.642 352.331 222.275 351.497 222.114C352.987 221.924 354.837 221.741 356.973 221.565L356.961 221.415M395.705 318.433L350.929 222.037C352.508 221.821 354.554 221.613 356.961 221.415M395.705 318.433C395.844 318.378 395.844 318.378 395.845 318.378L395.845 318.379L395.846 318.381L395.849 318.389L395.862 318.422L395.912 318.551C395.957 318.665 396.021 318.832 396.102 319.046C396.265 319.475 396.496 320.093 396.768 320.852C397.312 322.369 398.021 324.449 398.682 326.699C399.343 328.948 399.957 331.37 400.309 333.57C400.66 335.765 400.754 337.761 400.358 339.147L395.705 318.433ZM395.705 318.433L395.844 318.378L395.645 317.875L395.557 318.409L395.705 318.433ZM356.961 221.415C357.136 221.401 357.314 221.387 357.493 221.373C357.872 221.343 358.259 221.312 358.656 221.279M356.961 221.415L356.973 221.565C357.148 221.551 357.325 221.537 357.504 221.522C357.883 221.492 358.271 221.461 358.668 221.428M358.656 221.279L358.667 221.428C358.667 221.428 358.668 221.428 358.668 221.428M358.656 221.279C381.216 219.57 429.618 218.588 429.618 218.588L358.656 221.279ZM358.668 221.428C369.944 220.574 387.681 219.902 402.601 219.443C410.061 219.213 416.816 219.037 421.706 218.918C424.151 218.859 426.13 218.814 427.497 218.784C428.181 218.769 428.712 218.757 429.072 218.75L429.481 218.741L429.53 218.74M358.668 221.428L429.53 218.74M429.53 218.74L444.312 245.275L463.068 278.953L463.067 279.044L463.063 279.43C463.059 279.771 463.054 280.274 463.048 280.929C463.035 282.238 463.017 284.148 462.998 286.556C462.959 291.372 462.913 298.177 462.885 306.134C462.83 322.004 462.847 342.457 463.134 360.848H405.041C404.258 360.206 403.714 359.318 403.498 358.326C403.278 357.317 403.41 356.264 403.874 355.342L403.874 355.342L403.877 355.334C404.697 353.451 404.301 351.652 403.71 350.336C403.414 349.678 403.068 349.136 402.796 348.759C402.66 348.571 402.542 348.423 402.458 348.322C402.442 348.303 402.427 348.285 402.414 348.27C402.392 348.244 402.373 348.223 402.359 348.206C402.347 348.193 402.338 348.183 402.331 348.176L402.326 348.17C402.325 348.169 402.324 348.168 402.324 348.167L402.322 348.166L402.322 348.165L402.321 348.165C402.321 348.165 402.321 348.165 402.313 348.172C402.302 348.183 402.275 348.207 402.212 348.267L429.53 218.74Z" fill="#292929" stroke="white" stroke-width="0.3"/>
<path d="M401.061 103.559L366.905 96.2954L360.123 109.98L337.285 123.235C337.285 123.235 352.006 183.575 351.922 192.062C351.709 213.608 317.319 261.908 343.295 258.192C369.271 254.477 374.547 238.913 382.886 241.374C390.407 243.593 399.59 253.466 405.738 246.405C411.886 239.344 414.051 247.498 417.939 247.78C419.786 247.913 418.673 238.863 423.322 248.061C427.97 257.259 452.619 244.877 444.264 236.503C430.351 222.555 427.523 119.738 427.523 119.738L412.035 114.96L401.061 103.559Z" fill="#E6E6E6"/>
<path d="M336.639 322.69C338.011 321.049 338.691 318.937 338.533 316.802C338.375 314.666 337.393 312.677 335.794 311.257C335.465 310.974 335.113 310.718 334.741 310.493L340.452 282.396L327.25 274.475L323.577 313.812C322.765 315.428 322.509 317.269 322.85 319.047C323.191 320.825 324.109 322.439 325.462 323.638C326.238 324.314 327.139 324.829 328.114 325.155C329.089 325.481 330.118 325.611 331.143 325.538C332.168 325.465 333.169 325.191 334.088 324.73C335.007 324.27 335.827 323.633 336.5 322.855C336.547 322.8 336.593 322.745 336.639 322.69Z" fill="#FE8310"/>
<path d="M377.631 174.588C377.548 173.685 376.399 173.275 374.806 172.709C373.207 172.215 371.686 171.493 370.291 170.565C366.765 168.012 368.153 165.341 370.072 161.65C370.447 160.932 370.837 160.185 371.202 159.409C372.288 157.109 370.559 147.623 366.054 131.208C364.666 126.155 364.671 122.586 363.712 120.218C362.757 117.85 360.843 116.683 355.627 116.439C349.322 116.12 343.148 118.32 338.458 122.557C338.332 122.669 338.2 122.791 338.074 122.908C337.835 123.133 337.601 123.362 337.372 123.597C333.036 127.97 330.554 133.855 330.447 140.021L330.422 141.071L329.346 191.223L326.321 235.232L322.152 295.857L325.24 296.008L337.562 296.623L339.058 296.697L342.603 281.786L346.87 263.843L348.438 257.252L353.303 236.804L355.573 227.25L356.961 221.415L357.526 219.033L360.283 207.452C360.346 207.208 366.687 182.127 373.998 177.933C376.725 176.37 377.709 175.462 377.631 174.588Z" fill="#E6E6E6"/>
<path d="M459.653 322.391C458.113 320.908 457.211 318.881 457.139 316.741C457.067 314.601 457.831 312.517 459.268 310.934C459.565 310.616 459.888 310.324 460.233 310.06L451.545 282.741L463.822 273.444L471.688 312.158C472.669 313.678 473.12 315.481 472.972 317.285C472.823 319.089 472.083 320.793 470.867 322.131C470.168 322.886 469.327 323.495 468.393 323.924C467.458 324.353 466.449 324.593 465.422 324.631C464.395 324.669 463.371 324.504 462.408 324.145C461.445 323.786 460.561 323.241 459.809 322.54C459.756 322.491 459.704 322.441 459.653 322.391Z" fill="#FE8310"/>
<path d="M465.659 263.111C465.659 263.111 456.084 229.338 459.004 225.681C461.924 222.025 453.299 221.311 457.016 214.502C460.733 207.693 455.603 206.554 455.603 206.554L452.819 190.898L447.843 152.444L447.692 151.3L446.244 140.113C445.84 136.917 444.797 133.836 443.178 131.054C441.558 128.272 439.396 125.846 436.82 123.921C436.689 123.82 436.554 123.723 436.42 123.626C435.807 123.184 435.181 122.774 434.542 122.397C429.765 119.572 424.155 118.503 418.678 119.376C408.356 120.987 411.569 124.846 409.895 135.182C407.175 151.989 406.469 161.605 407.795 163.777C408.242 164.509 408.711 165.209 409.159 165.881C411.463 169.348 413.129 171.85 409.895 174.774C408.607 175.843 407.173 176.722 405.637 177.386C404.117 178.124 403.017 178.653 403.031 179.56C403.049 180.439 404.123 181.233 407 182.491C410.487 184.02 414.231 189.803 417.299 195.711C419.732 200.472 421.902 205.364 423.8 210.365L450.162 284.69L454.462 296.811L455.945 296.576L468.125 294.64L471.18 294.155L465.659 263.111Z" fill="#E6E6E6"/>
<path d="M386.65 95.7821C402.04 95.7821 414.516 83.2752 414.516 67.8471C414.516 52.419 402.04 39.9121 386.65 39.9121C371.259 39.9121 358.783 52.419 358.783 67.8471C358.783 83.2752 371.259 95.7821 386.65 95.7821Z" fill="#FE8310"/>
<path d="M345.013 52.4479L344.986 52.5003C333.535 74.188 329.6 86.6759 332.406 97.3898C332.566 97.024 332.739 96.6005 332.923 96.1296C332.923 96.1295 332.923 96.1294 332.923 96.1294L333.063 96.184C333.272 95.6456 333.661 95.1968 334.164 94.9145C334.667 94.6322 335.252 94.5339 335.819 94.6366C336.387 94.7392 336.901 95.0364 337.273 95.4771C337.646 95.9179 337.854 96.4748 337.862 97.0526L345.013 52.4479ZM345.013 52.4479L344.998 52.3907C343.954 48.5771 345.271 44.8888 348.001 41.6816C350.733 38.473 354.871 35.76 359.428 33.9158C363.985 32.0718 368.949 31.1016 373.328 31.3671C377.707 31.6327 381.479 33.1323 383.689 36.2037L383.812 36.3748L383.934 36.2024C384.227 35.7857 384.727 35.3991 385.358 35.0622C385.988 34.7265 386.737 34.4461 387.517 34.2367C389.081 33.8161 390.736 33.6896 391.759 33.9525C393.827 34.4842 395.574 35.8084 397.304 37.1204L397.343 37.1498C397.343 37.1499 397.343 37.15 397.343 37.1501C399.738 38.9944 402.188 40.8821 403.637 43.4964L403.637 43.4971C405.096 46.0996 405.304 49.6193 403.372 51.8418L403.372 51.842C402.995 52.2771 402.427 52.6813 401.74 53.0508C401.055 53.4194 400.26 53.749 399.437 54.038C397.79 54.6162 396.043 55.0284 394.862 55.2673L394.862 55.2673C393.254 55.596 391.896 55.8624 390.725 56.0566C389.697 54.5331 389.225 52.6987 389.392 50.8647L389.421 50.5496L389.159 50.7269C388.336 51.2832 387.647 52.0151 387.139 52.8702C386.632 53.7252 386.32 54.6821 386.226 55.6723L386.225 55.6745C386.224 55.6967 386.227 55.7189 386.228 55.7264L386.228 55.7273C386.23 55.7397 386.233 55.7543 386.236 55.7702C386.242 55.8023 386.252 55.8455 386.264 55.8986C386.289 56.0052 386.326 56.1563 386.374 56.3484C386.47 56.7328 386.613 57.2844 386.794 57.9787C387.157 59.3676 387.677 61.3293 388.302 63.6718C389.553 68.3569 391.223 74.5657 392.894 80.7618C394.565 86.958 396.237 93.1415 397.491 97.776C398.118 100.093 398.641 102.023 399.007 103.374L399.432 104.941L399.544 105.354L399.551 105.384C398.016 106.252 396.404 106.978 394.737 107.553C391.31 102.282 388.683 96.5295 386.943 90.4842L386.649 90.5109C386.245 94.5987 386.296 98.719 386.802 102.796C387.065 105.03 387.439 107.25 387.923 109.448C380.011 111.14 370.14 111.698 360.95 110.03C351.717 108.354 343.191 104.435 338.016 97.1844C338.015 97.1394 338.013 97.0945 338.012 97.0495L345.013 52.4479Z" fill="#292929" stroke="white" stroke-width="0.3"/>
<path d="M91.7975 88.6314L92.1441 88.2174L92.149 88.2115L92.1533 88.2052C92.8825 87.1281 93.1829 85.629 93.1778 83.8356C93.1726 82.0396 92.8607 79.9301 92.3474 77.6162C91.3211 72.9894 89.4828 67.5187 87.6481 62.0588L87.6473 62.0566C85.8108 56.5912 83.978 51.1368 82.9557 46.5295C82.4445 44.2261 82.1376 42.1411 82.1325 40.3768C82.1274 38.61 82.4252 37.1832 83.1053 36.1799C83.1113 36.171 83.1291 36.152 83.1713 36.1264C83.2122 36.1015 83.2684 36.0751 83.3417 36.0478C83.4882 35.9933 83.6887 35.9407 83.9391 35.8904C84.4392 35.79 85.1189 35.7026 85.9214 35.6236C87.4203 35.4761 89.3319 35.3595 91.269 35.2414C91.4053 35.2331 91.5416 35.2248 91.678 35.2165C93.7509 35.0898 95.822 34.9588 97.4074 34.7835C98.1995 34.6959 98.8757 34.5968 99.3723 34.4803C99.62 34.4222 99.8291 34.3585 99.9875 34.2869C100.044 34.2613 100.1 34.2323 100.15 34.199L116.656 70.4432C113.802 72.1931 111.209 74.3396 108.954 76.8188C106.146 78.5081 104.469 79.7848 103.328 80.757C102.834 81.1775 102.442 81.5408 102.104 81.8535C102.051 81.9027 101.999 81.9506 101.948 81.9973C101.635 82.2861 101.369 82.526 101.103 82.7289C100.111 80.2216 98.7651 77.8693 97.1075 75.7436L96.8585 75.4243L96.8394 75.8287C96.6845 79.0993 96.5396 82.3798 96.395 85.6508L96.38 85.9898C94.9171 86.979 93.3857 87.8617 91.7975 88.6314Z" fill="#292929" stroke="white" stroke-width="0.3"/>
<path d="M111.79 102.093C110.028 100.943 108.018 100.23 105.926 100.014C103.835 99.7982 101.722 100.086 99.7629 100.852C97.8041 101.619 96.056 102.843 94.6636 104.422C93.2711 106.002 92.2745 107.891 91.7564 109.934L67.4935 173.309L25.7884 149.574C25.6053 146.846 24.565 144.246 22.8167 142.147C21.0684 140.048 18.7019 138.558 16.0567 137.891C13.4115 137.223 10.6234 137.413 8.0924 138.432C5.56135 139.452 3.41736 141.248 1.96793 143.565C0.51849 145.881 -0.161927 148.598 0.0242655 151.326C0.210458 154.054 1.2537 156.653 3.00435 158.75C4.755 160.847 7.12313 162.334 9.76908 162.998C12.415 163.663 15.2029 163.47 17.7328 162.448C26.5155 171.844 64.5919 210.371 80.3553 195.318C93.6052 182.665 112.726 133.626 117.329 116.692C118.066 113.984 117.927 111.112 116.932 108.488C115.937 105.865 114.136 103.625 111.79 102.093Z" fill="white"/>
<path d="M66.2324 197.973L73.889 232.665L129.877 237.742L135.022 207.535L66.2324 197.973Z" fill="white"/>
<path d="M151.604 286.928L151.604 286.929L151.661 288.423L151.512 288.412C151.512 288.412 151.512 288.412 151.512 288.412C150.975 295.601 150.361 303.891 149.696 312.976L149.696 312.976C148.651 327.355 147.483 343.722 146.305 360.848H29.2176L51.9093 292.475C51.9243 292.466 51.9425 292.456 51.9637 292.443C52.0313 292.403 52.1293 292.343 52.252 292.265C52.4974 292.107 52.842 291.873 53.2404 291.566C54.0367 290.951 55.0511 290.04 55.9188 288.858C56.7866 287.676 57.5104 286.218 57.718 284.512C57.9259 282.803 57.6151 280.856 56.4308 278.699C55.8478 277.637 55.4853 276.821 55.2936 276.182C55.1018 275.542 55.0851 275.091 55.178 274.753C55.2697 274.419 55.474 274.174 55.7692 273.955C56.0384 273.755 56.3723 273.584 56.7542 273.388C56.7982 273.365 56.8429 273.342 56.8881 273.319C57.7567 272.872 58.7996 272.299 59.6245 271.057C60.4484 269.816 61.0438 267.926 61.0653 264.864C61.108 258.805 63.1841 252.544 65.2554 247.79C66.2903 245.415 67.3227 243.42 68.0962 242.018C68.4829 241.317 68.8049 240.765 69.03 240.388C69.1425 240.2 69.2308 240.056 69.2909 239.958C69.321 239.91 69.344 239.873 69.3594 239.848L69.3769 239.821L69.3812 239.814L69.3823 239.812L69.3825 239.812C69.3825 239.812 69.3826 239.812 69.2561 239.731L69.3826 239.812L69.4029 239.78L69.4057 239.742L70.7506 221.447L71.3807 221.459L71.3812 221.459L132.495 222.48L132.495 222.48L133.479 222.498L135.34 238.195L135.346 238.24L135.374 238.274C146.747 251.84 152.549 269.233 151.604 286.928ZM29.1678 360.998H29.0098L29.0595 360.848L29.1678 360.998Z" fill="#292929" stroke="white" stroke-width="0.3"/>
<path d="M101.176 85.2804L129.043 83.8413L141.987 104.344C141.987 104.344 166.341 108.426 164.653 137.195C162.965 165.964 135.021 191.209 135.021 191.209L136.216 187.104L134.141 193.046L134.407 196.383L137.238 199.916L137.529 203.571L135.021 209.353C135.348 209.877 135.521 210.482 135.521 211.099C135.521 211.717 135.349 212.322 135.024 212.846C134.698 213.371 134.233 213.793 133.68 214.066C133.127 214.338 132.51 214.45 131.897 214.389L91.6298 210.343C90.713 207.815 89.9774 204.79 86.3026 209.826L82.5094 209.458L66.7411 207.926L65.8129 204.537C65.2856 202.611 65.2034 200.59 65.5727 198.627C65.9419 196.665 66.7528 194.813 67.9438 193.212C66.5741 188.913 66.9328 184.247 68.9436 180.209L69.019 180.057L70.6935 178.658C70.6935 178.658 52.3737 151.067 73.4043 130.287L81.845 115.902L91.2894 104.351L101.176 85.2804Z" fill="#F15A25"/>
<path d="M108.112 73.1771C122.707 73.1771 134.538 61.3165 134.538 46.6857C134.538 32.0549 122.707 20.1943 108.112 20.1943C93.517 20.1943 81.6855 32.0549 81.6855 46.6857C81.6855 61.3165 93.517 73.1771 108.112 73.1771Z" fill="white"/>
<path d="M124.131 87.7855C122.785 88.7996 121.477 89.7647 120.236 90.6449C119.244 88.1364 117.898 85.783 116.239 83.6563L115.99 83.337L115.971 83.7414C115.816 87.0099 115.672 90.2884 115.527 93.5574L115.512 93.9025C114.049 94.8917 112.518 95.7744 110.929 96.544L111.276 96.13L111.281 96.1242L111.285 96.1179C112.726 93.9899 112.867 91.4245 112.376 88.6688C111.887 85.9166 110.764 82.9488 109.647 79.9984L109.644 79.9918C108.524 77.0322 107.411 74.0904 106.927 71.3704C106.443 68.6519 106.593 66.181 107.971 64.1482C108.089 63.9749 108.158 63.74 108.193 63.4658C108.228 63.1895 108.229 62.8612 108.201 62.4911C108.145 61.7508 107.973 60.8278 107.705 59.7899C107.17 57.7133 106.252 55.1592 105.115 52.6538C103.978 50.149 102.618 47.6863 101.199 45.7954C100.489 44.85 99.7618 44.0437 99.0363 43.4461C98.312 42.8496 97.5802 42.4533 96.8626 42.3438L96.8625 42.3438C94.4239 41.9744 93.2395 42.141 92.0711 42.5375C91.7405 42.6496 91.4154 42.7782 91.0658 42.9165C90.2116 43.2543 89.2105 43.6503 87.6226 44.0072C87.1314 42.0088 86.3824 40.0829 85.3943 38.2782L85.114 38.3697C85.3743 40.3597 85.3206 42.3782 84.955 44.351C84.2016 44.3554 83.5157 44.1254 82.7965 43.8483C82.6981 43.8104 82.5991 43.7715 82.4992 43.7324C81.8365 43.4727 81.136 43.1982 80.3469 43.0773C77.5423 42.6474 75.5207 41.5669 74.1101 40.1359C72.6986 38.704 71.8902 36.9125 71.5275 35.0481C71.1647 33.1831 71.2489 31.2488 71.6193 29.5396C71.9902 27.8287 72.6455 26.3547 73.4146 25.4046C74.1839 24.4603 75.4088 23.6713 76.9048 23.0003C78.3988 22.3303 80.1502 21.7837 81.9594 21.3175C83.7681 20.8514 85.6301 20.4668 87.3449 20.1195C87.4957 20.0889 87.6453 20.0587 87.7936 20.0287C89.331 19.7179 90.7339 19.4343 91.8424 19.1453L91.881 19.1353L91.9094 19.1074C91.9936 19.0251 92.1107 18.9702 92.2601 18.9318C92.4104 18.8932 92.5795 18.8745 92.7616 18.8555L92.7812 18.8534C92.953 18.8355 93.1363 18.8163 93.3042 18.776C93.4791 18.734 93.6524 18.6658 93.7893 18.5387C103.021 10.0696 115.371 8.66226 126.496 12.4211C138.355 16.4274 145.745 24.1737 149.543 36.1275L150.635 45.7205L150.636 45.735L150.641 45.749C150.878 46.4962 150.986 47.9513 150.995 49.785C151.004 51.6111 150.916 53.7914 150.77 55.9747C150.479 60.3471 149.962 64.7089 149.546 66.2579C148.734 69.2843 147.696 71.1607 146.432 72.4733C145.166 73.7871 143.661 74.5483 141.885 75.327C141.578 75.4615 141.264 75.5963 140.942 75.7344C137.549 77.1892 133.304 79.0094 128.169 84.6406C126.101 82.868 124.661 80.4698 124.068 77.8052L123.773 77.816C123.287 81.1336 123.408 84.5121 124.131 87.7855Z" fill="#292929" stroke="white" stroke-width="0.3"/>
<path d="M166.715 210.358L165.675 129.132C165.621 125.69 164.219 122.409 161.772 119.994C159.326 117.58 156.03 116.227 152.597 116.227C150.821 116.227 149.063 116.59 147.432 117.293C145.8 117.996 144.328 119.025 143.106 120.317C141.884 121.608 140.937 123.136 140.323 124.807C139.71 126.478 139.442 128.256 139.536 130.034L143.197 214.375L143.266 265.718C141.109 266.635 139.285 268.196 138.043 270.188C136.801 272.181 136.201 274.508 136.324 276.854C136.448 279.201 137.289 281.452 138.733 283.302C140.178 285.153 142.155 286.512 144.397 287.197C146.639 287.881 149.037 287.857 151.265 287.128C153.493 286.399 155.443 285 156.85 283.121C158.257 281.242 159.053 278.974 159.13 276.626C159.207 274.278 158.561 271.963 157.279 269.996L166.715 210.358Z" fill="white"/>
<path d="M302.955 315.433L302.955 315.437L303.105 315.445C302.955 315.437 302.955 315.437 302.955 315.437L302.955 315.438L302.954 315.442L302.954 315.458L302.95 315.521L302.937 315.767L302.884 316.716C302.839 317.542 302.773 318.739 302.692 320.229C302.53 323.207 302.305 327.35 302.058 332.01C301.566 341.277 300.983 352.589 300.613 360.85H245.502C244.937 353.382 244.56 346.905 244.323 342.287C244.203 339.964 244.12 338.111 244.066 336.839C244.039 336.203 244.02 335.712 244.007 335.38C244.001 335.215 243.996 335.089 243.993 335.004L243.989 334.908L243.989 334.884L243.988 334.878L243.988 334.877L243.988 334.876C243.988 334.876 243.988 334.876 243.971 334.877L243.988 334.876L243.689 334.864L240.674 360.85H184.955L181.496 312.651L198.223 271.086L198.39 271.075C198.562 271.063 198.818 271.046 199.152 271.024C199.82 270.979 200.8 270.915 202.051 270.837C204.553 270.68 208.136 270.464 212.463 270.231C221.117 269.763 232.742 269.224 244.631 268.935C256.52 268.646 268.67 268.608 278.372 269.143C283.224 269.41 287.46 269.82 290.744 270.413C292.386 270.71 293.786 271.051 294.905 271.442C296.027 271.833 296.853 272.27 297.357 272.749C299.428 274.719 300.827 278.355 301.75 282.74C302.672 287.116 303.114 292.207 303.293 297.053C303.471 301.898 303.387 306.493 303.258 309.878C303.193 311.57 303.118 312.959 303.058 313.925C303.028 314.408 303.002 314.786 302.984 315.042C302.975 315.17 302.968 315.268 302.963 315.334L302.957 315.408L302.956 315.427L302.955 315.432L302.955 315.433C302.955 315.433 302.955 315.433 303.104 315.445L302.955 315.433Z" fill="#292929" stroke="white" stroke-width="0.3"/>
<path d="M254.119 71.4106C270.83 71.4106 284.377 57.8304 284.377 41.0784C284.377 24.3263 270.83 10.7461 254.119 10.7461C237.408 10.7461 223.861 24.3263 223.861 41.0784C223.861 57.8304 237.408 71.4106 254.119 71.4106Z" fill="white"/>
<path d="M237.123 31.9874C239.008 32.8556 241.057 34.0655 243.178 35.3183C249.353 38.9656 256.145 42.977 261.323 39.9814C262.121 39.5216 262.903 39.0058 263.674 38.4883M237.123 31.9874L263.674 38.4883M237.123 31.9874C237.093 31.9303 237.062 31.873 237.032 31.8155L236.899 31.8859L236.838 32.0227C236.896 32.0489 236.955 32.0755 237.014 32.1024M237.123 31.9874L237.014 32.1024M263.674 38.4883C263.716 38.4604 263.757 38.4325 263.799 38.4046C263.77 38.3639 263.74 38.3235 263.71 38.2834C263.669 38.3113 263.627 38.3392 263.586 38.3671C263.615 38.4072 263.645 38.4476 263.674 38.4883ZM278.823 22.4239L278.808 22.2747C278.883 22.267 278.959 22.2602 279.034 22.2543C278.963 22.3098 278.893 22.3663 278.823 22.4239ZM278.823 22.4239L278.919 22.5394C278.976 22.4924 279.033 22.446 279.091 22.4004C279.002 22.407 278.912 22.4148 278.823 22.4239ZM237.014 32.1024C241.176 40.0533 239.507 43.7459 236.052 51.3948C235.787 51.9807 235.512 52.5898 235.228 53.2258L235.204 53.3137C235.195 53.2792 235.185 53.245 235.174 53.211C235.172 53.2072 235.171 53.2034 235.17 53.1997C235.156 53.1622 235.142 53.1251 235.125 53.0884C235.114 53.1138 235.103 53.1392 235.091 53.1647L235.086 53.1753L235.083 53.1866L235.049 53.3146C235.089 53.453 235.104 53.5949 235.089 53.7391L237.014 32.1024ZM227.576 21.1081C227.573 21.0544 227.571 21.0008 227.568 20.9471C227.587 20.9534 227.606 20.9598 227.625 20.9664L227.576 21.1081ZM227.576 21.1081C227.525 21.0905 227.474 21.074 227.423 21.0587C227.424 21.0778 227.425 21.0969 227.426 21.1161L227.576 21.1081ZM289.085 31.2137C289.133 31.2431 289.181 31.2726 289.231 31.3024C289.283 31.2732 289.336 31.2465 289.388 31.2223C289.337 31.1912 289.286 31.1604 289.235 31.1298C289.185 31.1557 289.134 31.1837 289.085 31.2137ZM267.045 36.0891C267.018 36.1054 266.991 36.1217 266.964 36.138L267.041 36.2665L267.125 36.1419C267.098 36.1242 267.072 36.1066 267.045 36.0891ZM268.234 35.4123C268.234 35.4123 268.233 35.4124 268.233 35.4124C268.233 35.4125 268.233 35.4125 268.233 35.4126L268.303 35.545L268.234 35.4123ZM284.432 23.7467C284.436 23.7608 284.439 23.775 284.443 23.7891C284.458 23.7972 284.473 23.8062 284.487 23.8161L284.573 23.6931L284.44 23.7278L284.428 23.7311C284.429 23.7363 284.43 23.7415 284.432 23.7467ZM283.979 20.1164C283.929 20.1213 283.879 20.1266 283.83 20.1323C283.836 20.182 283.842 20.2316 283.848 20.2812C283.898 20.2755 283.948 20.2702 283.997 20.2653C283.991 20.2157 283.985 20.166 283.979 20.1164ZM231.774 61.6617C231.644 61.5082 231.515 61.3542 231.386 61.1996C231.476 61.3919 231.563 61.5742 231.647 61.7446C231.79 61.9128 231.933 62.0803 232.077 62.2471C231.982 62.0736 231.88 61.8772 231.774 61.6617ZM220.106 30.8213L220.256 30.8366C220.256 30.8365 220.256 30.8364 220.256 30.8363C220.256 30.8362 220.256 30.8361 220.256 30.836L220.106 30.8213ZM281.104 13.8046C281.104 13.8046 281.104 13.8046 281.104 13.8046L281.182 13.6763L281.104 13.8046ZM221.636 23.9105C221.636 23.9104 221.636 23.9104 221.636 23.9103C221.636 23.9102 221.636 23.9102 221.636 23.9101L221.507 23.8336L221.636 23.9105ZM259.137 34.9603C259.222 34.9888 259.306 35.0184 259.39 35.0492C259.319 35.0669 259.248 35.0855 259.177 35.105L259.137 34.9603Z" fill="#292929" stroke="white" stroke-width="0.3"/>
<path d="M184.949 285.617C210.716 255.382 202.013 216.926 191.786 178.106L193.732 120.757C193.828 117.944 194.597 115.195 195.975 112.743C197.353 110.291 199.3 108.207 201.651 106.667L227.956 89.4399L238.194 74.6006L266.416 77.4297L282.066 94.0209L299.389 107.278C303.738 110.607 307.048 115.113 308.927 120.265C310.806 125.417 311.177 131 309.996 136.356L293.418 211.51C293.418 211.51 300.352 250.47 296.121 254.773C291.891 259.075 280.989 254.775 289.634 259.605C300.008 265.402 309.441 264.332 304.191 269.595C298.941 274.858 305.586 282.174 305.586 282.174L184.949 285.617Z" fill="#F15A25"/>
<path d="M195.966 329.559L200.262 298.88L183.121 293.975L179.731 326.573C178.312 327.877 177.285 329.551 176.763 331.409C176.242 333.266 176.248 335.232 176.781 337.086C177.313 338.94 178.351 340.608 179.777 341.904C181.204 343.199 182.962 344.069 184.855 344.418C186.748 344.766 188.701 344.578 190.493 343.875C192.285 343.171 193.846 341.981 195 340.437C196.155 338.894 196.857 337.058 197.027 335.136C197.198 333.214 196.83 331.283 195.966 329.559Z" fill="white"/>
<path d="M228.598 94.9707C228.598 94.9707 179.809 110.889 178.646 122.536C177.482 134.184 177.868 141.314 172.719 187.921L172.99 313.469C172.99 313.469 205.7 320.489 202.346 312.983C198.991 305.477 200.162 301.945 200.162 301.945C200.162 301.945 207.175 299.171 205.419 290.357C203.664 281.544 212.467 237.867 212.467 237.867L218.024 159.534L228.598 94.9707Z" fill="#F15A25"/>
<path d="M288.757 327.935L286.471 297.039L303.894 293.268L305.152 326.018C306.482 327.412 307.399 329.151 307.798 331.038C308.196 332.926 308.062 334.887 307.41 336.702C306.758 338.517 305.614 340.114 304.106 341.313C302.598 342.512 300.786 343.266 298.875 343.489C296.963 343.712 295.027 343.397 293.285 342.578C291.542 341.759 290.062 340.469 289.011 338.853C287.96 337.237 287.379 335.359 287.334 333.43C287.289 331.501 287.782 329.598 288.757 327.935Z" fill="white"/>
<path d="M271.49 91.7095C271.49 91.7095 319.137 110.791 319.539 122.489C319.94 134.188 319.09 141.277 321.189 188.122L312.732 313.384C312.732 313.384 279.634 318.246 283.471 310.976C287.308 303.705 286.37 300.104 286.37 300.104C286.37 300.104 279.553 296.876 281.88 288.197C284.206 279.517 278.269 235.357 278.269 235.357L277.832 156.828L271.49 91.7095Z" fill="#F15A25"/>
</g>
<defs>
<clipPath id="clip0_631_366">
<rect width="473" height="361" fill="white"/>
</clipPath>
</defs>
</svg>
