<svg width="668" height="308" viewBox="0 0 668 308" fill="none" xmlns="http://www.w3.org/2000/svg">
<path d="M586.181 268.617C583.268 263.991 582.207 258.437 583.209 253.063C583.309 252.531 582.477 252.404 582.377 252.936C581.345 258.53 582.461 264.307 585.502 269.115C585.793 269.573 586.469 269.073 586.181 268.617Z" fill="white"/>
<path d="M173.166 198.993C172.561 198.629 172.043 198.137 171.649 197.551C171.254 196.965 170.993 196.3 170.884 195.603C170.775 194.906 170.82 194.193 171.016 193.515C171.212 192.837 171.555 192.21 172.02 191.678L163.512 176.774L172.415 177.349L179.129 191.414C179.971 192.254 180.475 193.373 180.546 194.559C180.617 195.745 180.251 196.917 179.516 197.851C178.781 198.785 177.728 199.417 176.558 199.628C175.388 199.838 174.181 199.612 173.166 198.993Z" fill="#FE8310"/>
<path d="M107.673 300.594H113.563L116.365 277.888L107.672 277.888L107.673 300.594Z" fill="#FE8310"/>
<path d="M106.32 306.151L106.32 298.823L117.77 298.822C119.69 298.822 121.533 299.585 122.891 300.943C124.249 302.3 125.012 304.141 125.012 306.06V306.151L106.32 306.151Z" fill="#292929" stroke="white" stroke-width="0.3"/>
<path d="M148.029 300.594H153.919L156.721 277.888L148.027 277.888L148.029 300.594Z" fill="#FE8310"/>
<path d="M146.676 306.151L146.675 298.823L158.125 298.822C160.046 298.822 161.888 299.585 163.246 300.943C164.605 302.3 165.368 304.141 165.368 306.06V306.151L146.676 306.151Z" fill="#292929" stroke="white" stroke-width="0.3"/>
<path d="M116.389 294.106L106.477 293.425L112.05 180.663L163.036 177.574C163.038 177.606 163.04 177.644 163.043 177.686C163.054 177.858 163.07 178.111 163.089 178.437C163.127 179.09 163.178 180.035 163.229 181.206C163.331 183.548 163.433 186.791 163.436 190.396C163.443 197.612 163.049 206.262 161.46 212.047C160.657 214.968 160.023 221.552 159.521 229.764C159.019 237.984 158.648 247.853 158.378 257.358C158.107 266.863 157.936 276.005 157.833 282.771C157.781 286.154 157.746 288.943 157.725 290.886C157.714 291.857 157.706 292.618 157.701 293.135L157.696 293.725L157.695 293.778H147.285L138.028 198.318L137.732 198.3L116.389 294.106Z" fill="white" stroke="white" stroke-width="0.3"/>
<path d="M116.334 99.8352L116.378 99.8326L116.414 99.8066L124.536 93.8831L138.095 96.8338L141.773 105.569L141.795 105.621L141.845 105.646L148.235 108.812C150.315 109.843 152.113 111.363 153.475 113.241C154.837 115.119 155.723 117.3 156.055 119.596L165.159 182.428L112.044 180.376L105.587 106.3C105.522 105.545 105.608 104.785 105.842 104.063C106.075 103.342 106.451 102.675 106.947 102.102C107.443 101.528 108.049 101.06 108.73 100.725C109.41 100.39 110.151 100.194 110.908 100.15L116.334 99.8352Z" fill="#292929" stroke="white" stroke-width="0.3"/>
<path d="M152.054 159.23L151.836 114.057L156.483 120.318L177.925 185.679L168.106 189.608L152.054 159.23Z" fill="#292929" stroke="white" stroke-width="0.3"/>
<path d="M133.796 90.609C140.387 90.609 145.729 85.2693 145.729 78.6824C145.729 72.0956 140.387 66.7559 133.796 66.7559C127.206 66.7559 121.863 72.0956 121.863 78.6824C121.863 85.2693 127.206 90.609 133.796 90.609Z" fill="#FE8310"/>
<path opacity="0.1" d="M107.781 127.751L127.254 154.82L149.021 169.007L107.781 127.751Z" fill="#292929"/>
<mask id="path-12-inside-1_631_299" fill="white">
<path d="M127.472 87.3044C126.642 85.6481 125.788 83.8452 126.106 82.02C126.423 80.1949 128.519 78.6046 130.136 79.5095C130.807 77.0857 133.778 76.025 136.278 76.3048C138.779 76.5846 141.081 77.7901 143.543 78.3076C146.006 78.8251 148.996 78.4146 150.327 76.2803L147.143 76.2252L150.459 72.3813L146.615 72.0939C147.946 70.6578 147.593 68.2179 146.304 66.7437C145.015 65.2694 143.059 64.5718 141.15 64.1307C137.341 63.2529 133.391 63.1622 129.545 63.8641C127.732 64.1435 125.984 64.7512 124.389 65.6573C122.887 66.5731 121.646 67.8597 120.785 69.3934C119.856 71.1237 119.354 73.0507 119.32 75.0141C119.263 77.6441 119.868 80.2461 121.079 82.5819C122.289 84.9177 124.067 86.9124 126.249 88.3833"/>
</mask>
<path d="M127.472 87.3044C126.642 85.6481 125.788 83.8452 126.106 82.02C126.423 80.1949 128.519 78.6046 130.136 79.5095C130.807 77.0857 133.778 76.025 136.278 76.3048C138.779 76.5846 141.081 77.7901 143.543 78.3076C146.006 78.8251 148.996 78.4146 150.327 76.2803L147.143 76.2252L150.459 72.3813L146.615 72.0939C147.946 70.6578 147.593 68.2179 146.304 66.7437C145.015 65.2694 143.059 64.5718 141.15 64.1307C137.341 63.2529 133.391 63.1622 129.545 63.8641C127.732 64.1435 125.984 64.7512 124.389 65.6573C122.887 66.5731 121.646 67.8597 120.785 69.3934C119.856 71.1237 119.354 73.0507 119.32 75.0141C119.263 77.6441 119.868 80.2461 121.079 82.5819C122.289 84.9177 124.067 86.9124 126.249 88.3833" fill="#292929"/>
<path d="M130.136 79.5095L129.989 79.7713L130.323 79.9579L130.425 79.5895L130.136 79.5095ZM150.327 76.2803L150.581 76.439L150.862 75.9895L150.332 75.9803L150.327 76.2803ZM147.143 76.2252L146.916 76.0293L146.497 76.5141L147.137 76.5252L147.143 76.2252ZM150.459 72.3813L150.686 72.5773L151.075 72.1265L150.481 72.0822L150.459 72.3813ZM146.615 72.0939L146.395 71.89L145.971 72.3467L146.592 72.3931L146.615 72.0939ZM141.15 64.1307L141.218 63.8384L141.218 63.8384L141.15 64.1307ZM129.545 63.8641L129.591 64.1607L129.599 64.1592L129.545 63.8641ZM124.389 65.6573L124.241 65.3964L124.233 65.4012L124.389 65.6573ZM120.785 69.3934L120.523 69.2465L120.52 69.2515L120.785 69.3934ZM119.32 75.0141L119.62 75.0206L119.62 75.0192L119.32 75.0141ZM127.741 87.17C126.903 85.4979 126.104 83.7838 126.401 82.0714L125.81 81.9687C125.473 83.9065 126.382 85.7982 127.204 87.4388L127.741 87.17ZM126.401 82.0714C126.544 81.2483 127.095 80.4624 127.8 79.9903C128.504 79.5191 129.309 79.3905 129.989 79.7713L130.282 79.2476C129.346 78.7236 128.294 78.9377 127.466 79.4917C126.64 80.0448 125.984 80.9666 125.81 81.9687L126.401 82.0714ZM130.425 79.5895C130.731 78.4842 131.565 77.672 132.648 77.165C133.733 76.6572 135.045 76.4686 136.245 76.6029L136.311 76.0066C135.011 75.8611 133.587 76.063 132.394 76.6216C131.199 77.1809 130.212 78.1109 129.847 79.4294L130.425 79.5895ZM136.245 76.6029C137.461 76.739 138.635 77.1009 139.83 77.5015C141.016 77.8991 142.229 78.3378 143.482 78.6012L143.605 78.014C142.396 77.7598 141.226 77.337 140.02 76.9326C138.823 76.5311 137.596 76.1504 136.311 76.0066L136.245 76.6029ZM143.482 78.6012C144.749 78.8675 146.159 78.8971 147.432 78.5794C148.707 78.2614 149.864 77.5894 150.581 76.439L150.072 76.1215C149.459 77.1054 148.455 77.7058 147.287 77.9973C146.117 78.2891 144.8 78.2652 143.605 78.014L143.482 78.6012ZM150.332 75.9803L147.148 75.9253L147.137 76.5252L150.322 76.5802L150.332 75.9803ZM147.37 76.4212L150.686 72.5773L150.231 72.1854L146.916 76.0293L147.37 76.4212ZM150.481 72.0822L146.637 71.7948L146.592 72.3931L150.436 72.6805L150.481 72.0822ZM146.835 72.2979C147.57 71.5044 147.829 70.4453 147.741 69.4076C147.652 68.3711 147.217 67.3321 146.53 66.5462L146.078 66.9411C146.68 67.6295 147.065 68.5475 147.143 69.4586C147.221 70.3684 146.991 71.2473 146.395 71.89L146.835 72.2979ZM146.53 66.5462C145.175 64.9969 143.139 64.2823 141.218 63.8384L141.083 64.423C142.979 64.8613 144.854 65.5418 146.078 66.9411L146.53 66.5462ZM141.218 63.8384C137.368 62.9514 133.378 62.8598 129.491 63.569L129.599 64.1592C133.405 63.4647 137.313 63.5545 141.083 64.423L141.218 63.8384ZM129.499 63.5676C127.65 63.8525 125.868 64.4723 124.241 65.3965L124.537 65.9182C126.101 65.0301 127.813 64.4344 129.591 64.1606L129.499 63.5676ZM124.233 65.4012C122.687 66.3437 121.409 67.6679 120.523 69.2465L121.046 69.5402C121.882 68.0514 123.087 66.8025 124.545 65.9135L124.233 65.4012ZM120.52 69.2515C119.569 71.0239 119.054 72.9978 119.02 75.009L119.62 75.0192C119.653 73.1037 120.143 71.2235 121.049 69.5353L120.52 69.2515ZM119.02 75.0077C118.962 77.6878 119.579 80.3396 120.812 82.72L121.345 82.4439C120.157 80.1527 119.564 77.6003 119.62 75.0206L119.02 75.0077ZM120.812 82.72C122.046 85.1003 123.858 87.1331 126.081 88.6321L126.417 88.1346C124.276 86.6917 122.532 84.7351 121.345 82.4439L120.812 82.72Z" fill="white" mask="url(#path-12-inside-1_631_299)"/>
<path d="M571.776 306.607H201.453C197.639 306.603 193.983 305.087 191.286 302.392C188.59 299.697 187.073 296.043 187.068 292.231V14.3764C187.073 10.5648 188.59 6.9106 191.286 4.21544C193.983 1.52028 197.639 0.00427912 201.453 0H571.776C575.59 0.00434678 579.246 1.52039 581.943 4.21554C584.639 6.91069 586.156 10.5649 586.161 14.3764V292.231C586.156 296.043 584.639 299.697 581.943 302.392C579.246 305.087 575.59 306.603 571.776 306.607Z" fill="#E4E4E4"/>
<path d="M478.573 127.575H421.408C418.583 127.575 415.873 126.454 413.876 124.457C411.878 122.461 410.756 119.753 410.756 116.929C410.756 114.106 411.878 111.398 413.876 109.401C415.873 107.405 418.583 106.283 421.408 106.283H478.573C481.398 106.283 484.108 107.405 486.105 109.401C488.103 111.398 489.225 114.106 489.225 116.929C489.225 119.753 488.103 122.461 486.105 124.457C484.108 126.454 481.398 127.575 478.573 127.575Z" fill="white"/>
<path d="M428.509 156.675H415.017C413.981 156.675 412.988 156.264 412.255 155.531C411.523 154.799 411.111 153.807 411.111 152.771C411.111 151.736 411.523 150.743 412.255 150.011C412.988 149.279 413.981 148.868 415.017 148.868H428.509C429.545 148.868 430.539 149.279 431.271 150.011C432.004 150.743 432.415 151.736 432.415 152.771C432.415 153.807 432.004 154.799 431.271 155.531C430.539 156.264 429.545 156.675 428.509 156.675Z" fill="white"/>
<path d="M484.609 156.675H471.117C470.081 156.675 469.087 156.264 468.355 155.531C467.622 154.799 467.211 153.807 467.211 152.771C467.211 151.736 467.622 150.743 468.355 150.011C469.087 149.279 470.081 148.868 471.117 148.868H484.609C485.645 148.868 486.638 149.279 487.371 150.011C488.103 150.743 488.515 151.736 488.515 152.771C488.515 153.807 488.103 154.799 487.371 155.531C486.638 156.264 485.645 156.675 484.609 156.675Z" fill="white"/>
<path d="M456.203 156.675H442.71C441.675 156.675 440.681 156.264 439.949 155.531C439.216 154.799 438.805 153.807 438.805 152.771C438.805 151.736 439.216 150.743 439.949 150.011C440.681 149.279 441.675 148.868 442.71 148.868H456.203C457.239 148.868 458.232 149.279 458.965 150.011C459.697 150.743 460.109 151.736 460.109 152.771C460.109 153.807 459.697 154.799 458.965 155.531C458.232 156.264 457.239 156.675 456.203 156.675Z" fill="white"/>
<path d="M428.509 171.58H415.017C413.981 171.58 412.988 171.168 412.255 170.436C411.523 169.704 411.111 168.711 411.111 167.676C411.111 166.641 411.523 165.648 412.255 164.916C412.988 164.184 413.981 163.772 415.017 163.772H428.509C429.545 163.772 430.539 164.184 431.271 164.916C432.004 165.648 432.415 166.641 432.415 167.676C432.415 168.711 432.004 169.704 431.271 170.436C430.539 171.168 429.545 171.58 428.509 171.58Z" fill="white"/>
<path d="M484.609 171.58H471.117C470.081 171.58 469.087 171.168 468.355 170.436C467.622 169.704 467.211 168.711 467.211 167.676C467.211 166.641 467.622 165.648 468.355 164.916C469.087 164.184 470.081 163.772 471.117 163.772H484.609C485.645 163.772 486.638 164.184 487.371 164.916C488.103 165.648 488.515 166.641 488.515 167.676C488.515 168.711 488.103 169.704 487.371 170.436C486.638 171.168 485.645 171.58 484.609 171.58Z" fill="white"/>
<path d="M456.203 171.58H442.71C441.675 171.58 440.681 171.168 439.949 170.436C439.216 169.704 438.805 168.711 438.805 167.676C438.805 166.641 439.216 165.648 439.949 164.916C440.681 164.184 441.675 163.772 442.71 163.772H456.203C457.239 163.772 458.232 164.184 458.965 164.916C459.697 165.648 460.109 166.641 460.109 167.676C460.109 168.711 459.697 169.704 458.965 170.436C458.232 171.168 457.239 171.58 456.203 171.58Z" fill="white"/>
<path d="M428.509 186.484H415.017C413.981 186.484 412.988 186.073 412.255 185.341C411.523 184.609 411.111 183.616 411.111 182.58C411.111 181.545 411.523 180.552 412.255 179.82C412.988 179.088 413.981 178.677 415.017 178.677H428.509C429.545 178.677 430.539 179.088 431.271 179.82C432.004 180.552 432.415 181.545 432.415 182.58C432.415 183.616 432.004 184.609 431.271 185.341C430.539 186.073 429.545 186.484 428.509 186.484Z" fill="white"/>
<path d="M484.609 186.484H471.117C470.081 186.484 469.087 186.073 468.355 185.341C467.622 184.609 467.211 183.616 467.211 182.58C467.211 181.545 467.622 180.552 468.355 179.82C469.087 179.088 470.081 178.677 471.117 178.677H484.609C485.645 178.677 486.638 179.088 487.371 179.82C488.103 180.552 488.515 181.545 488.515 182.58C488.515 183.616 488.103 184.609 487.371 185.341C486.638 186.073 485.645 186.484 484.609 186.484Z" fill="white"/>
<path d="M456.203 186.484H442.71C441.675 186.484 440.681 186.073 439.949 185.341C439.216 184.609 438.805 183.616 438.805 182.58C438.805 181.545 439.216 180.552 439.949 179.82C440.681 179.088 441.675 178.677 442.71 178.677H456.203C457.239 178.677 458.232 179.088 458.965 179.82C459.697 180.552 460.109 181.545 460.109 182.58C460.109 183.616 459.697 184.609 458.965 185.341C458.232 186.073 457.239 186.484 456.203 186.484Z" fill="white"/>
<path d="M428.509 201.388H415.017C413.981 201.388 412.988 200.977 412.255 200.245C411.523 199.513 411.111 198.52 411.111 197.485C411.111 196.449 411.523 195.456 412.255 194.724C412.988 193.992 413.981 193.581 415.017 193.581H428.509C429.545 193.581 430.539 193.992 431.271 194.724C432.004 195.456 432.415 196.449 432.415 197.485C432.415 198.52 432.004 199.513 431.271 200.245C430.539 200.977 429.545 201.388 428.509 201.388Z" fill="white"/>
<path d="M484.609 201.388H471.117C470.081 201.388 469.087 200.977 468.355 200.245C467.622 199.513 467.211 198.52 467.211 197.485C467.211 196.449 467.622 195.456 468.355 194.724C469.087 193.992 470.081 193.581 471.117 193.581H484.609C485.645 193.581 486.638 193.992 487.371 194.724C488.103 195.456 488.515 196.449 488.515 197.485C488.515 198.52 488.103 199.513 487.371 200.245C486.638 200.977 485.645 201.388 484.609 201.388Z" fill="white"/>
<path d="M456.203 201.388H442.71C441.675 201.388 440.681 200.977 439.949 200.245C439.216 199.513 438.805 198.52 438.805 197.485C438.805 196.449 439.216 195.456 439.949 194.724C440.681 193.992 441.675 193.581 442.71 193.581H456.203C457.239 193.581 458.232 193.992 458.965 194.724C459.697 195.456 460.109 196.449 460.109 197.485C460.109 198.52 459.697 199.513 458.965 200.245C458.232 200.977 457.239 201.388 456.203 201.388Z" fill="white"/>
<path d="M337.258 185.774C357.259 185.774 373.474 169.568 373.474 149.578C373.474 129.587 357.259 113.381 337.258 113.381C317.256 113.381 301.041 129.587 301.041 149.578C301.041 169.568 317.256 185.774 337.258 185.774Z" fill="#CACACA"/>
<path d="M337.257 193.936C334.433 193.933 331.726 192.81 329.729 190.814C327.732 188.819 326.609 186.112 326.605 183.29V115.865C326.604 114.466 326.879 113.081 327.414 111.788C327.949 110.495 328.733 109.321 329.722 108.331C330.711 107.342 331.886 106.557 333.179 106.021C334.472 105.486 335.858 105.21 337.257 105.21C338.657 105.21 340.043 105.486 341.336 106.021C342.629 106.557 343.803 107.342 344.792 108.331C345.782 109.321 346.566 110.495 347.101 111.788C347.636 113.081 347.91 114.466 347.909 115.865V183.29C347.906 186.112 346.783 188.818 344.786 190.814C342.789 192.81 340.081 193.933 337.257 193.936Z" fill="white"/>
<path d="M431.872 123.004H421.93C421.553 123.004 421.192 122.854 420.926 122.588C420.659 122.322 420.51 121.961 420.51 121.585C420.51 121.208 420.659 120.847 420.926 120.581C421.192 120.315 421.553 120.165 421.93 120.165H431.872C432.248 120.165 432.61 120.315 432.876 120.581C433.142 120.847 433.292 121.208 433.292 121.585C433.292 121.961 433.142 122.322 432.876 122.588C432.61 122.854 432.248 123.004 431.872 123.004Z" fill="#E4E4E4"/>
<path d="M447.495 123.359H437.553C437.176 123.359 436.815 123.209 436.549 122.943C436.282 122.677 436.133 122.316 436.133 121.939C436.133 121.563 436.282 121.202 436.549 120.936C436.815 120.67 437.176 120.52 437.553 120.52H447.495C447.872 120.52 448.233 120.67 448.499 120.936C448.765 121.202 448.915 121.563 448.915 121.939C448.915 122.316 448.765 122.677 448.499 122.943C448.233 123.209 447.872 123.359 447.495 123.359Z" fill="#E4E4E4"/>
<path d="M463.118 123.714H453.176C452.799 123.714 452.438 123.564 452.172 123.298C451.905 123.032 451.756 122.671 451.756 122.294C451.756 121.918 451.905 121.557 452.172 121.291C452.438 121.025 452.799 120.875 453.176 120.875H463.118C463.495 120.875 463.856 121.025 464.122 121.291C464.389 121.557 464.538 121.918 464.538 122.294C464.538 122.671 464.389 123.032 464.122 123.298C463.856 123.564 463.495 123.714 463.118 123.714Z" fill="#E4E4E4"/>
<path d="M478.741 124.069H468.799C468.422 124.069 468.061 123.919 467.795 123.653C467.529 123.387 467.379 123.026 467.379 122.649C467.379 122.273 467.529 121.912 467.795 121.646C468.061 121.38 468.422 121.23 468.799 121.23H478.741C479.118 121.23 479.479 121.38 479.745 121.646C480.012 121.912 480.161 122.273 480.161 122.649C480.161 123.026 480.012 123.387 479.745 123.653C479.479 123.919 479.118 124.069 478.741 124.069Z" fill="#E4E4E4"/>
<path d="M234.289 262.78C234.288 264.538 234.637 266.278 235.314 267.9C235.992 269.521 236.986 270.992 238.237 272.227H232.371C230.64 272.227 228.926 271.886 227.327 271.224C225.728 270.562 224.275 269.592 223.052 268.369C221.828 267.146 220.857 265.694 220.195 264.096C219.532 262.497 219.191 260.785 219.191 259.055V45.507C219.191 43.7773 219.532 42.0644 220.195 40.4663C220.857 38.8682 221.828 37.4161 223.052 36.193C224.275 34.9698 225.728 33.9996 227.327 33.3376C228.926 32.6757 230.64 32.335 232.371 32.335H240.907C238.894 33.5052 237.223 35.1829 236.062 37.2006C234.9 39.2182 234.289 41.505 234.289 43.8327L234.289 262.78Z" fill="#CACACA"/>
<path d="M232.869 94.7353C228.381 93.4791 223.876 92.3151 219.355 91.2434C203.895 87.5548 188.221 84.8242 172.423 83.0672C169.745 82.3624 166.897 82.7434 164.499 84.1272C162.101 85.5109 160.347 87.7855 159.619 90.4556L151.73 119.555C151.005 122.237 151.375 125.097 152.759 127.507C154.142 129.917 156.426 131.679 159.108 132.408L159.215 132.43C169.654 133.615 180.192 135.261 190.673 137.362C191.611 137.547 192.541 137.738 193.478 137.937C196.837 138.633 200.187 139.376 203.526 140.166C204.989 140.506 206.445 140.861 207.908 141.223C211.842 142.203 215.779 143.246 219.718 144.353C224.099 145.588 228.483 146.906 232.869 148.306C233.345 148.448 233.821 148.597 234.289 148.754V95.1399C233.821 94.9979 233.345 94.8631 232.869 94.7353Z" fill="white"/>
<path d="M232.869 94.7353C228.381 93.4791 223.876 92.3151 219.355 91.2434C203.895 87.5548 188.221 84.8242 172.423 83.0672C169.745 82.3624 166.897 82.7434 164.499 84.1272C162.101 85.5109 160.347 87.7855 159.619 90.4556L151.73 119.555C151.005 122.237 151.375 125.097 152.759 127.507C154.142 129.917 156.426 131.679 159.108 132.408L159.215 132.43C169.654 133.615 180.192 135.261 190.673 137.362C191.611 137.547 192.541 137.738 193.478 137.937C196.837 138.633 200.187 139.376 203.526 140.166C204.989 140.506 206.445 140.861 207.908 141.223C211.842 142.203 215.779 143.246 219.718 144.353C224.099 145.588 228.483 146.906 232.869 148.306C233.345 148.448 233.821 148.597 234.289 148.754V147.256C233.813 147.107 233.338 146.958 232.869 146.809C228.836 145.524 224.807 144.315 220.783 143.182C219.277 142.749 217.772 142.33 216.266 141.926C213.554 141.195 210.848 140.495 208.15 139.825C206.715 139.463 205.283 139.115 203.853 138.782C203.747 138.753 203.633 138.732 203.526 138.704C201.091 138.129 198.65 137.58 196.205 137.057C195.268 136.858 194.33 136.66 193.393 136.468C182.088 134.126 170.697 132.302 159.427 131.024C157.122 130.383 155.164 128.857 153.979 126.779C152.794 124.702 152.478 122.24 153.1 119.931L160.99 90.8246C161.621 88.5087 163.145 86.5377 165.229 85.3441C167.313 84.1505 169.785 83.8319 172.103 84.4583L172.21 84.4724C187.807 86.2034 203.283 88.8865 218.553 92.5067C218.709 92.5493 218.865 92.5848 219.021 92.6203C223.652 93.7274 228.267 94.9245 232.869 96.2115C233.338 96.3393 233.813 96.4741 234.289 96.6161V95.1398C233.821 94.9979 233.345 94.8631 232.869 94.7353Z" fill="#F15A25"/>
<path d="M234.289 95.8778V148.001C233.813 147.845 233.345 147.696 232.869 147.547C228.672 146.205 224.461 144.942 220.236 143.757C216.181 142.607 212.112 141.526 208.029 140.513C206.58 140.158 205.138 139.811 203.69 139.47C203.633 139.215 203.576 138.959 203.526 138.704C203.264 137.483 203.058 136.248 202.902 135.006C202.83 134.53 202.781 134.055 202.731 133.572C201.984 125.968 203.025 118.295 205.772 111.165C208.519 104.035 212.896 97.6457 218.553 92.5066C218.759 92.3078 218.972 92.1162 219.185 91.9316C223.772 93.0247 228.334 94.2076 232.869 95.4803C233.345 95.601 233.821 95.7359 234.289 95.8778Z" fill="#F15A25"/>
<path d="M187.128 117.22L167.38 114.892C166.685 114.81 165.981 114.865 165.308 115.055C164.634 115.245 164.005 115.566 163.456 115.999C162.907 116.432 162.448 116.969 162.106 117.579C161.765 118.189 161.547 118.86 161.465 119.555C161.382 120.249 161.438 120.953 161.628 121.626C161.818 122.299 162.139 122.928 162.572 123.477C163.005 124.026 163.543 124.484 164.153 124.825C164.764 125.167 165.435 125.385 166.13 125.467L185.878 127.795C187.28 127.957 188.688 127.557 189.795 126.682C190.901 125.808 191.616 124.53 191.781 123.13C191.947 121.73 191.55 120.322 190.677 119.214C189.805 118.106 188.529 117.388 187.128 117.22ZM190.381 122.969C190.257 123.996 189.731 124.932 188.918 125.572C188.104 126.212 187.07 126.503 186.042 126.382L166.293 124.054C165.268 123.93 164.333 123.404 163.695 122.592C163.057 121.78 162.766 120.749 162.888 119.723C163.009 118.698 163.532 117.762 164.342 117.121C165.152 116.48 166.183 116.187 167.209 116.304L186.958 118.632C187.986 118.756 188.923 119.282 189.564 120.095C190.206 120.907 190.499 121.94 190.381 122.969Z" fill="#F15A25"/>
<path d="M234.289 108.086V132.806C233.833 133.079 233.359 133.321 232.869 133.53C230.32 134.667 227.494 135.035 224.739 134.589C221.984 134.142 219.419 132.901 217.36 131.017C217.161 130.84 216.962 130.648 216.771 130.449C216.579 130.258 216.394 130.052 216.217 129.846C214.073 127.385 212.834 124.267 212.705 121.006C212.575 117.746 213.563 114.539 215.505 111.916C217.447 109.293 220.227 107.412 223.384 106.582C226.542 105.753 229.888 106.025 232.869 107.355C233.355 107.573 233.829 107.817 234.289 108.086Z" fill="white"/>
<path d="M232.868 125.978C227.28 127.142 221.729 128.431 216.216 129.846C214.157 130.371 212.104 130.915 210.059 131.478C207.616 132.153 205.173 132.851 202.73 133.572C199.613 134.495 196.501 135.46 193.392 136.468C192.49 136.766 191.582 137.064 190.672 137.362C182.03 140.244 173.445 143.438 165.001 146.922C162.314 147.594 160.002 149.299 158.567 151.666C157.131 154.033 156.69 156.872 157.339 159.563L164.462 188.861C165.121 191.559 166.824 193.886 169.198 195.331C171.572 196.776 174.422 197.221 177.123 196.569L177.223 196.533C191.108 190.841 205.319 185.978 219.781 181.969C224.098 180.77 228.461 179.639 232.868 178.577C233.344 178.463 233.813 178.35 234.289 178.243V125.687C233.813 125.772 233.344 125.871 232.868 125.978Z" fill="white"/>
<path d="M232.868 125.978C227.28 127.142 221.729 128.431 216.216 129.846C214.157 130.371 212.104 130.915 210.059 131.478C207.616 132.153 205.173 132.851 202.73 133.572C199.613 134.495 196.501 135.46 193.392 136.468C192.49 136.766 191.582 137.064 190.672 137.362C182.03 140.244 173.445 143.438 165.001 146.922C162.314 147.594 160.002 149.299 158.567 151.666C157.131 154.033 156.69 156.872 157.339 159.563L164.462 188.861C165.121 191.559 166.824 193.886 169.198 195.331C171.572 196.776 174.422 197.221 177.123 196.569L177.223 196.533C191.108 190.841 205.319 185.978 219.781 181.969C224.098 180.77 228.461 179.639 232.868 178.577C233.344 178.463 233.813 178.35 234.289 178.243V176.781C233.813 176.895 233.344 177.008 232.868 177.122C232.513 177.207 232.151 177.292 231.796 177.377C227.621 178.392 223.49 179.466 219.404 180.6C219.298 180.628 219.184 180.663 219.078 180.692C204.689 184.691 190.549 189.538 176.733 195.206C174.403 195.752 171.952 195.356 169.912 194.106C167.872 192.855 166.408 190.85 165.84 188.527L158.724 159.229C158.159 156.896 158.543 154.435 159.792 152.384C161.041 150.334 163.052 148.862 165.385 148.292L165.491 148.257C174.688 144.452 184.047 141.003 193.478 137.937C194.386 137.639 195.296 137.348 196.204 137.057C198.434 136.354 200.667 135.671 202.901 135.006C205.259 134.303 207.614 133.627 209.967 132.976C210.123 132.933 210.279 132.891 210.435 132.848C212.736 132.217 215.044 131.606 217.359 131.017C222.493 129.711 227.663 128.512 232.868 127.419C233.337 127.319 233.813 127.22 234.289 127.128V125.687C233.813 125.772 233.344 125.871 232.868 125.978Z" fill="#F15A25"/>
<path d="M234.289 126.404V177.512C233.821 177.619 233.345 177.725 232.869 177.839C228.423 178.917 223.997 180.067 219.59 181.288C219.412 181.089 219.242 180.891 219.078 180.692C214.477 175.308 211.096 168.993 209.168 162.18C207.239 155.367 206.81 148.218 207.908 141.223C207.943 140.989 207.986 140.748 208.029 140.513C208.064 140.286 208.107 140.052 208.149 139.825C208.588 137.501 209.195 135.212 209.967 132.976C210.06 132.706 210.152 132.437 210.251 132.167C212.417 131.571 214.59 130.998 216.77 130.449C222.103 129.072 227.47 127.821 232.869 126.695C233.337 126.588 233.813 126.496 234.289 126.404Z" fill="#F15A25"/>
<path d="M201.289 172.7C200.757 171.393 199.727 170.35 198.427 169.8C197.126 169.251 195.66 169.239 194.351 169.769L175.923 177.235C174.617 177.767 173.575 178.796 173.026 180.096C172.478 181.395 172.468 182.859 172.998 184.166C173.529 185.473 174.557 186.516 175.856 187.066C177.155 187.616 178.62 187.629 179.929 187.1L198.357 179.634C199.663 179.101 200.706 178.072 201.255 176.772C201.805 175.473 201.817 174.008 201.289 172.7ZM197.824 178.314L179.396 185.787C178.436 186.175 177.361 186.167 176.407 185.763C175.453 185.359 174.699 184.594 174.309 183.635C173.92 182.676 173.927 181.601 174.33 180.648C174.732 179.694 175.497 178.939 176.456 178.548L194.884 171.082C195.844 170.692 196.919 170.699 197.873 171.102C198.827 171.504 199.582 172.269 199.972 173.229C200.362 174.188 200.355 175.262 199.952 176.216C199.549 177.17 198.784 177.924 197.824 178.314Z" fill="#F15A25"/>
<path d="M234.288 139.456V167.285C233.819 167.404 233.345 167.499 232.867 167.569C230.016 167.968 227.111 167.501 224.529 166.228C221.947 164.956 219.808 162.936 218.39 160.432C216.971 157.929 216.339 155.056 216.576 152.189C216.812 149.321 217.907 146.591 219.716 144.353C219.879 144.147 220.05 143.949 220.234 143.757C220.405 143.558 220.59 143.367 220.781 143.182C222.351 141.63 224.259 140.461 226.355 139.767C228.452 139.072 230.68 138.871 232.867 139.179C233.346 139.243 233.82 139.336 234.288 139.456Z" fill="white"/>
<path d="M232.869 91.0376V161.877C233.345 161.721 233.821 161.572 234.289 161.43V91.6835C233.814 91.4634 233.345 91.2505 232.869 91.0376ZM232.869 91.0376V161.877C233.345 161.721 233.821 161.572 234.289 161.43V91.6835C233.814 91.4634 233.345 91.2505 232.869 91.0376ZM232.869 91.0376V161.877C233.345 161.721 233.821 161.572 234.289 161.43V91.6835C233.814 91.4634 233.345 91.2505 232.869 91.0376ZM232.869 96.2116V177.839C233.345 177.725 233.821 177.619 234.289 177.512V96.6161C233.814 96.4742 233.338 96.3394 232.869 96.2116ZM232.869 96.2116V177.839C233.345 177.725 233.821 177.619 234.289 177.512V96.6161C233.814 96.4742 233.338 96.3394 232.869 96.2116ZM232.869 96.2116V177.839C233.345 177.725 233.821 177.619 234.289 177.512V96.6161C233.814 96.4742 233.338 96.3394 232.869 96.2116ZM232.869 96.2116V177.839C233.345 177.725 233.821 177.619 234.289 177.512V96.6161C233.814 96.4742 233.338 96.3394 232.869 96.2116ZM232.869 96.2116V178.577C233.345 178.463 233.814 178.35 234.289 178.243V96.6161C233.814 96.4742 233.338 96.3394 232.869 96.2116ZM542.663 29.0987H247.612C243.704 29.1051 239.958 30.6595 237.194 33.4213C234.431 36.1831 232.876 39.9271 232.869 43.8328V262.78C232.876 266.685 234.431 270.429 237.195 273.189C239.958 275.95 243.704 277.503 247.612 277.507H542.663C546.569 277.503 550.314 275.95 553.077 273.189C555.839 270.428 557.393 266.685 557.398 262.78V43.8328C557.394 39.9273 555.841 36.1826 553.079 33.4203C550.316 30.658 546.57 29.1038 542.663 29.0987ZM555.977 262.78C555.974 266.309 554.57 269.691 552.074 272.186C549.577 274.681 546.193 276.084 542.663 276.088H247.612C244.081 276.085 240.695 274.682 238.198 272.187C235.7 269.692 234.295 266.309 234.289 262.78V43.8328C234.295 40.3032 235.7 36.9196 238.197 34.4237C240.695 31.9279 244.08 30.5234 247.612 30.5181H542.663C546.194 30.5222 549.579 31.9265 552.076 34.4228C554.572 36.9191 555.975 40.3034 555.977 43.8328V262.78ZM232.869 96.2116V177.122C233.345 177.008 233.814 176.895 234.289 176.781V96.6161C233.814 96.4742 233.338 96.3394 232.869 96.2116ZM232.869 96.2116V177.839C233.345 177.725 233.821 177.619 234.289 177.512V96.6161C233.814 96.4742 233.338 96.3394 232.869 96.2116ZM232.869 96.2116V177.839C233.345 177.725 233.821 177.619 234.289 177.512V96.6161C233.814 96.4742 233.338 96.3394 232.869 96.2116ZM232.869 96.2116V177.839C233.345 177.725 233.821 177.619 234.289 177.512V96.6161C233.814 96.4742 233.338 96.3394 232.869 96.2116ZM232.869 91.0376V161.877C233.345 161.721 233.821 161.572 234.289 161.43V91.6835C233.814 91.4634 233.345 91.2505 232.869 91.0376ZM232.869 91.0376V161.877C233.345 161.721 233.821 161.572 234.289 161.43V91.6835C233.814 91.4634 233.345 91.2505 232.869 91.0376Z" fill="#292929"/>
<path d="M169.615 165.989C169.337 165.341 168.919 164.761 168.393 164.291C167.866 163.821 167.242 163.472 166.566 163.268C165.889 163.065 165.177 163.013 164.478 163.114C163.779 163.216 163.111 163.47 162.521 163.858L148.907 153.403L148.264 162.297L161.29 170.861C162.008 171.809 163.048 172.461 164.214 172.693C165.381 172.925 166.591 172.722 167.618 172.121C168.644 171.52 169.414 170.565 169.782 169.435C170.15 168.304 170.091 167.079 169.615 165.989Z" fill="#FE8310"/>
<path d="M110.265 100.94L114.65 103.011L135.712 139.433L135.726 139.458L135.748 139.476L161.531 159.865L153.671 166.826L127.897 151.744L106.704 112.284C104.97 107.561 105.898 104.73 107.224 103.08C107.891 102.249 108.667 101.709 109.276 101.377C109.58 101.211 109.843 101.097 110.028 101.025C110.121 100.989 110.194 100.963 110.244 100.947C110.252 100.944 110.259 100.942 110.265 100.94Z" fill="#292929" stroke="white" stroke-width="0.3"/>
</svg>
