<svg width="302" height="224" viewBox="0 0 302 224" fill="none" xmlns="http://www.w3.org/2000/svg">
<g clip-path="url(#clip0_504_66)">
<path d="M68.6366 222.897V108.1L32.4497 75.5294L0 57.4551V202.638C0 213.848 9.23106 222.897 20.5914 222.897H68.6366Z" fill="#4285F4"/>
<path d="M233.363 222.898H281.408C292.803 222.898 302 213.815 302 202.639V57.457L265.246 78.159L233.363 108.101V222.898Z" fill="#34A853"/>
<path d="M68.6369 108.101L63.7129 63.2466L68.6369 20.3164L151 81.0912L233.364 20.3164L238.872 60.9289L233.364 108.101L151 168.876L68.6369 108.101Z" fill="#EA4335"/>
<path d="M233.363 20.3152V108.1L302 57.4551V30.4439C302 5.39189 272.932 -8.88956 252.583 6.13469L233.363 20.3152Z" fill="#FBBC04"/>
<path d="M0 57.4556L31.5673 80.7493L68.6366 108.1V20.3157L49.4171 6.13522C29.0321 -8.89019 0 5.39242 0 30.4433V57.4544V57.4556Z" fill="#C5221F"/>
</g>
<defs>
<clipPath id="clip0_504_66">
<rect width="302" height="224" fill="white"/>
</clipPath>
</defs>
</svg>
