<svg width="410" height="361" viewBox="0 0 410 361" fill="none" xmlns="http://www.w3.org/2000/svg">
<path d="M284.73 112.601L284.729 112.599C284.449 112.22 284.282 111.77 284.247 111.3C284.212 110.83 284.31 110.36 284.53 109.944L284.531 109.944C286.119 106.924 288.029 102.617 288.802 98.1991C289.575 93.7822 289.216 89.2271 286.229 85.7445L286.229 85.7444L286.018 85.4986H302.645V110.89L287.232 113.608L287.232 113.608C287.083 113.635 286.932 113.648 286.781 113.648C286.381 113.648 285.986 113.553 285.63 113.371C285.273 113.189 284.965 112.925 284.73 112.601Z" fill="#292929" stroke="white" stroke-width="0.3"/>
<path d="M19.2864 131.572C24.7002 129.094 28.1129 124.955 26.9087 122.326C25.7045 119.698 20.3395 119.576 14.9257 122.054C9.51183 124.532 6.09923 128.672 7.30341 131.3C8.50759 133.929 13.8726 134.05 19.2864 131.572Z" fill="#F1F1F1"/>
<path d="M218.704 163.266C218.942 163.511 219.16 163.773 219.356 164.052L249.901 163.305L253.464 156.796L263.994 160.888L258.806 173.023C258.387 174.003 257.661 174.821 256.737 175.354C255.813 175.887 254.742 176.105 253.683 175.978L219.173 171.811C218.359 172.841 217.25 173.599 215.995 173.984C214.739 174.369 213.396 174.363 212.144 173.966C210.892 173.569 209.791 172.801 208.986 171.764C208.182 170.726 207.712 169.468 207.641 168.158C207.569 166.847 207.898 165.545 208.584 164.426C209.27 163.307 210.281 162.423 211.482 161.892C212.683 161.361 214.017 161.208 215.307 161.454C216.598 161.699 217.782 162.331 218.704 163.266Z" fill="#FE8310"/>
<path d="M318.276 348.683L308.233 348.683L303.455 309.962L318.278 309.963L318.276 348.683Z" fill="#FE8310"/>
<path d="M320.688 345.556L320.687 358.265L288.603 358.263V358.004C288.603 354.702 289.916 351.536 292.251 349.202C294.587 346.867 297.755 345.555 301.058 345.555H301.059L320.688 345.556Z" fill="#292929" stroke="white" stroke-width="0.3"/>
<path d="M227.08 348.46L217.844 344.516L228.668 307.032L242.299 312.853L227.08 348.46Z" fill="#FE8310"/>
<path d="M212.475 338.822L212.476 338.823L212.476 338.823L212.476 338.823L230.526 346.531L225.531 358.217L196.027 345.619L196.129 345.38C196.129 345.38 196.129 345.38 196.129 345.38C197.427 342.344 199.878 339.948 202.943 338.718C206.009 337.488 209.437 337.526 212.475 338.822Z" fill="#292929" stroke="white" stroke-width="0.3"/>
<path d="M269.459 171.655L268.732 183.418L289.962 185.689L312.175 188.065L305.637 170.202L269.459 171.655Z" fill="#FE8310"/>
<path d="M310.811 159.794L307.914 174.044L307.728 173.948L307.728 173.948C300.318 170.113 290.6 170.546 282.727 171.937C274.848 173.329 268.783 175.687 268.658 175.736L268.657 175.736L268.476 175.807L259.986 126.205L274.158 121.562L274.204 121.547L274.232 121.508L278.382 115.819L298.64 117.017L301.603 123.65L301.625 123.701L301.676 123.725L312.479 128.827L310.811 159.794Z" fill="#292929" stroke="white" stroke-width="0.3"/>
<path d="M248.542 162.131L248.542 162.131C248.604 161.873 254.793 136.02 255.616 131.862L255.468 131.833L255.616 131.862C256.457 127.609 259.526 126.442 259.636 126.401L259.636 126.401L259.686 126.383L265.299 128.09L267.81 147.813L262.77 167.966L248.51 162.263L248.542 162.131Z" fill="#292929" stroke="white" stroke-width="0.3"/>
<path d="M256.727 223.265C256.871 223.306 256.871 223.306 256.871 223.306L256.871 223.305L256.872 223.302L256.876 223.289L256.89 223.239L256.947 223.042L257.165 222.286C257.355 221.631 257.629 220.684 257.967 219.52C258.644 217.191 259.578 213.993 260.607 210.512C262.665 203.549 265.102 195.461 266.618 190.949L266.622 190.937L266.624 190.924L268.433 178.951L311.562 183.722C311.584 183.756 311.616 183.805 311.656 183.868C311.743 184.004 311.871 184.208 312.032 184.478C312.354 185.017 312.811 185.822 313.348 186.878C314.422 188.99 315.817 192.109 317.098 196.131C319.659 204.177 321.762 215.838 319.927 230.294L319.925 230.305L319.925 230.316L321.587 339.032L302.512 340.01L286.321 230.353L286.248 229.863L286.037 230.311L257.584 290.498L257.58 290.505L257.578 290.513L257.719 290.562C257.578 290.513 257.578 290.513 257.578 290.513L257.577 290.514L257.576 290.517L257.571 290.531L257.552 290.586C257.535 290.635 257.509 290.707 257.476 290.802C257.408 290.991 257.309 291.269 257.18 291.626C256.923 292.338 256.548 293.363 256.077 294.609C255.137 297.103 253.816 300.485 252.295 304.041C250.774 307.597 249.054 311.325 247.314 314.51C245.571 317.7 243.818 320.327 242.236 321.7L242.209 321.724L242.195 321.758L234.466 341.483L215.405 337.575L246.28 252.418L246.281 252.417L256.868 223.316L256.868 223.316L256.871 223.306L256.727 223.265Z" fill="#292929" stroke="white" stroke-width="0.3"/>
<path d="M294.266 187.621C294.607 187.613 294.948 187.632 295.286 187.677L315.505 164.781L313.153 157.744L323.314 152.808L328.689 164.861C329.124 165.835 329.23 166.923 328.993 167.963C328.756 169.002 328.188 169.936 327.374 170.626L300.853 193.087C301.056 194.384 300.858 195.712 300.287 196.894C299.716 198.076 298.798 199.056 297.656 199.704C296.514 200.352 295.201 200.637 293.893 200.521C292.585 200.406 291.343 199.895 290.332 199.056C289.322 198.218 288.591 197.091 288.236 195.828C287.882 194.564 287.921 193.222 288.348 191.98C288.775 190.739 289.57 189.657 290.627 188.878C291.684 188.1 292.954 187.661 294.266 187.621Z" fill="#FE8310"/>
<path d="M313.87 129.041L313.87 129.041L313.876 129.043C315.116 129.543 316.211 131.095 317.098 133.742L317.098 133.742L317.099 133.745L324.972 156.159L313.944 166.751L305.614 147.165L308.885 133.432L312.385 129.013C312.615 128.919 312.862 128.872 313.112 128.875C313.373 128.877 313.631 128.934 313.87 129.041Z" fill="#292929" stroke="white" stroke-width="0.3"/>
<path d="M270.281 108.316L270.281 93.3655C270.281 88.092 272.377 83.0344 276.107 79.3055C279.838 75.5765 284.898 73.4815 290.174 73.4815C295.45 73.4815 300.51 75.5765 304.241 79.3055C307.971 83.0344 310.067 88.092 310.067 93.3655V108.316C310.066 108.99 309.798 109.636 309.322 110.112C308.845 110.589 308.199 110.857 307.525 110.857H272.823C272.149 110.857 271.503 110.589 271.026 110.112C270.55 109.636 270.282 108.99 270.281 108.316Z" fill="#292929" stroke="white" stroke-width="0.3"/>
<path d="M286.056 110.659C294.172 110.659 300.751 104.083 300.751 95.9709C300.751 87.8589 294.172 81.2827 286.056 81.2827C277.94 81.2827 271.361 87.8589 271.361 95.9709C271.361 104.083 277.94 110.659 286.056 110.659Z" fill="#FE8310"/>
<path d="M291.462 88.8148L291.041 94.7106H288.019L286.967 91.7651L286.676 91.8049L286.468 94.7106H265.539V94.5617C265.543 90.3999 267.2 86.4098 270.144 83.4669C273.088 80.524 277.08 78.8686 281.244 78.8639L284.235 78.8639C288.399 78.8686 292.391 80.524 295.335 83.4669C298.279 86.4098 299.935 90.3999 299.94 94.5618V94.7106H293.874L291.753 88.775L291.462 88.8148Z" fill="#292929" stroke="white" stroke-width="0.3"/>
<path d="M199.581 298.157H16.3782C12.0758 298.152 7.95087 296.441 4.90851 293.4C1.86616 290.359 0.154857 286.236 0.15 281.936L0.15 16.3709C0.154878 12.0703 1.86618 7.94735 4.90851 4.9064C7.95087 1.86543 12.0758 0.154856 16.3784 0.15L199.581 0.15C203.884 0.154856 208.009 1.86543 211.051 4.9064C214.094 7.94737 215.805 12.0704 215.81 16.3709V281.936C215.805 286.236 214.094 290.359 211.051 293.4C208.009 296.441 203.884 298.152 199.581 298.157Z" fill="#292929" stroke="white" stroke-width="0.3"/>
<path d="M199.903 287.862H16.0546C14.7161 287.86 13.4328 287.328 12.4863 286.382C11.5398 285.436 11.0074 284.153 11.0059 282.815V15.4913C11.0074 14.1534 11.5398 12.8707 12.4863 11.9246C13.4328 10.9785 14.7161 10.4464 16.0546 10.4448H199.903C201.241 10.4464 202.525 10.9785 203.471 11.9246C204.418 12.8707 204.95 14.1534 204.952 15.4913V282.815C204.95 284.153 204.418 285.436 203.471 286.382C202.525 287.328 201.241 287.86 199.903 287.862Z" fill="white"/>
<path d="M107.284 6.40641C108.053 6.40641 108.677 5.78289 108.677 5.01375C108.677 4.24461 108.053 3.62109 107.284 3.62109C106.514 3.62109 105.891 4.24461 105.891 5.01375C105.891 5.78289 106.514 6.40641 107.284 6.40641Z" fill="white"/>
<path d="M148.801 179.817C140.735 179.816 132.978 176.715 127.136 171.155C121.294 165.595 117.815 158.003 117.42 149.95C117.395 150.46 117.381 150.973 117.381 151.489C117.381 159.819 120.691 167.807 126.584 173.697C132.476 179.587 140.468 182.896 148.801 182.896C157.135 182.896 165.127 179.587 171.019 173.697C176.912 167.807 180.222 159.819 180.222 151.489C180.222 150.973 180.208 150.46 180.183 149.95C179.788 158.003 176.309 165.595 170.467 171.155C164.625 176.715 156.868 179.816 148.801 179.817Z" fill="#CBCBCB"/>
<path d="M66.862 105.92C58.7956 105.919 51.0382 102.818 45.1964 97.2582C39.3545 91.6984 35.8757 84.1058 35.4802 76.0527C35.4559 76.563 35.4414 77.0759 35.4414 77.5923C35.4414 85.9217 38.7518 93.9101 44.6443 99.7999C50.5368 105.69 58.5288 108.999 66.862 108.999C75.1953 108.999 83.1872 105.69 89.0797 99.7999C94.9722 93.9101 98.2826 85.9217 98.2826 77.5923C98.2826 77.0759 98.2682 76.563 98.2438 76.0527C97.8484 84.1058 94.3695 91.6984 88.5277 97.2582C82.6858 102.818 74.9285 105.919 66.862 105.92Z" fill="#CBCBCB"/>
<path d="M68.7097 253.714C60.6432 253.714 52.8859 250.613 47.044 245.053C41.2022 239.493 37.7233 231.9 37.3279 223.847C37.3035 224.357 37.2891 224.87 37.2891 225.387C37.2891 233.716 40.5994 241.704 46.492 247.594C52.3845 253.484 60.3764 256.793 68.7097 256.793C77.0429 256.793 85.0349 253.484 90.9274 247.594C96.8199 241.704 100.13 233.716 100.13 225.387C100.13 224.87 100.116 224.357 100.091 223.847C99.696 231.9 96.2172 239.493 90.3753 245.053C84.5335 250.613 76.7761 253.714 68.7097 253.714Z" fill="#CBCBCB"/>
<path d="M148.811 180.282C142.53 180.282 136.39 178.42 131.167 174.932C125.945 171.444 121.874 166.486 119.47 160.685C117.067 154.885 116.438 148.502 117.663 142.345C118.888 136.187 121.913 130.531 126.355 126.091C130.796 121.652 136.455 118.628 142.615 117.403C148.776 116.179 155.162 116.807 160.965 119.21C166.768 121.612 171.728 125.681 175.217 130.901C178.707 136.122 180.57 142.259 180.57 148.538C180.57 156.957 177.224 165.031 171.268 170.984C165.312 176.937 157.234 180.282 148.811 180.282ZM148.811 118.305C142.829 118.305 136.981 120.078 132.007 123.4C127.033 126.722 123.157 131.444 120.867 136.968C118.578 142.492 117.979 148.571 119.146 154.436C120.313 160.3 123.194 165.687 127.424 169.915C131.654 174.143 137.043 177.022 142.91 178.189C148.778 179.356 154.859 178.757 160.386 176.469C165.913 174.18 170.636 170.305 173.96 165.334C177.283 160.362 179.057 154.517 179.057 148.538C179.057 144.567 178.275 140.636 176.755 136.968C175.235 133.3 173.007 129.967 170.198 127.16C167.39 124.353 164.056 122.126 160.386 120.606C156.716 119.087 152.783 118.305 148.811 118.305Z" fill="#292929"/>
<path d="M166.961 139.844L170.741 139.088C170.741 139.088 167.565 142.64 166.961 142.867C166.904 143.622 166.904 144.38 166.961 145.135C159.701 176.274 132.934 162.518 132.934 162.518C142.688 162.745 143.52 158.739 143.52 158.739C137.849 157.908 136.714 154.204 136.714 154.204C137.223 154.473 137.813 154.544 138.371 154.404C138.929 154.265 139.416 153.925 139.739 153.449C133.614 151.861 134.446 145.89 134.446 145.89C135.538 146.678 136.813 147.173 138.151 147.326C137.471 146.495 131.724 139.617 135.202 136.065C135.202 136.065 139.437 143.623 150.552 144.303L151.308 144.152C151.18 143.608 151.129 143.048 151.157 142.489C151.157 140.384 151.993 138.366 153.482 136.878C154.971 135.389 156.991 134.553 159.096 134.553C164.39 134.553 165.524 137.576 165.524 137.576L169.305 135.309C169.229 135.309 168.851 139.088 166.961 139.844Z" fill="#F15A25"/>
<path d="M67.1472 106.59C60.8659 106.59 54.7257 104.728 49.5031 101.24C44.2804 97.7522 40.2099 92.7945 37.8062 86.994C35.4024 81.1935 34.7735 74.8109 35.9989 68.6531C37.2243 62.4954 40.249 56.8392 44.6905 52.3997C49.132 47.9602 54.7908 44.9369 60.9514 43.712C67.1119 42.4872 73.4975 43.1158 79.3006 45.5184C85.1037 47.9211 90.0637 51.9898 93.5533 57.2101C97.043 62.4303 98.9056 68.5677 98.9056 74.8461C98.9056 79.0148 98.0841 83.1426 96.4881 86.994C94.8921 90.8454 92.5528 94.3448 89.6038 97.2925C86.6547 100.24 83.1537 102.578 79.3006 104.174C75.4475 105.769 71.3177 106.59 67.1472 106.59ZM67.1472 44.6137C61.165 44.6137 55.3173 46.3868 50.3433 49.7088C45.3693 53.0308 41.4926 57.7524 39.2034 63.2767C36.9141 68.8009 36.3151 74.8797 37.4822 80.7442C38.6492 86.6087 41.5299 91.9956 45.7599 96.2237C49.9899 100.452 55.3792 103.331 61.2464 104.498C67.1136 105.664 73.1951 105.065 78.7219 102.777C84.2486 100.489 88.9724 96.6141 92.2959 91.6424C95.6194 86.6707 97.3933 80.8255 97.3933 74.8461C97.3933 66.828 94.2067 59.1383 88.5344 53.4686C82.8622 47.7989 75.1689 44.6137 67.1472 44.6137Z" fill="#292929"/>
<path d="M75.7972 59.1423C77.9127 59.1486 79.9397 59.9914 81.4356 61.4866C82.9315 62.9818 83.7747 65.0079 83.781 67.1225V83.0813C83.7747 85.1958 82.9315 87.2219 81.4356 88.7171C79.9397 90.2123 77.9127 91.0551 75.7972 91.0615H59.8312C57.7157 91.0551 55.6887 90.2123 54.1928 88.7171C52.6969 87.2219 51.8537 85.1958 51.8474 83.0813V67.1225C51.8537 65.0079 52.6969 62.9818 54.1928 61.4866C55.6886 59.9914 57.7157 59.1486 59.8312 59.1423H75.7972ZM75.7972 55.9507H59.8312C56.8696 55.9593 54.0317 57.1391 51.9375 59.2323C49.8433 61.3256 48.6629 64.1622 48.6543 67.1225V83.0813C48.6629 86.0416 49.8433 88.8781 51.9375 90.9714C54.0317 93.0646 56.8696 94.2444 59.8312 94.253H75.7972C78.7588 94.2444 81.5967 93.0646 83.6909 90.9714C85.7851 88.8781 86.9654 86.0415 86.974 83.0813V67.1225C86.9654 64.1622 85.7851 61.3256 83.6909 59.2324C81.5967 57.1391 78.7588 55.9593 75.7972 55.9507Z" fill="#F15A25"/>
<path d="M78.1914 67.1228C77.558 67.1214 76.951 66.8688 76.5039 66.4204C76.0568 65.972 75.806 65.3645 75.8066 64.7314C75.8073 64.0983 76.0594 63.4914 76.5075 63.044C76.9556 62.5965 77.5631 62.3452 78.1965 62.3452C78.8299 62.3452 79.4374 62.5965 79.8855 63.044C80.3336 63.4914 80.5857 64.0983 80.5864 64.7314C80.5871 65.3645 80.3363 65.972 79.8891 66.4204C79.442 66.8688 78.835 67.1214 78.2017 67.1228C78.1982 67.1228 78.1947 67.1228 78.1914 67.1228Z" fill="#F15A25"/>
<path d="M67.8143 68.7179C69.0775 68.7179 70.3124 69.0924 71.3627 69.7939C72.413 70.4953 73.2317 71.4924 73.7151 72.6589C74.1985 73.8254 74.3249 75.109 74.0785 76.3474C73.8321 77.5858 73.2238 78.7233 72.3305 79.6161C71.4373 80.509 70.2993 81.117 69.0603 81.3633C67.8214 81.6096 66.5372 81.4832 65.3701 81C64.2031 80.5168 63.2056 79.6986 62.5038 78.6487C61.802 77.5989 61.4274 76.3646 61.4274 75.1019C61.4274 74.2636 61.5926 73.4334 61.9136 72.6589C62.2346 71.8843 62.705 71.1806 63.2981 70.5878C63.8912 69.995 64.5953 69.5247 65.3702 69.2039C66.1451 68.8831 66.9756 68.7179 67.8143 68.7179ZM67.8143 65.5264C65.9196 65.5264 64.0674 66.088 62.492 67.1401C60.9166 68.1923 59.6887 69.6878 58.9636 71.4375C58.2385 73.1872 58.0488 75.1125 58.4184 76.97C58.7881 78.8275 59.7005 80.5337 61.0403 81.8729C62.38 83.2121 64.087 84.1241 65.9453 84.4935C67.8036 84.863 69.7299 84.6734 71.4804 83.9486C73.2309 83.2239 74.727 81.9966 75.7797 80.4219C76.8324 78.8472 77.3942 76.9958 77.3942 75.102C77.3942 72.5624 76.3849 70.1268 74.5883 68.331C72.7918 66.5353 70.3551 65.5264 67.8143 65.5264Z" fill="#F15A25"/>
<path d="M68.6589 253.973C62.3776 253.973 56.2375 252.111 51.0148 248.623C45.7922 245.135 41.7216 240.177 39.3179 234.377C36.9141 228.576 36.2852 222.194 37.5106 216.036C38.736 209.878 41.7607 204.222 46.2022 199.782C50.6437 195.343 56.3026 192.32 62.4631 191.095C68.6236 189.87 75.0092 190.499 80.8123 192.901C86.6154 195.304 91.5754 199.373 95.0651 204.593C98.5547 209.813 100.417 215.951 100.417 222.229C100.417 230.648 97.0714 238.722 91.1155 244.675C85.1596 250.629 77.0817 253.973 68.6589 253.973ZM68.6589 191.997C62.6767 191.997 56.829 193.77 51.855 197.092C46.8811 200.414 43.0043 205.135 40.7151 210.659C38.4258 216.184 37.8268 222.262 38.9939 228.127C40.1609 233.991 43.0416 239.378 47.2716 243.606C51.5016 247.835 56.8909 250.714 62.7581 251.88C68.6253 253.047 74.7068 252.448 80.2336 250.16C85.7603 247.872 90.4841 243.997 93.8076 239.025C97.1311 234.053 98.905 228.208 98.905 222.229C98.905 218.259 98.1227 214.327 96.6027 210.659C95.0826 206.992 92.8547 203.659 90.0461 200.851C87.2375 198.044 83.9032 195.817 80.2336 194.298C76.5639 192.778 72.6308 191.997 68.6589 191.997Z" fill="#292929"/>
<path fill-rule="evenodd" clip-rule="evenodd" d="M89.4207 222.354C89.4199 218.388 88.2824 214.506 86.1429 211.166C84.0033 207.827 80.9512 205.17 77.3479 203.511C73.7446 201.851 69.7411 201.258 65.8112 201.802C61.8813 202.346 58.1897 204.004 55.1734 206.58C52.157 209.156 49.9423 212.542 48.7913 216.337C47.6403 220.132 47.6013 224.178 48.679 227.994C49.7566 231.811 51.9057 235.239 54.8718 237.872C57.838 240.506 61.497 242.235 65.4156 242.854V228.354H60.1429V222.354H65.4156V217.781C65.4156 212.581 68.5159 209.706 73.2576 209.706C74.8148 209.728 76.3683 209.864 77.9056 210.112V215.22H75.2864C72.7089 215.22 71.9025 216.819 71.9025 218.462V222.355H77.66L76.7406 228.355H71.9025V242.856C76.7864 242.083 81.234 239.593 84.4453 235.835C87.6566 232.077 89.4208 227.296 89.4207 222.354Z" fill="#F15A25"/>
<path d="M387.396 353.382H380.394L377.062 326.381H387.398L387.396 353.382Z" fill="white"/>
<path d="M389.034 360.018H366.752V359.883C366.752 357.592 367.662 355.396 369.282 353.777C370.902 352.157 373.099 351.247 375.39 351.247C375.39 351.247 375.39 351.247 375.39 351.247H389.034L389.034 360.018Z" fill="#292929" stroke="white" stroke-width="0.3"/>
<path d="M334.192 353.152L327.426 351.343L331.185 324.398L341.17 327.067L334.192 353.152Z" fill="white"/>
<path d="M336.324 351.511L334.057 359.984L312.531 354.231L312.566 354.1C312.566 354.1 312.566 354.1 312.566 354.1C313.158 351.887 314.605 350 316.589 348.854C318.573 347.708 320.931 347.396 323.145 347.988L336.324 351.511Z" fill="#292929" stroke="white" stroke-width="0.3"/>
<path d="M365.184 240.754L339.884 349.982L323.312 345.92L338.603 207.249L391.363 202.218L397.139 208.926L389.563 347.158H373.638L365.48 240.776L365.184 240.754Z" fill="#292929" stroke="white" stroke-width="0.3"/>
<path d="M342.382 112.686L358.518 104.594L383.331 105.03L404.685 115.952L392.535 176.602L397.784 208.224C377.499 213.394 356.263 213.569 335.897 208.733L335.734 208.694C335.734 208.694 347.796 165.918 342.661 152.863L342.382 112.686Z" fill="#E6E6E6"/>
<path d="M389.063 80.3634C389.045 75.5242 387.107 70.8898 383.674 67.4775C380.241 64.0651 375.594 62.1537 370.753 62.1626C365.911 62.1716 361.271 64.1002 357.851 67.5253C354.431 70.9503 352.51 75.5918 352.51 80.431C352.51 85.2703 354.431 89.9118 357.851 93.3368C361.271 96.7619 365.911 98.6905 370.753 98.6995C375.594 98.7084 380.241 96.797 383.674 93.3846C387.107 89.9723 389.045 85.3379 389.063 80.4987V80.3634Z" fill="white"/>
<path d="M340.158 156.905C340.505 157.796 341.044 158.601 341.736 159.262C342.428 159.923 343.256 160.424 344.163 160.731C345.07 161.037 346.033 161.141 346.984 161.035C347.936 160.929 348.852 160.616 349.669 160.118L382.433 177.429L383.493 169.452L351.657 150.687C350.729 149.37 349.349 148.44 347.78 148.072C346.211 147.704 344.562 147.924 343.144 148.69C341.727 149.457 340.64 150.716 340.089 152.23C339.539 153.744 339.563 155.407 340.157 156.905H340.158Z" fill="white"/>
<path d="M383.817 158.284C383.283 159.078 382.582 159.745 381.762 160.239C380.942 160.733 380.023 161.041 379.072 161.141C378.12 161.242 377.157 161.133 376.252 160.821C375.347 160.51 374.521 160.004 373.833 159.339L338.072 169.066L338.384 158.937L373.956 149.703C375.15 148.621 376.7 148.014 378.312 147.998C379.924 147.982 381.485 148.558 382.701 149.616C383.916 150.674 384.701 152.14 384.907 153.738C385.112 155.336 384.725 156.954 383.817 158.285L383.817 158.284Z" fill="white"/>
<path d="M397.715 116.391L404.687 115.954C404.687 115.954 412.85 126.72 408.323 138.403C408.323 138.403 409.107 180.372 391.027 178.647C372.947 176.923 367.234 176.923 367.234 176.923L372.661 161.792L384.802 158.045C384.802 158.045 381.06 141.547 388.143 134.682L397.715 116.391Z" fill="#E6E6E6"/>
<path d="M347.369 116.023L346.384 110.973C346.384 110.973 331.851 110.631 328.978 132.643C328.978 132.643 315.909 165.585 328.718 169.827C341.528 174.069 355.618 169.827 355.618 169.827L354.557 155.299L340.464 152.425C340.464 152.425 347.745 143.01 343.781 134.843L347.369 116.023Z" fill="#E6E6E6"/>
<path d="M352.623 61.1513C351.787 63.1864 351.582 65.4282 352.037 67.5855C352.598 69.8019 354.246 71.8016 356.432 72.3867C357.142 72.5767 357.878 72.618 358.633 72.6324C358.79 72.6355 358.948 72.6373 359.107 72.6391C359.706 72.6461 360.315 72.6532 360.915 72.7235C361.682 72.8134 362.486 73.06 363.148 73.4763C363.81 73.893 364.337 74.4857 364.525 75.2674L364.528 75.2803L364.527 75.2804C364.629 75.9642 364.618 76.6599 364.495 77.3401C364.023 82.4013 367.887 87.5052 372.889 88.4263C373.368 88.5141 373.852 88.5683 374.341 88.6232C374.571 88.6491 374.803 88.6752 375.037 88.7049C375.758 88.797 376.481 88.9237 377.17 89.1942C378.156 89.5805 378.672 90.1888 378.93 90.8993C379.184 91.5984 379.184 92.3869 379.167 93.1253C379.165 93.1922 379.163 93.2586 379.162 93.3244C379.145 93.9994 379.129 94.6185 379.272 95.1272C379.35 95.4014 379.472 95.6362 379.661 95.8256C379.85 96.0149 380.114 96.1672 380.488 96.2638L380.488 96.2638C381.054 96.4102 381.716 96.1922 382.432 95.7103C383.143 95.2313 383.879 94.511 384.579 93.7099C385.783 92.3323 386.864 90.738 387.518 89.7736C387.624 89.6166 387.719 89.4762 387.802 89.3563C390.034 86.095 391.25 82.2458 391.297 78.2944L352.623 61.1513ZM352.623 61.1513L353.179 62.3105L353.273 62.5075L353.423 62.3485C354.139 61.5887 354.637 60.6508 354.865 59.6337C355.405 59.6831 355.926 59.86 356.385 60.1506C356.88 60.4641 357.286 60.8993 357.565 61.4146L357.589 61.4595L357.636 61.4803C357.77 61.5403 357.9 61.5606 358.024 61.5335C358.148 61.5065 358.247 61.4364 358.327 61.3489C358.48 61.1814 358.588 60.9206 358.685 60.6675C358.703 60.6211 358.72 60.5745 358.738 60.528C358.82 60.309 358.902 60.0911 359.005 59.8983C359.127 59.6702 359.265 59.5021 359.44 59.4182C359.805 59.3338 360.189 59.3855 360.519 59.5638L360.53 59.5699L360.542 59.574C361.572 59.9194 362.626 59.8303 363.66 59.5709C364.435 59.3766 365.211 59.0829 365.962 58.7986C366.209 58.7049 366.454 58.6123 366.695 58.5246C370.078 57.2979 373.702 56.8839 377.275 57.3162C379.649 57.6058 382.028 58.3054 383.856 59.8044C385.309 61.1213 386.491 62.7095 387.335 64.4797L387.335 64.4798L387.338 64.486C389.627 68.7624 391.344 73.466 391.297 78.2941L352.623 61.1513Z" fill="#292929" stroke="white" stroke-width="0.3"/>
</svg>
