<svg width="402" height="390" viewBox="0 0 402 390" fill="none" xmlns="http://www.w3.org/2000/svg">
<path d="M212.049 139.695C251.467 139.695 283.422 109.546 283.422 72.3557C283.422 35.1649 251.467 5.01587 212.049 5.01587C172.631 5.01587 140.676 35.1649 140.676 72.3557C140.676 109.546 172.631 139.695 212.049 139.695Z" fill="#F1F2F3"/>
<path d="M212.048 128.472C244.896 128.472 271.525 103.348 271.525 72.3555C271.525 41.3632 244.896 16.239 212.048 16.239C179.199 16.239 152.57 41.3632 152.57 72.3555C152.57 103.348 179.199 128.472 212.048 128.472Z" fill="#F15A25"/>
<path d="M206.996 92.6484C206.89 92.6484 206.784 92.646 206.677 92.6411C205.736 92.5983 204.817 92.364 203.981 91.9544C203.145 91.5447 202.413 90.9694 201.835 90.2678L192.712 79.2003C191.649 77.9086 191.174 76.2721 191.388 74.6497C191.603 73.0274 192.491 71.5517 193.858 70.5464L194.186 70.3053C195.555 69.3031 197.29 68.8541 199.01 69.0568C200.729 69.2595 202.293 70.0975 203.359 71.3868C203.873 72.0106 204.524 72.5222 205.267 72.8866C206.011 73.251 206.829 73.4596 207.665 73.4981C208.502 73.5366 209.337 73.404 210.115 73.1096C210.892 72.8151 211.592 72.3656 212.169 71.792L230.694 53.3415C231.284 52.7536 231.992 52.2811 232.776 51.951C233.56 51.621 234.405 51.4399 235.263 51.418C236.121 51.3962 236.975 51.534 237.777 51.8236C238.578 52.1133 239.312 52.5491 239.935 53.1061L240.237 53.3765C241.496 54.5013 242.229 56.0517 242.276 57.6866C242.322 59.3215 241.679 60.907 240.487 62.0943L211.74 90.7226C211.13 91.331 210.394 91.8157 209.578 92.1468C208.763 92.4779 207.884 92.6486 206.996 92.6484Z" fill="white"/>
<path d="M370.257 58.7206H323.279V20.1733C323.328 17.7865 324.377 15.5152 326.198 13.8573C328.018 12.1994 330.461 11.2901 332.991 11.3288H348.606C360.545 11.3288 370.257 20.1743 370.257 31.0468V58.7206Z" fill="#292929"/>
<path d="M387.653 381.282L378.735 381.281L374.492 348.826L387.655 348.827L387.653 381.282Z" fill="#FE8310"/>
<path d="M389.924 389.439L361.168 389.438V389.094C361.168 386.294 362.347 383.608 364.446 381.628C366.545 379.647 369.392 378.535 372.361 378.534L389.925 378.535L389.924 389.439Z" fill="#292929"/>
<path d="M305.452 381.282L296.533 381.281L292.291 348.826L305.454 348.827L305.452 381.282Z" fill="#FE8310"/>
<path d="M307.725 389.439L278.969 389.438V389.094C278.969 386.294 280.148 383.608 282.247 381.628C284.346 379.647 287.193 378.535 290.161 378.534L307.726 378.535L307.725 389.439Z" fill="#292929"/>
<path d="M316.22 120.545L310.4 155.548L365.685 156.234L358.411 122.604L316.22 120.545Z" fill="#FE8310"/>
<path d="M312.003 147.001L294.395 191.237L292.213 374.558H307.125L342.77 227.27L375.505 370.713H390.053L379.869 209.425C379.869 209.425 382.873 177.053 367.503 157.95L363.762 147.753L312.003 147.001Z" fill="#292929"/>
<path d="M387.531 181.486C385.992 181.09 384.563 180.381 383.346 179.407C382.129 178.434 381.152 177.221 380.486 175.854C379.819 174.486 379.478 172.997 379.487 171.492C379.497 169.987 379.855 168.502 380.539 167.141L357.02 94.796L374.319 91.5605L395.829 162.474C398.175 163.709 399.96 165.712 400.845 168.105C401.73 170.498 401.653 173.114 400.63 175.458C399.608 177.801 397.709 179.709 395.295 180.82C392.88 181.931 390.118 182.168 387.531 181.486Z" fill="#FE8310"/>
<path d="M356.408 139.876L318.298 139.182C317.209 139.16 316.157 138.802 315.304 138.162C314.451 137.523 313.844 136.637 313.576 135.641C311.533 128.009 307.038 108.12 309.422 88.3102C309.892 84.4727 311.174 80.7631 313.191 77.4011C315.207 74.039 317.918 71.0927 321.163 68.7365C324.408 66.3803 328.121 64.6621 332.082 63.6835C336.043 62.7049 340.171 62.4858 344.224 63.0391C348.498 63.6165 352.595 65.0401 356.246 67.2166C359.897 69.393 363.018 72.2731 365.406 75.6679C367.794 79.0627 369.394 82.8954 370.101 86.9147C370.809 90.9339 370.607 95.0489 369.511 98.9896C364.714 116.177 362.004 128.474 361.457 135.538C361.376 136.559 360.943 137.528 360.224 138.295C359.505 139.062 358.539 139.587 357.475 139.788C357.158 139.847 356.836 139.877 356.514 139.877C356.478 139.877 356.443 139.877 356.408 139.876Z" fill="#292929"/>
<path d="M240.646 76.3288C240.875 76.8132 241.063 77.3139 241.208 77.8262L288.911 93.1199L298.128 85.5225L312.099 97.1486L297.167 112.094C295.96 113.302 294.371 114.108 292.638 114.39C290.905 114.673 289.122 114.418 287.556 113.663L236.511 89.0634C234.665 90.1317 232.518 90.6445 230.356 90.5335C228.194 90.4225 226.119 89.693 224.406 88.4421C222.694 87.1912 221.426 85.4781 220.771 83.5306C220.116 81.5832 220.105 79.4937 220.739 77.5402C221.373 75.5866 222.623 73.8616 224.322 72.5945C226.021 71.3273 228.088 70.5782 230.249 70.4467C232.41 70.3151 234.562 70.8075 236.419 71.8582C238.277 72.9089 239.751 74.4683 240.646 76.3288Z" fill="#FE8310"/>
<path d="M289.012 90.6809C289.016 90.0611 289.161 89.4494 289.438 88.8874C289.715 88.3255 290.118 87.8266 290.618 87.4247L308.084 73.3873C310.295 70.9974 313.419 69.5323 316.773 69.3131C320.127 69.0939 323.436 70.1386 325.974 72.2181C328.513 74.2976 330.073 77.2421 330.314 80.4058C330.554 83.5694 329.455 86.694 327.258 89.0941L314.819 107.368C314.464 107.89 313.994 108.333 313.441 108.668C312.888 109.002 312.265 109.221 311.615 109.308C310.965 109.395 310.302 109.349 309.672 109.172C309.042 108.996 308.46 108.694 307.965 108.286L290.576 93.9559C290.081 93.5483 289.685 93.0447 289.415 92.4795C289.145 91.9143 289.007 91.3008 289.012 90.6809Z" fill="#292929"/>
<path d="M355.968 113.121C355.387 112.832 354.878 112.429 354.477 111.938C354.076 111.447 353.792 110.88 353.644 110.276L348.48 89.184C347.25 86.2326 347.311 82.9413 348.649 80.0321C349.987 77.1228 352.494 74.8329 355.619 73.6647C358.744 72.4964 362.232 72.545 365.319 73.7999C368.406 75.0548 370.84 77.4135 372.086 80.3588L383.552 99.1908C383.879 99.7283 384.08 100.326 384.14 100.943C384.2 101.56 384.119 102.183 383.901 102.767C383.684 103.352 383.335 103.886 382.879 104.332C382.424 104.778 381.871 105.127 381.26 105.353L359.77 113.319C359.158 113.546 358.502 113.646 357.846 113.611C357.19 113.577 356.55 113.41 355.968 113.121Z" fill="#292929"/>
<path d="M374.457 15.0954C376.221 11.198 373.187 6.23908 367.679 4.01931C362.171 1.79954 356.276 3.1595 354.511 7.0569C352.747 10.9543 355.781 15.9132 361.289 18.133C366.797 20.3528 372.692 18.9928 374.457 15.0954Z" fill="#292929"/>
<path d="M357.367 44.0649C363.259 33.8954 359.298 21.1448 348.519 15.5857C337.741 10.0266 324.227 13.764 318.335 23.9335C312.443 34.1029 316.404 46.8535 327.182 52.4126C337.961 57.9718 351.475 54.2343 357.367 44.0649Z" fill="#FE8310"/>
<path d="M350.051 9.96494H324.61C322.745 9.94217 320.94 10.5855 319.556 11.766C318.173 12.9465 317.314 14.5768 317.151 16.33C317.085 17.2616 317.223 18.1961 317.555 19.0755C317.888 19.9549 318.408 20.7605 319.085 21.4423C319.761 22.1242 320.578 22.6678 321.486 23.0394C322.394 23.411 323.373 23.6028 324.363 23.6029C326.279 23.6029 328.118 24.3213 329.473 25.6001C330.828 26.8789 331.59 28.6133 331.59 30.4218V58.3795H371.34V30.0513C371.34 27.4135 370.79 24.8016 369.72 22.3646C368.65 19.9276 367.082 17.7133 365.105 15.8481C363.128 13.9829 360.781 12.5034 358.198 11.4939C355.615 10.4845 352.847 9.96494 350.051 9.96494Z" fill="#292929"/>
<path d="M99.4708 375.817L112.164 375.816L118.202 329.658L99.4688 329.659L99.4708 375.817Z" fill="#FE8310"/>
<path d="M136.645 386.927L96.7517 386.928L96.751 372.397L121.231 372.396C125.319 372.396 129.239 373.927 132.13 376.652C135.02 379.377 136.644 383.073 136.645 386.927Z" fill="#292929"/>
<path d="M7.36914 362.261L18.9143 367.233L44.7505 327.613L27.7096 320.276L7.36914 362.261Z" fill="#FE8310"/>
<path d="M36.2871 386.928L0.000248766 371.303L6.40386 358.085L28.6708 367.674C32.3891 369.275 35.2805 372.203 36.7088 375.814C38.1371 379.425 37.9854 383.423 36.2871 386.928Z" fill="#292929"/>
<path d="M44.3364 220.184C43.1203 219.322 42.1196 218.218 41.4049 216.951C40.6902 215.684 40.2788 214.285 40.1997 212.852C40.1206 211.419 40.3758 209.987 40.9472 208.657C41.5186 207.327 42.3924 206.131 43.507 205.154L28.5859 173.236L47.5418 176.264L58.8049 206.11C60.4221 207.984 61.2538 210.353 61.1426 212.766C61.0314 215.18 59.9849 217.471 58.2015 219.206C56.4181 220.941 54.0216 221.999 51.4662 222.179C48.9107 222.359 46.3739 221.65 44.3364 220.184Z" fill="#FE8310"/>
<path d="M95.6525 359.752L83.4745 259.485C83.3764 258.678 82.9766 257.93 82.3469 257.376C81.7172 256.822 80.8988 256.498 80.0383 256.461C79.1778 256.424 78.3316 256.678 77.6514 257.176C76.9711 257.674 76.5014 258.384 76.3264 259.18L70.2895 286.602C70.2042 286.99 70.0634 287.365 69.8709 287.717L34.5317 352.499C34.0112 353.453 33.139 354.194 32.0791 354.583C31.0193 354.972 29.8452 354.982 28.7779 354.612L16.4899 350.343C15.9103 350.142 15.3789 349.834 14.9266 349.437C14.4744 349.041 14.1103 348.563 13.8557 348.033C13.601 347.502 13.4608 346.929 13.4433 346.347C13.4257 345.765 13.5312 345.185 13.7534 344.642L42.5208 274.312C42.6732 273.94 42.7551 273.546 42.763 273.147L44.2326 199.71C44.2545 198.634 44.6949 197.602 45.4702 196.812C46.2455 196.021 47.3018 195.527 48.4384 195.422L124.78 188.4C125.455 188.338 126.137 188.416 126.777 188.628C127.417 188.84 128 189.181 128.486 189.628C128.972 190.074 129.348 190.616 129.589 191.214C129.829 191.812 129.928 192.452 129.879 193.09L117.054 359.571C116.965 360.677 116.437 361.71 115.576 362.465C114.715 363.22 113.583 363.642 112.407 363.645H100.282C99.1375 363.646 98.0334 363.249 97.1797 362.531C96.326 361.813 95.7824 360.824 95.6525 359.752Z" fill="#292929"/>
<path d="M94.2437 62.9187C108.288 62.9187 119.673 52.1852 119.673 38.9448C119.673 25.7044 108.288 14.9709 94.2437 14.9709C80.1995 14.9709 68.8145 25.7044 68.8145 38.9448C68.8145 52.1852 80.1995 62.9187 94.2437 62.9187Z" fill="#FE8310"/>
<path d="M116.279 76.0153C115.583 75.7017 114.891 75.4001 114.205 75.1107C105.856 71.5692 96.6547 70.1908 87.5516 71.1175C78.4485 72.0442 69.7722 75.2425 62.4167 80.3829C48.8732 89.8932 42.3452 104.211 44.5066 119.667C49.0628 152.242 43.8464 196.43 43.3047 200.831C85.1077 218.954 121.783 196.169 125.038 194.052L116.279 76.0153Z" fill="#F1F2F3"/>
<path d="M42.166 200.412C41.4043 200.298 40.6847 200.007 40.072 199.565C39.4594 199.123 38.9729 198.545 38.6565 197.882L17.3181 153.308C16.5186 151.641 16.1655 149.814 16.29 147.988C16.4145 146.161 17.0128 144.392 18.0322 142.834L44.2362 102.749C45.0609 101.305 46.3303 100.131 47.8772 99.3811C49.4241 98.6314 51.1757 98.3412 52.901 98.549C54.6264 98.7568 56.2443 99.4528 57.5416 100.545C58.8389 101.637 59.7544 103.075 60.1676 104.668C60.6361 106.482 60.4279 108.394 59.5779 110.081L40.1939 148.458L52.9338 189.109C53.1592 189.836 53.1824 190.605 53.0014 191.343C52.8204 192.081 52.4412 192.762 51.9002 193.322L46.3377 199.043C45.9025 199.492 45.3728 199.85 44.7824 200.096C44.192 200.341 43.5539 200.468 42.9087 200.468C42.6599 200.468 42.4116 200.449 42.166 200.412Z" fill="#F1F2F3"/>
<path opacity="0.2" d="M101.566 191.097L97.6211 116.719L98.6443 116.593L116.378 195.269H106.219C105.023 195.27 103.873 194.837 103.007 194.061C102.141 193.284 101.625 192.223 101.566 191.097Z" fill="#292929"/>
<path d="M115.619 214.83C114.619 213.747 113.883 212.472 113.463 211.093C113.043 209.713 112.949 208.264 113.187 206.847C113.425 205.43 113.99 204.079 114.842 202.89C115.694 201.701 116.812 200.702 118.117 199.964L110.551 165.821L128.427 172.494L132.871 203.894C134.041 206.044 134.333 208.523 133.692 210.863C133.052 213.202 131.524 215.238 129.397 216.586C127.27 217.934 124.693 218.5 122.154 218.176C119.614 217.852 117.289 216.662 115.619 214.83Z" fill="#FE8310"/>
<path d="M112.049 191.625L97.1099 97.7323L97.0957 97.6437L99.9834 85.1203C100.707 81.9829 102.618 79.2016 105.36 77.2967C108.101 75.3918 111.485 74.4939 114.878 74.7709C118.271 75.048 121.44 76.481 123.793 78.8019C126.147 81.1227 127.522 84.1725 127.663 87.3804L132.146 189.658C132.191 190.768 131.789 191.853 131.021 192.697C130.254 193.54 129.176 194.078 128.005 194.204L117.171 195.34C116.996 195.358 116.821 195.367 116.645 195.367C115.53 195.368 114.452 194.99 113.608 194.303C112.764 193.616 112.211 192.665 112.049 191.625Z" fill="#F1F2F3"/>
<path d="M83.7894 60.7168C80.3306 60.6889 76.9508 59.7382 74.0412 57.9747C71.1316 56.2111 68.8112 53.7069 67.3486 50.7518C64.9915 46.051 63.6817 42.3063 63.4555 39.6206C62.8475 32.4048 67.1721 21.0658 72.8992 14.8594C79.1823 8.05058 89.1269 7.1007 98.7441 6.18228C101.372 5.93111 104.089 5.67178 106.661 5.29483C108.867 4.97175 111.613 4.56944 113.948 5.38634C114.622 5.61943 115.239 5.97971 115.761 6.44516C116.283 6.91061 116.699 7.47148 116.983 8.09351C117.075 8.31203 117.213 8.51054 117.389 8.67684C117.565 8.84315 117.776 8.97371 118.007 9.06051C118.207 9.13278 118.421 9.16514 118.635 9.15554C118.849 9.14594 119.059 9.0946 119.251 9.00475C119.641 8.81756 120.073 8.71997 120.511 8.71989C120.949 8.71981 121.381 8.81723 121.771 9.00427C122.116 9.16779 122.415 9.40597 122.644 9.69929C122.872 9.99261 123.024 10.3328 123.086 10.6919C123.127 10.9385 123.208 11.1775 123.327 11.4007C123.528 11.7476 123.805 12.0503 124.14 12.289C124.474 12.5276 124.859 12.6967 125.267 12.7852C125.892 12.9165 126.443 13.2583 126.819 13.7462C127.194 14.2342 127.368 14.8346 127.306 15.4347C127.151 16.6662 127.085 17.995 127.022 19.2805C126.781 24.1171 126.534 29.1172 121.377 29.0366C120.058 28.9849 118.752 28.7676 117.494 28.3904C115.626 27.9013 114.15 27.5129 112.162 28.6816C109.106 30.4774 108.607 34.2316 108.167 37.5441L108.09 38.1232C107.576 41.9117 105.452 46.471 101.158 46.8523C99.795 46.8942 98.4371 46.6723 97.1684 46.2002C95.8635 45.6557 94.4155 45.4919 93.011 45.7298C90.6529 46.3642 89.5178 49.0194 89.6152 51.3147C89.6781 52.2546 89.8057 53.1896 89.9971 54.1138C90.3444 55.5777 90.4555 57.0826 90.3268 58.5777C90.2043 59.4871 89.0962 60.0867 86.8393 60.4637C85.8325 60.632 84.8119 60.7167 83.7894 60.7168Z" fill="#292929"/>
</svg>
