<svg width="112" height="74" viewBox="0 0 112 74" fill="none" xmlns="http://www.w3.org/2000/svg">
<path d="M1.24874 3.27613C2.11946 1.55018 3.35448 0.451051 4.69733 0.207015C4.88826 0.172474 5.08017 0.155033 5.27222 0.15476L104.373 5.49438e-05C105.09 -0.00418983 105.8 0.237561 106.46 0.710365C107.119 1.18317 107.713 1.87698 108.206 2.74889C109.154 4.47245 109.673 6.73733 109.655 9.07923L109.67 35.9852C109.677 40.8602 109.045 45.6787 107.818 50.1012C108.503 54.4408 109.647 58.5401 111.198 62.2048C111.68 63.3658 111.956 64.7308 111.995 66.1427C112.034 67.5547 111.834 68.9564 111.418 70.1866C111.001 71.4169 110.386 72.4259 109.642 73.0976C108.897 73.7693 108.055 74.0765 107.211 73.9838C106.167 73.876 105.126 73.6782 104.094 73.3911C101.089 72.6047 98.2223 70.7385 95.691 67.921C93.7438 68.9452 91.7146 69.4672 89.6732 69.469L19.9889 69.5777C17.3608 69.5938 14.757 68.7363 12.329 67.0552C9.901 65.374 7.69721 62.9028 5.84584 59.7852C2.07356 53.3495 -0.0223535 44.681 0.0155594 35.6719L0.000779204 9.26149C-0.0211685 7.08212 0.421156 4.96071 1.24874 3.27613Z" fill="#F15A25"/>
<path d="M27 23.0439C27.0001 22.5248 27.1229 22.0269 27.3416 21.6595C27.5603 21.2921 27.857 21.0851 28.1665 21.084L81.8313 21C82.141 20.9995 82.4381 21.2053 82.6572 21.5722C82.8764 21.939 82.9997 22.4369 83 22.9562C83.0003 23.4755 82.8775 23.9737 82.6588 24.3412C82.44 24.7087 82.1431 24.9155 81.8335 24.916L28.1687 25C27.8592 24.9999 27.5623 24.7938 27.3432 24.4271C27.1241 24.0604 27.0007 23.563 27 23.0439Z" fill="white"/>
<path d="M27 34.0439C27.0001 33.5247 27.1229 33.0269 27.3416 32.6595C27.5603 32.2921 27.857 32.0851 28.1665 32.084L81.8313 32C82.1409 31.9995 82.4381 32.2053 82.6572 32.5722C82.8764 32.939 82.9997 33.4369 83 33.9561C83.0003 34.4754 82.8775 34.9737 82.6588 35.3412C82.44 35.7087 82.1431 35.9155 81.8335 35.916L28.1687 36C27.8592 35.9999 27.5623 35.7938 27.3432 35.4271C27.1241 35.0604 27.0007 34.5629 27 34.0439Z" fill="white"/>
</svg>
