<svg width="363" height="414" viewBox="0 0 363 414" fill="none" xmlns="http://www.w3.org/2000/svg">
<path d="M247.363 137.338C247.347 146.401 244.643 155.256 239.595 162.783C234.546 170.309 227.379 176.17 219 179.623C210.62 183.077 201.405 183.968 192.519 182.184C183.634 180.4 175.476 176.022 169.079 169.602C162.682 163.182 158.332 155.009 156.58 146.117C154.827 137.225 155.751 128.013 159.234 119.645C162.717 111.278 168.603 104.132 176.148 99.1103C183.693 94.0884 192.557 91.4166 201.62 91.4327C207.642 91.4277 213.606 92.6129 219.168 94.9201C224.731 97.2273 229.783 100.611 234.034 104.877C238.284 109.143 241.65 114.206 243.938 119.777C246.225 125.348 247.389 131.316 247.363 137.338Z" fill="#F2F2F2"/>
<path d="M323.629 164.05L330.072 151.747C324.294 144.77 305.338 136.308 305.338 136.308L279.681 112.955C279.408 111.914 278.865 110.962 278.107 110.197C277.35 109.431 276.403 108.879 275.364 108.596C274.325 108.312 273.23 108.307 272.188 108.582C271.147 108.856 270.196 109.4 269.431 110.159C268.667 110.918 268.116 111.865 267.833 112.904C267.551 113.944 267.548 115.039 267.823 116.08C268.099 117.122 268.644 118.072 269.404 118.835C270.164 119.599 271.111 120.149 272.151 120.43L299.869 153.673L323.629 164.05Z" fill="white"/>
<path d="M320.508 163.2L329.606 166.097C336.221 168.204 343.351 168.045 349.866 165.646C351.837 164.912 353.563 163.642 354.85 161.978C356.137 160.315 356.933 158.325 357.148 156.233C357.42 153.395 356.605 150.559 354.867 148.3C353.128 146.04 350.597 144.525 347.784 144.06C339.252 142.658 328.259 141.966 324.337 146.633L324.297 146.681L320.508 163.2Z" fill="#F1F1F3"/>
<path d="M255.068 200.864C280.376 200.864 300.892 180.348 300.892 155.04C300.892 129.732 280.376 109.216 255.068 109.216C229.76 109.216 209.244 129.732 209.244 155.04C209.244 180.348 229.76 200.864 255.068 200.864Z" fill="white"/>
<path d="M236.368 137.116C235.739 140.495 234.708 143.787 233.296 146.921C225.213 164.021 248.233 158.447 256.459 158.447C265.454 158.447 274.06 163.177 272.745 142.161C272.184 133.184 265.454 125.875 256.459 125.875C248.776 125.875 237.974 129.29 236.368 137.116Z" fill="#292929"/>
<path d="M255.109 158.443C262.418 158.443 268.344 152.518 268.344 145.208C268.344 137.899 262.418 131.974 255.109 131.974C247.8 131.974 241.875 137.899 241.875 145.208C241.875 152.518 247.8 158.443 255.109 158.443Z" fill="white"/>
<path d="M246.123 131.718C248.442 130.304 251.098 129.54 253.814 129.504C256.53 129.468 259.205 130.162 261.561 131.515C263.916 132.867 265.865 134.827 267.204 137.19C268.543 139.553 269.222 142.233 269.171 144.948C262.427 146.641 255.342 147.937 248.151 145.353L246.453 141.197L245.451 145.356C243.261 146.252 241.066 147.009 238.87 145.348C238.78 142.64 239.403 139.956 240.676 137.564C241.948 135.172 243.827 133.156 246.123 131.718Z" fill="#292929"/>
<path d="M290.701 185.51C282.762 194.543 271.589 200.092 259.594 200.959C247.6 201.826 235.745 197.941 226.59 190.143L230.52 179.176C231.408 177.228 232.81 175.558 234.575 174.346C236.34 173.135 238.401 172.426 240.538 172.296L243.039 172.143L249.001 167.001C249.001 167.001 265.066 166.427 264.828 166.152L274.559 172.006L274.551 171.965L278.376 172.199C280.513 172.328 282.575 173.037 284.34 174.249C286.105 175.461 287.506 177.13 288.394 179.079L290.701 185.51Z" fill="#F15A25"/>
<path d="M293.75 406.565L286.136 406.564L282.514 377.197H293.751L293.75 406.565Z" fill="white"/>
<path d="M280.697 404.229H280.747L280.787 404.198L285.204 400.848L293.492 404.218L293.519 404.229L293.548 404.229L295.541 404.229L295.541 413.796L271.291 413.795V413.634C271.291 411.14 272.282 408.748 274.046 406.984C275.81 405.22 278.202 404.229 280.696 404.229H280.697Z" fill="#292929" stroke="white" stroke-width="0.3"/>
<path d="M360.851 406.565L353.237 406.564L349.615 377.197H360.853L360.851 406.565Z" fill="white"/>
<path d="M347.8 404.229H347.851L347.891 404.198L352.307 400.848L360.595 404.218L360.622 404.229L360.652 404.229L362.645 404.229L362.644 413.796L338.394 413.795V413.634C338.394 411.14 339.385 408.748 341.149 406.984C342.913 405.22 345.305 404.229 347.8 404.229H347.8Z" fill="#292929" stroke="white" stroke-width="0.3"/>
<path d="M278.179 361.055L278.179 361.052L278.179 361.037L278.18 360.978L278.183 360.747C278.185 360.542 278.189 360.239 278.194 359.842C278.205 359.05 278.221 357.888 278.244 356.407C278.29 353.445 278.364 349.21 278.473 344.117C278.692 333.93 279.055 320.31 279.63 306.578C280.205 292.846 280.993 279.004 282.062 268.37C282.597 263.053 283.201 258.542 283.883 255.25C284.225 253.604 284.585 252.268 284.963 251.289C285.152 250.8 285.344 250.405 285.538 250.107C285.733 249.807 285.924 249.616 286.104 249.52C286.926 249.085 288.525 248.749 290.722 248.502C292.91 248.257 295.668 248.102 298.79 248.018C305.033 247.849 312.722 247.962 320.2 248.187C327.678 248.412 334.944 248.749 340.34 249.031C343.038 249.172 345.269 249.298 346.825 249.39C347.603 249.435 348.213 249.472 348.628 249.498C348.835 249.51 348.994 249.52 349.101 249.527L349.136 249.529L355.527 310.24L355.527 310.24L355.528 310.245L355.676 310.224C355.528 310.245 355.528 310.245 355.528 310.246L355.528 310.248L355.529 310.256L355.534 310.289L355.552 310.42L355.623 310.931C355.685 311.379 355.776 312.038 355.891 312.878C356.121 314.56 356.447 316.972 356.834 319.893C357.609 325.735 358.624 333.611 359.59 341.75C360.555 349.889 361.47 358.289 362.044 365.18C362.331 368.625 362.533 371.691 362.612 374.157C362.692 376.629 362.649 378.484 362.453 379.516C361.65 383.729 361.747 386.153 362.053 387.532C362.207 388.222 362.413 388.653 362.588 388.914C362.602 388.935 362.615 388.955 362.629 388.973L348.551 387.971C348.552 387.946 348.553 387.918 348.555 387.888C348.561 387.739 348.567 387.524 348.567 387.259C348.567 386.729 348.542 385.998 348.441 385.189C348.24 383.581 347.735 381.637 346.497 380.399C345.926 379.828 345.559 378.96 345.337 377.959C345.115 376.96 345.04 375.846 345.04 374.802C345.04 373.758 345.115 372.788 345.189 372.078C345.227 371.724 345.264 371.435 345.292 371.234C345.306 371.134 345.318 371.056 345.326 371.004L345.335 370.944L345.337 370.929L345.338 370.925L345.338 370.924L345.338 370.924L345.344 370.891L345.335 370.858L316.997 271.76L316.863 271.292L316.71 271.754L299.5 323.785L299.494 323.805L299.493 323.825L299.642 323.833C299.493 323.825 299.493 323.825 299.492 323.826L299.492 323.828L299.492 323.836L299.49 323.867L299.484 323.989L299.461 324.468L299.371 326.286C299.294 327.853 299.183 330.091 299.049 332.78C298.78 338.159 298.417 345.338 298.042 352.542C297.666 359.746 297.279 366.975 296.96 372.453C296.8 375.192 296.658 377.493 296.543 379.134C296.486 379.954 296.435 380.609 296.393 381.07C296.372 381.301 296.353 381.482 296.336 381.611C296.328 381.676 296.32 381.726 296.313 381.762C296.308 381.793 296.304 381.804 296.304 381.804C296.304 381.804 296.304 381.804 296.304 381.804C296.272 381.871 296.241 381.973 296.211 382.093C296.179 382.22 296.145 382.381 296.109 382.568C296.038 382.943 295.958 383.433 295.873 383.997C295.704 385.124 295.516 386.551 295.341 387.953C295.166 389.354 295.003 390.73 294.884 391.756C294.825 392.269 294.776 392.695 294.743 392.992L294.705 393.325H280.231C280.238 393.297 280.247 393.268 280.256 393.235C280.305 393.054 280.373 392.794 280.446 392.476C280.59 391.84 280.755 390.969 280.83 390.035C280.906 389.101 280.894 388.096 280.683 387.193C280.472 386.29 280.057 385.476 279.317 384.947C278.6 384.435 277.909 384.154 277.319 383.964C277.089 383.89 276.873 383.829 276.679 383.774C276.624 383.759 276.571 383.744 276.52 383.729C276.284 383.662 276.092 383.602 275.941 383.532C275.79 383.463 275.699 383.391 275.648 383.31C275.6 383.232 275.577 383.126 275.607 382.957C275.637 382.785 275.721 382.56 275.877 382.26C276.032 381.962 276.254 381.598 276.553 381.15C277.765 379.333 278.572 377.314 278.976 375.496C279.379 373.684 279.386 372.048 278.969 371.005C278.777 370.526 278.629 369.67 278.516 368.637C278.404 367.61 278.329 366.425 278.279 365.301C278.229 364.177 278.204 363.115 278.192 362.335C278.185 361.944 278.182 361.624 278.181 361.402C278.18 361.291 278.18 361.204 278.179 361.145L278.179 361.078L278.179 361.061L278.179 361.056L278.179 361.055Z" fill="#292929" stroke="white" stroke-width="0.3"/>
<path d="M318.944 126.209C327.643 126.209 334.695 119.157 334.695 110.458C334.695 101.759 327.643 94.7075 318.944 94.7075C310.245 94.7075 303.193 101.759 303.193 110.458C303.193 119.157 310.245 126.209 318.944 126.209Z" fill="white"/>
<path d="M354.714 256.019C324.21 262.318 283.787 251.488 283.787 251.488L294.57 204.744L290.737 155.826C290.269 149.844 293.676 144.237 298.976 142.25L306.295 139.508L312.345 130.847L329.625 131.414L336.534 140.507L341.985 143.399L353.804 149.667L353.856 149.693V149.719L350.147 185.695L347.91 207.387C347.91 207.387 354.703 231.783 353.309 235.019C351.915 238.249 353.127 236.689 353.465 238.416C353.804 240.143 354.839 240.252 354.995 243.654C355.156 247.051 354.714 256.019 354.714 256.019Z" fill="#F1F1F3"/>
<path d="M318.167 125.302L318.175 125.302C320.927 125.274 323.673 125.011 326.381 124.516C327.031 124.365 327.889 123.972 328.844 123.415C329.797 122.859 330.837 122.146 331.844 121.368C333.863 119.806 335.733 117.995 336.527 116.664C337.713 114.676 338.431 111.584 338.825 109.325L338.825 109.325C339.352 106.355 339.251 103.308 338.526 100.381C337.801 97.4532 336.47 94.7105 334.618 92.3302L334.614 92.3255L334.614 92.3255C333.912 91.3447 332.958 90.5716 331.853 90.0878C331.76 90.0541 331.663 90.0245 331.566 89.9994C331.566 89.9993 331.565 89.9992 331.565 89.9991L331.602 89.8538C329.962 89.4672 328.474 88.5991 327.331 87.3611L318.167 125.302ZM318.167 125.302L318.16 125.303C317.674 125.356 317.182 125.306 316.716 125.157L316.694 125.129L316.718 125.066C316.729 125.036 316.737 125.025 316.746 125.017C316.757 125.006 316.781 124.988 316.842 124.967C316.969 124.922 317.201 124.878 317.65 124.82C317.988 124.776 318.309 124.567 318.605 124.248C318.901 123.929 319.184 123.487 319.443 122.95C319.962 121.875 320.4 120.399 320.676 118.699C320.961 116.935 321.046 114.998 320.824 113.383C320.713 112.576 320.524 111.842 320.241 111.251C319.959 110.662 319.578 110.201 319.076 109.956C318.56 109.645 318.148 109.188 317.892 108.643C317.655 108.095 317.237 107.646 316.709 107.37L316.695 107.363L316.68 107.358C316.083 107.19 315.454 107.168 314.847 107.295C314.241 107.421 313.675 107.692 313.197 108.084C312.939 108.271 312.642 108.397 312.328 108.451C312.013 108.506 311.69 108.488 311.383 108.398C311.076 108.308 310.794 108.148 310.559 107.932C310.324 107.716 310.141 107.448 310.025 107.151C309.491 105.744 308.601 104.5 307.443 103.539C306.284 102.579 304.896 101.936 303.415 101.672L303.415 101.672L303.41 101.671C302.951 101.604 302.474 101.573 302.019 101.544L302.016 101.544L302.016 101.544L302.011 101.544C301.27 101.521 300.532 101.423 299.81 101.251C298.912 101.005 298.091 100.535 297.424 99.8862C296.755 99.2367 296.262 98.4286 295.99 97.5371C295.718 96.6457 295.676 95.6999 295.868 94.7879C296.06 93.8758 296.48 93.0272 297.088 92.321L297.088 92.321L297.252 92.1303M318.167 125.302L297.252 92.1303M297.252 92.1303L297.256 92.1778L297.288 92.5562L297.523 92.2582C297.696 92.0388 297.932 91.6838 298.13 91.3856L298.134 91.3793C298.577 90.7135 298.975 90.1348 299.351 89.7165C299.731 89.2935 300.059 89.0673 300.356 89.0453C301.573 89.0073 302.731 88.5103 303.597 87.654L303.602 87.6489L303.607 87.6433C303.664 87.5745 303.739 87.5219 303.822 87.4908C303.906 87.4598 303.996 87.451 304.083 87.4654C306.122 87.8526 308.801 88.1654 311.225 87.0549C315.953 84.8884 319.632 84.1253 322.179 84.7372L322.179 84.7373L322.184 84.7382C323.769 85.0661 325.255 85.7642 326.518 86.7757L297.252 92.1303Z" fill="#292929" stroke="white" stroke-width="0.3"/>
<path d="M255.07 201.439C245.893 201.439 236.923 198.717 229.293 193.619C221.662 188.521 215.716 181.274 212.204 172.796C208.692 164.318 207.773 154.989 209.563 145.989C211.354 136.988 215.773 128.721 222.262 122.232C228.75 115.743 237.018 111.324 246.018 109.534C255.018 107.744 264.347 108.663 272.826 112.174C281.304 115.686 288.55 121.633 293.648 129.263C298.747 136.893 301.468 145.864 301.468 155.041C301.454 167.342 296.561 179.135 287.863 187.833C279.164 196.532 267.371 201.425 255.07 201.439ZM255.07 109.791C246.12 109.791 237.372 112.445 229.93 117.417C222.489 122.389 216.689 129.456 213.264 137.724C209.84 145.993 208.943 155.091 210.689 163.868C212.435 172.646 216.745 180.709 223.073 187.037C229.402 193.365 237.464 197.675 246.242 199.421C255.02 201.167 264.118 200.271 272.386 196.846C280.655 193.421 287.722 187.621 292.694 180.18C297.666 172.739 300.32 163.99 300.32 155.041C300.306 143.044 295.534 131.542 287.051 123.059C278.568 114.576 267.067 109.804 255.07 109.791Z" fill="#F1F1F3"/>
<path d="M153.353 92.2222C178.661 92.2222 199.177 71.7061 199.177 46.3982C199.177 21.0903 178.661 0.574219 153.353 0.574219C128.045 0.574219 107.529 21.0903 107.529 46.3982C107.529 71.7061 128.045 92.2222 153.353 92.2222Z" fill="white"/>
<path d="M155.474 51.0723C163.726 51.0723 170.416 44.3823 170.416 36.1299C170.416 27.8774 163.726 21.1875 155.474 21.1875C147.221 21.1875 140.531 27.8774 140.531 36.1299C140.531 44.3823 147.221 51.0723 155.474 51.0723Z" fill="#FE8310"/>
<path d="M168.631 26.2586C168.631 26.2586 172.521 18.8212 163.962 18.1451C163.962 18.1451 156.665 11.526 149.228 16.935C149.228 16.935 145.171 16.935 142.953 21.5257C142.953 21.5257 139.762 20.3157 139.061 23.5541C139.061 23.5541 136.726 30.3154 139.061 36.4006C141.396 42.4858 142.171 43.1619 142.171 43.1619C142.171 43.1619 140.533 35.6105 149.871 34.9344C159.209 34.2583 167.776 28.4084 168.554 35.8458C169.333 43.2832 170.188 39.9234 170.188 39.9234C170.188 39.9234 177.579 29.3013 168.631 26.2586Z" fill="#292929"/>
<path d="M187.816 76.868C179.877 85.9012 168.704 91.4502 156.71 92.317C144.715 93.1839 132.86 89.2991 123.705 81.5013L127.636 70.5341C128.524 68.5861 129.925 66.9167 131.69 65.7048C133.455 64.4929 135.516 63.7843 137.653 63.6548L140.154 63.5013L146.116 58.3591C146.116 58.3591 162.181 57.7854 161.943 57.5107L171.674 63.364L171.666 63.3236L175.491 63.5579C177.628 63.6868 179.69 64.3952 181.455 65.6072C183.22 66.8191 184.622 68.4889 185.509 70.4371L187.816 76.868Z" fill="#F15A25"/>
<path d="M153.353 92.7959C144.176 92.7959 135.206 90.0747 127.576 84.9765C119.946 79.8782 113.999 72.6318 110.487 64.1537C106.975 55.6756 106.056 46.3465 107.847 37.3462C109.637 28.3459 114.056 20.0785 120.545 13.5897C127.034 7.1008 135.301 2.68182 144.301 0.891546C153.302 -0.89873 162.631 0.0201005 171.109 3.53185C179.587 7.0436 186.833 12.9905 191.932 20.6206C197.03 28.2508 199.751 37.2213 199.751 46.398C199.737 58.6992 194.844 70.4926 186.146 79.1909C177.448 87.8892 165.654 92.782 153.353 92.7959ZM153.353 1.14809C144.403 1.14809 135.655 3.80195 128.214 8.77407C120.772 13.7462 114.972 20.8133 111.548 29.0816C108.123 37.3499 107.227 46.4482 108.973 55.2258C110.719 64.0034 115.028 72.0662 121.357 78.3945C127.685 84.7228 135.748 89.0324 144.525 90.7784C153.303 92.5244 162.401 91.6283 170.669 88.2034C178.938 84.7786 186.005 78.9788 190.977 71.5375C195.949 64.0962 198.603 55.3476 198.603 46.398C198.589 34.4011 193.818 22.8996 185.335 14.4165C176.851 5.93345 165.35 1.1617 153.353 1.14809Z" fill="#F1F1F3"/>
<path d="M46.3963 164.55C71.7042 164.55 92.2203 144.034 92.2203 118.726C92.2203 93.4184 71.7042 72.9023 46.3963 72.9023C21.0884 72.9023 0.572266 93.4184 0.572266 118.726C0.572266 144.034 21.0884 164.55 46.3963 164.55Z" fill="white"/>
<path d="M25.1592 103.82C27.054 97.7815 31.3628 92.243 37.3218 90.2016C43.2812 88.1602 52.0072 91.2699 56.4874 95.7349C64.6824 103.902 66.6822 131.96 61.052 140.826C59.9321 140.767 56.0678 140.723 54.9343 140.681L53.3309 135.337V140.628C51.5252 140.572 49.7053 140.534 47.8712 140.513C41.7221 140.436 35.8421 137.979 31.4673 133.657C27.0924 129.335 24.5635 123.486 24.4123 117.338C24.2656 111.457 24.4125 106.2 25.1592 103.82Z" fill="#292929"/>
<path d="M45.7177 123.833C52.9303 123.833 58.7772 117.986 58.7772 110.774C58.7772 103.561 52.9303 97.7144 45.7177 97.7144C38.5051 97.7144 32.6582 103.561 32.6582 110.774C32.6582 117.986 38.5051 123.833 45.7177 123.833Z" fill="#E6E6E6"/>
<path d="M34.4453 99.3047L49.4821 91.7754C52.5563 93.1607 55.2039 95.3432 57.1503 98.0965C59.0967 100.85 60.2711 104.074 60.5516 107.434L60.9264 111.923L54.6298 110.321L53.9399 104.58L52.8706 109.873L49.9648 109.133L49.9924 100.221L47.0847 109.127L36.7062 106.743L34.4453 99.3047Z" fill="#292929"/>
<path d="M80.3998 149.051C72.461 158.084 61.2882 163.633 49.2935 164.5C37.2988 165.367 25.4443 161.482 16.2891 153.684L20.2195 142.717C21.1077 140.769 22.5094 139.1 24.2742 137.888C26.039 136.676 28.1005 135.967 30.2374 135.838L32.7379 135.684L38.7002 130.542C38.7002 130.542 54.7652 129.969 54.5269 129.694L64.258 135.547L64.25 135.507L68.0753 135.741C70.2124 135.87 72.2741 136.578 74.039 137.79C75.804 139.002 77.2055 140.672 78.0933 142.62L80.3998 149.051Z" fill="#F15A25"/>
<path d="M46.398 165.125C37.2213 165.125 28.2508 162.403 20.6207 157.305C12.9905 152.207 7.0436 144.96 3.53185 136.482C0.0200988 128.004 -0.898729 118.675 0.891546 109.675C2.68182 100.674 7.10079 92.4072 13.5897 85.9183C20.0785 79.4294 28.3459 75.0104 37.3462 73.2202C46.3465 71.4299 55.6756 72.3487 64.1537 75.8605C72.6318 79.3722 79.8782 85.3192 84.9765 92.9493C90.0747 100.579 92.7959 109.55 92.7959 118.727C92.782 131.028 87.8892 142.821 79.1909 151.519C70.4926 160.218 58.6992 165.111 46.398 165.125ZM46.398 73.4767C37.4484 73.4767 28.6998 76.1306 21.2585 81.1027C13.8172 86.0748 8.01739 93.1419 4.59253 101.41C1.16768 109.679 0.271577 118.777 2.01755 127.554C3.76353 136.332 8.07316 144.395 14.4015 150.723C20.7298 157.051 28.7925 161.361 37.5701 163.107C46.3478 164.853 55.446 163.957 63.7144 160.532C71.9827 157.107 79.0498 151.307 84.0219 143.866C88.994 136.425 91.6479 127.676 91.6479 118.727C91.6343 106.73 86.8625 95.2282 78.3795 86.7451C69.8964 78.2621 58.3948 73.4903 46.398 73.4767Z" fill="#F1F1F3"/>
<path d="M297.391 178.813L290.453 166.782C281.467 167.924 264.167 179.398 264.167 179.398L230.704 188.554C229.678 188.227 228.584 188.176 227.531 188.406C226.479 188.636 225.506 189.139 224.71 189.864C223.914 190.59 223.323 191.512 222.997 192.539C222.671 193.566 222.621 194.66 222.852 195.712C223.083 196.764 223.587 197.736 224.314 198.532C225.041 199.327 225.964 199.916 226.991 200.241C228.018 200.566 229.112 200.615 230.164 200.382C231.215 200.15 232.187 199.645 232.982 198.917L275.901 193.319L297.391 178.813Z" fill="white"/>
<path d="M295.001 180.994L310.533 167.985L312.793 157.513C313.229 155.456 313.081 153.318 312.366 151.34C311.65 149.362 310.396 147.624 308.745 146.322C306.494 144.572 303.663 143.741 300.824 143.999C297.984 144.256 295.349 145.582 293.45 147.708C287.696 154.162 281.223 163.074 283.063 168.886L283.082 168.945L295.001 180.994Z" fill="#F1F1F3"/>
<path d="M115.387 212.835H57.0281C55.4641 212.833 53.9646 212.211 52.8587 211.105C51.7528 209.999 51.1307 208.5 51.1289 206.936V170.992C51.1307 169.428 51.7528 167.929 52.8587 166.823C53.9646 165.717 55.4641 165.095 57.0281 165.093H115.387C116.952 165.095 118.451 165.717 119.557 166.823C120.663 167.929 121.285 169.428 121.287 170.992V206.936C121.285 208.5 120.663 209.999 119.557 211.105C118.451 212.211 116.952 212.833 115.387 212.835Z" fill="#E6E6E6"/>
<path d="M92.1986 208.205H61.1286C59.6638 208.204 58.2594 207.621 57.2236 206.585C56.1879 205.55 55.6052 204.145 55.6035 202.681V175.247C55.6052 173.783 56.1879 172.378 57.2236 171.343C58.2594 170.307 59.6638 169.724 61.1286 169.723H111.284C112.748 169.724 114.153 170.307 115.188 171.343C116.224 172.378 116.807 173.783 116.808 175.247V183.596C116.801 190.121 114.206 196.376 109.592 200.989C104.978 205.603 98.7232 208.198 92.1986 208.205Z" fill="white"/>
<path d="M106.282 184.744H66.1336C65.7863 184.744 65.4533 184.606 65.2077 184.361C64.9622 184.115 64.8242 183.782 64.8242 183.435C64.8242 183.088 64.9622 182.755 65.2077 182.509C65.4533 182.263 65.7863 182.125 66.1336 182.125H106.282C106.629 182.125 106.962 182.263 107.208 182.509C107.453 182.755 107.591 183.088 107.591 183.435C107.591 183.782 107.453 184.115 107.208 184.361C106.962 184.606 106.629 184.744 106.282 184.744Z" fill="#F15A25"/>
<path d="M72.4139 189.918H66.1337C65.7864 189.918 65.4533 189.78 65.2077 189.535C64.9622 189.289 64.8242 188.956 64.8242 188.609C64.8242 188.261 64.9622 187.928 65.2077 187.683C65.4533 187.437 65.7864 187.299 66.1337 187.299H72.4139C72.7612 187.299 73.0942 187.437 73.3398 187.683C73.5854 187.928 73.7233 188.261 73.7233 188.609C73.7233 188.956 73.5854 189.289 73.3398 189.535C73.0942 189.78 72.7612 189.918 72.4139 189.918Z" fill="#F15A25"/>
<path d="M83.5362 195.093H66.1329C65.7861 195.092 65.4537 194.954 65.2087 194.708C64.9638 194.463 64.8262 194.13 64.8262 193.783C64.8262 193.436 64.9638 193.104 65.2087 192.858C65.4537 192.613 65.7861 192.474 66.1329 192.474H83.5362C83.883 192.474 84.2154 192.613 84.4604 192.858C84.7053 193.104 84.8429 193.436 84.8429 193.783C84.8429 194.13 84.7053 194.463 84.4604 194.708C84.2154 194.954 83.883 195.092 83.5362 195.093Z" fill="#F15A25"/>
<path d="M49.0914 176.722C55.9095 176.722 61.4367 171.195 61.4367 164.377C61.4367 157.558 55.9095 152.031 49.0914 152.031C42.2733 152.031 36.7461 157.558 36.7461 164.377C36.7461 171.195 42.2733 176.722 49.0914 176.722Z" fill="#F1F1F3"/>
<path d="M266.932 49.8088H208.573C207.009 49.807 205.51 49.1849 204.404 48.079C203.298 46.9731 202.676 45.4736 202.674 43.9096V7.96564C202.676 6.40162 203.298 4.90216 204.404 3.79622C205.51 2.69028 207.009 2.06818 208.573 2.06641H266.932C268.496 2.06817 269.996 2.69027 271.102 3.79621C272.208 4.90215 272.83 6.40161 272.832 7.96564V43.9095C272.83 45.4736 272.208 46.973 271.102 48.079C269.996 49.1849 268.496 49.807 266.932 49.8088Z" fill="#F1F2F3"/>
<path d="M243.747 45.1796H212.677C211.213 45.178 209.808 44.5954 208.772 43.5596C207.737 42.5239 207.154 41.1196 207.152 39.6548V12.2216C207.154 10.7568 207.737 9.35247 208.772 8.31673C209.808 7.28098 211.213 6.69839 212.677 6.69678H262.832C264.297 6.6984 265.701 7.281 266.737 8.31675C267.773 9.3525 268.356 10.7568 268.357 12.2216V20.5701C268.35 27.0947 265.755 33.3499 261.141 37.9635C256.527 42.5771 250.272 45.1722 243.747 45.1796Z" fill="white"/>
<path d="M257.827 21.7179H217.679C217.331 21.7179 216.998 21.5799 216.753 21.3344C216.507 21.0888 216.369 20.7558 216.369 20.4085C216.369 20.0612 216.507 19.7282 216.753 19.4826C216.998 19.2371 217.331 19.0991 217.679 19.0991H257.827C258.174 19.0991 258.507 19.2371 258.753 19.4826C258.998 19.7282 259.136 20.0612 259.136 20.4085C259.136 20.7558 258.998 21.0888 258.753 21.3344C258.507 21.5799 258.174 21.7179 257.827 21.7179Z" fill="#F15A25"/>
<path d="M223.959 26.8923H217.679C217.331 26.8923 216.998 26.7543 216.753 26.5088C216.507 26.2632 216.369 25.9302 216.369 25.5829C216.369 25.2356 216.507 24.9025 216.753 24.657C216.998 24.4114 217.331 24.2734 217.679 24.2734H223.959C224.306 24.2734 224.639 24.4114 224.885 24.657C225.13 24.9025 225.268 25.2356 225.268 25.5829C225.268 25.9302 225.13 26.2632 224.885 26.5088C224.639 26.7543 224.306 26.8923 223.959 26.8923Z" fill="#F15A25"/>
<path d="M235.083 32.0661H217.68C217.333 32.0654 217.001 31.9271 216.756 31.6816C216.511 31.4362 216.373 31.1035 216.373 30.7567C216.373 30.4099 216.511 30.0772 216.756 29.8318C217.001 29.5863 217.333 29.448 217.68 29.4473H235.083C235.43 29.4473 235.763 29.5852 236.009 29.8308C236.255 30.0764 236.393 30.4094 236.393 30.7567C236.393 31.104 236.255 31.437 236.009 31.6826C235.763 31.9282 235.43 32.0661 235.083 32.0661Z" fill="#F15A25"/>
<path d="M200.636 56.7487C207.454 56.7487 212.982 51.2215 212.982 44.4034C212.982 37.5853 207.454 32.0581 200.636 32.0581C193.818 32.0581 188.291 37.5853 188.291 44.4034C188.291 51.2215 193.818 56.7487 200.636 56.7487Z" fill="#F1F1F3"/>
</svg>
