<svg width="353" height="286" viewBox="0 0 353 286" fill="none" xmlns="http://www.w3.org/2000/svg">
<path d="M327.125 96.7109C318.442 71.1226 300.032 49.8748 275.852 37.5342L232.675 130.994L327.125 96.7109Z" fill="#292929"/>
<path d="M321.312 108.796L227.278 142.677L317.552 184.382C328.533 160.695 329.88 133.639 321.312 108.796Z" fill="#E4E4E4"/>
<path d="M314.117 191.816C311.43 197.643 308.203 203.206 304.478 208.432C304.185 208.847 303.889 209.255 303.589 209.661C296.939 218.707 288.836 226.594 279.604 233.005C279.112 233.35 278.61 233.691 278.113 234.022L278.111 234.027C269.166 240.013 259.334 244.568 248.97 247.528C248.455 247.678 247.943 247.823 247.428 247.961C225.331 253.94 201.838 252.395 180.667 243.571L223.844 150.111L314.117 191.816Z" fill="#292929"/>
<path d="M171.649 239.405C172.891 239.979 174.14 240.518 175.393 241.038L218.533 147.658L119.189 184.167C128.946 208.617 147.726 228.392 171.649 239.405Z" fill="#CACACA"/>
<path d="M262.13 39.2074C215.549 17.6874 160.422 37.8311 139 84.1993L226.774 124.749L265.526 40.8669C264.408 40.2957 263.28 39.7384 262.13 39.2074Z" fill="white"/>
<path d="M193.044 130.23L149.915 145.989L148.505 146.504L148.474 146.515L110.868 160.25L109.437 160.773L68.8038 175.62L67.3732 176.143L67.37 176.15L43.9875 184.688C36.1098 165.205 32.309 144.335 32.8191 123.363C33.3291 102.39 38.1392 81.7588 46.9532 62.7383L193.044 130.23Z" fill="white"/>
<path d="M341.293 158.718C344.37 160.14 348.017 158.798 349.439 155.72C350.861 152.643 349.519 148.996 346.441 147.574C343.364 146.153 339.717 147.495 338.295 150.572C336.873 153.649 338.215 157.297 341.293 158.718Z" fill="#292929"/>
<path d="M213.757 26.8891C217.863 28.7859 222.729 26.9952 224.625 22.8893C226.522 18.7835 224.732 13.9173 220.626 12.0205C216.52 10.1236 211.654 11.9144 209.757 16.0202C207.86 20.1261 209.651 24.9922 213.757 26.8891Z" fill="#292929"/>
<path d="M67.3043 176.189C54.7079 142.787 55.3636 105.917 69.1377 73.1062L71.9669 74.2927C58.4927 106.39 57.8516 142.458 70.1743 175.134L67.3043 176.189Z" fill="#FE8310"/>
<path d="M111.92 159.849L108.952 160.746C100.271 137.412 98.0063 112.583 102.383 88.7338L103.939 89.0636L105.434 89.7541C101.243 112.965 103.472 137.108 111.904 159.808L111.92 159.849Z" fill="#FE8310"/>
<path d="M149.723 144.753L148.323 145.119L148.293 145.13L146.858 145.503C143.408 133.041 141.767 120.173 141.982 107.288L143.466 107.326L144.947 108.01C144.799 120.358 146.396 132.683 149.691 144.626C149.699 144.669 149.709 144.712 149.723 144.753Z" fill="#FE8310"/>
</svg>
