<svg width="270" height="174" viewBox="0 0 270 174" fill="none" xmlns="http://www.w3.org/2000/svg">
<path d="M44.4842 54H102.516C104.235 54 105.885 54.6779 107.101 55.8845C108.317 57.0912 109 58.7277 109 60.4342V119.566C109 121.272 108.317 122.909 107.101 124.115C105.885 125.322 104.235 126 102.516 126C94.0434 126 85.654 124.344 77.8266 121.127C69.9992 117.91 62.887 113.194 56.8962 107.25C50.9054 101.305 46.1532 94.248 42.911 86.481C39.6687 78.7141 38 70.3895 38 61.9826V60.4342C38 58.7277 38.6832 57.0912 39.8992 55.8845C41.1152 54.6779 42.7645 54 44.4842 54Z" fill="#F2F2F2"/>
<path d="M105.599 49H42.4009C40.1743 49.0016 38.0392 49.8893 36.4642 51.4685C34.8892 53.0477 34.003 55.1893 34 57.4233V122.571C34.0028 124.806 34.8887 126.948 36.4636 128.528C38.0385 130.108 40.1737 130.997 42.4009 131H105.599C107.826 130.997 109.962 130.108 111.536 128.528C113.111 126.948 113.997 124.806 114 122.571V57.4233C113.997 55.1893 113.111 53.0477 111.536 51.4685C109.961 49.8893 107.826 49.0016 105.599 49ZM112.707 122.571C112.704 124.462 111.954 126.274 110.622 127.611C109.29 128.948 107.483 129.7 105.599 129.702H42.4009C40.5164 129.701 38.7096 128.949 37.377 127.612C36.0444 126.275 35.295 124.462 35.2933 122.571V57.4233C35.295 55.5325 36.0444 53.7197 37.377 52.3828C38.7096 51.0458 40.5164 50.2939 42.4009 50.2921H105.599C107.483 50.2948 109.29 51.047 110.622 52.3838C111.954 53.7205 112.704 55.5328 112.707 57.4233V122.571Z" fill="#CCCCCC"/>
<path d="M159.694 39.0797C160.892 38.8548 162.129 39.1103 163.143 39.7919C164.157 40.4735 164.867 41.5274 165.123 42.7294C165.171 42.9745 165.199 43.2233 165.206 43.473L195 55.0078L188.853 64L160.431 48.132C159.402 48.0829 158.418 47.6916 157.633 47.0191C156.847 46.3465 156.305 45.4305 156.09 44.4141C155.973 43.8346 155.97 43.2375 156.082 42.6569C156.194 42.0764 156.418 41.5237 156.741 41.0305C157.065 40.5373 157.481 40.1132 157.967 39.7824C158.453 39.4516 158.999 39.2207 159.573 39.1027C159.613 39.0945 159.654 39.0868 159.694 39.0797Z" fill="#FE8310"/>
<path d="M176 58.3941C176 58.3941 183.287 62.3751 191.974 66.7211C192.576 67.0194 193.179 67.3221 193.798 67.6243C199.062 70.2229 204.675 72.8657 209.402 74.778C214.447 76.8283 218.491 78.0579 220.041 77.5477C220.172 77.5087 220.294 77.4474 220.404 77.3667C224.464 74.2891 221.305 77.3282 224.299 79.3941C227.303 81.4612 225.697 77.8808 229.287 74.0615C232.868 70.2455 231.336 73.2836 234.37 76.077C235.315 76.9542 240.007 74.9574 246 71.806C244.479 65.5363 243.587 59.9694 243.587 59.9694C242.262 56.3626 240.559 52.9062 238.507 49.6577C227.469 53.5394 218.36 56.8008 217.95 57.117C216.89 57.9263 213.976 57.9609 210.538 57.4121C210.048 57.3332 209.087 57.0868 207.798 56.7164C206.659 56.3925 205.276 55.9752 203.735 55.5041C201.998 54.9623 199.489 55.2457 198.067 53.706C193.951 49.2671 196.147 52.9047 195.477 52.8776C194.713 52.8446 193.504 53.1715 192.672 53.0254C192.454 53.0131 192.247 52.9275 192.085 52.7825C191.922 52.6375 191.814 52.4417 191.776 52.2269C191.746 52.0438 191.743 51.8573 191.765 51.673C191.922 50.1961 190.933 50.4259 189.995 50.6267C189.619 50.7458 189.22 50.773 188.832 50.7061C184.198 49.1838 180.678 48 180.678 48L180.075 49.351L180.072 49.3571L176.49 57.3158L176 58.3941Z" fill="#E6E6E6"/>
<path d="M266.434 153.08C271.401 162.808 265.972 174 265.972 174L201 151.291L201.645 140.86L207.742 135.775L205.371 134.22L205.408 134.068L209.747 118.058L212.65 107.35L213.672 103.587L215.285 97.627L217.903 87.9691L219.752 81.1549L222.166 72.2421L224.338 64.2044L224.736 62.7468L225.704 59.1741L226.128 57.5971L226.983 54.4646L229.225 46.1823C230.222 46.1735 231.218 46.11 232.209 45.992C233.209 45.8887 233.435 40.5812 234.526 40.429C239.94 39.6675 245.768 38.0307 249.354 39.7763C250.44 40.3037 251.698 42.0658 252.923 44.0289C254.434 46.4434 255.891 49.1515 256.918 50.2065C258.241 51.5797 259.426 53.0826 260.456 54.6929C260.477 54.718 260.495 54.7454 260.509 54.7747C262.125 57.3378 263.441 60.0826 264.428 62.9537C265.212 65.1799 265.85 67.4562 266.337 69.7675C266.692 71.4207 266.98 73.0885 267.203 74.7707C267.675 78.2633 267.91 81.7846 267.907 85.3097C267.907 85.3097 266.423 92.8198 265.407 101.526C264.654 107.949 264.154 115.018 264.697 120.212C265.02 123.366 265.73 125.824 266.998 127.026C272.53 132.257 267.955 137.886 266.928 139.016C267.342 138.745 268.439 138.739 269.982 144.118C270.321 145.287 265.713 151.677 266.434 153.08Z" fill="#E6E6E6"/>
<path d="M242 38C251.389 38 259 30.3888 259 21C259 11.6112 251.389 4 242 4C232.611 4 225 11.6112 225 21C225 30.3888 232.611 38 242 38Z" fill="#FE8310"/>
<path d="M253.598 33.5186L253.598 33.5181C253.47 33.2207 253.455 32.7277 253.613 31.9903C253.769 31.2604 254.091 30.3069 254.617 29.097C255.268 28.4444 255.489 27.3308 255.277 26.4635C255.17 26.0246 254.949 25.6363 254.603 25.4029C254.257 25.1697 253.801 25.1011 253.246 25.2691C252.341 22.8745 250.443 21.3285 248.121 20.2458C245.7 19.1169 242.806 18.4861 240.072 17.9221C239.904 17.8876 239.737 17.8534 239.572 17.8193C237.018 17.2946 234.645 16.8069 232.948 16.0011C232.046 15.5727 231.345 15.0589 230.91 14.4111C230.49 13.7858 230.311 13.0268 230.451 12.0783C230.456 12.0485 230.461 12.0178 230.465 11.9862L230.267 11.9562C230.262 11.9867 230.257 12.0171 230.253 12.0473C230.185 12.4321 230.055 12.5977 229.906 12.6573C229.736 12.7254 229.496 12.6782 229.178 12.5371C228.918 12.4216 228.628 12.2542 228.314 12.0727C228.251 12.0359 228.186 11.9986 228.121 11.961C227.735 11.7397 227.319 11.5117 226.899 11.3546L226.898 11.3544C226.762 11.3044 226.633 11.3758 226.532 11.4664C226.427 11.5605 226.322 11.7021 226.217 11.8642C226.057 12.1147 225.889 12.4328 225.726 12.7402C225.678 12.8311 225.631 12.9211 225.584 13.0081C225.481 13.2004 225.382 13.3788 225.288 13.5255C225.193 13.6743 225.11 13.7815 225.04 13.8387C225.006 13.8672 224.983 13.8765 224.97 13.8786C224.963 13.8798 224.957 13.8795 224.946 13.8707C224.932 13.8586 224.91 13.831 224.887 13.774C224.864 13.718 224.842 13.6407 224.822 13.5375C224.771 13.2637 224.54 13.1191 224.276 13.0356C224.01 12.9515 223.674 12.9175 223.353 12.8879C223.332 12.886 223.311 12.8841 223.29 12.8821C222.986 12.8543 222.699 12.828 222.476 12.7687C222.268 12.7131 222.154 12.6388 222.113 12.5416C222.937 11.8826 224.207 10.775 225.35 9.58167C225.933 8.9725 226.485 8.33961 226.928 7.73157C227.37 7.12496 227.708 6.53675 227.857 6.01749L227.936 5.74362L227.703 5.90821C226.598 6.69044 225.411 7.34993 224.163 7.87519C226.131 3.17751 228.538 1.0523 231.067 0.365048C233.643 -0.334688 236.375 0.447072 238.961 1.59027C239.792 1.95766 240.74 1.93804 241.75 1.74783C242.56 1.59522 243.421 1.33026 244.304 1.05847C244.521 0.991844 244.739 0.924806 244.957 0.858912C247.192 0.185938 249.531 -0.369821 251.677 0.72854L251.678 0.728586C255.277 2.5661 258.582 6.08868 260.634 9.69802C261.659 11.5021 262.369 13.3231 262.647 14.9608C262.925 16.5999 262.769 18.0434 262.08 19.1059L262.042 19.1649L262.084 19.2209C263.05 20.4884 263.089 22.183 262.563 23.9895C262.038 25.7944 260.954 27.6917 259.705 29.3405C258.456 30.9895 257.047 32.3822 255.879 33.1809C255.293 33.5814 254.778 33.8258 254.379 33.8856C254.18 33.9154 254.018 33.8985 253.891 33.8398C253.767 33.7821 253.667 33.6796 253.598 33.5186ZM230.208 12.5042C229.875 13.0901 229.141 12.6661 228.263 12.1584C227.822 11.9038 227.345 11.6281 226.864 11.4483C226.577 11.343 226.188 12.0791 225.816 12.7841C225.347 13.6722 224.905 14.5111 224.724 13.556C224.64 13.1061 223.945 13.0425 223.278 12.9814C222.654 12.9244 222.055 12.8696 222 12.5042L230.208 12.5042Z" fill="#292929" stroke="white" stroke-width="0.2"/>
<path d="M66.4132 121.836C77.9874 137.378 59.5038 155 40.112 155C35.501 155 30.9352 154.093 26.6752 152.33C22.4152 150.568 18.5445 147.984 15.2841 144.728C12.0236 141.471 9.43728 137.605 7.67274 133.35C5.9082 129.094 5 124.534 5 119.928C5 100.558 25.5132 81.2673 41.5555 92.1491C52.7886 99.7689 57.9054 110.412 66.4132 121.836Z" fill="#F2F2F2"/>
<path d="M40.9484 81.0269C40.4696 81.0108 39.9854 81 39.4959 81C37.9802 80.9981 36.4658 81.0861 34.9607 81.2636C34.5249 81.3067 34.0945 81.3658 33.6695 81.4304C26.6574 82.4773 20.0563 85.392 14.5588 89.8687C9.06121 94.3454 4.86982 100.219 2.42434 106.873C-0.021144 113.528 -0.630572 120.718 0.659968 127.689C1.95051 134.66 5.09345 141.155 9.75907 146.494C14.4247 151.832 20.441 155.816 27.1769 158.028C33.9127 160.24 41.1198 160.599 48.042 159.066C54.9641 157.534 61.3463 154.166 66.5188 149.318C71.6913 144.469 75.4636 138.318 77.4399 131.509C77.5636 131.079 77.6819 130.649 77.7895 130.218C78.4634 127.568 78.8565 124.854 78.9623 122.122C78.9892 121.584 79 121.046 79 120.503C78.9878 110.281 75.0186 100.461 67.9247 93.1017C60.8308 85.7423 51.163 81.4149 40.9484 81.0269ZM76.4553 130.218C76.3423 130.654 76.2186 131.084 76.0895 131.509C74.12 138.054 70.4312 143.95 65.4077 148.584C60.3841 153.219 54.2096 156.421 47.5276 157.857C40.8456 159.293 33.9007 158.911 27.4165 156.751C20.9324 154.59 15.1463 150.73 10.6614 145.573C6.17644 140.416 3.15672 134.151 1.91691 127.43C0.677099 120.709 1.26258 113.778 3.61234 107.36C5.9621 100.943 9.99012 95.2724 15.2767 90.9407C20.5632 86.6091 26.9148 83.7745 33.6695 82.7323C34.0999 82.6677 34.5303 82.6085 34.9607 82.5601C36.4657 82.3807 37.9801 82.2908 39.4959 82.2911C40.1253 82.2911 40.7494 82.3073 41.368 82.3342C51.163 82.8273 60.3947 87.0623 67.1572 94.165C73.9198 101.268 77.6969 110.696 77.7088 120.503C77.7088 120.874 77.7034 121.24 77.6927 121.606C77.61 124.514 77.1949 127.404 76.4553 130.218Z" fill="#CCCCCC"/>
<path d="M155.5 98C167.926 98 178 87.9264 178 75.5C178 63.0736 167.926 53 155.5 53C143.074 53 133 63.0736 133 75.5C133 87.9264 143.074 98 155.5 98Z" fill="#F15A25"/>
<path d="M153.81 95.5727C154.837 94.7504 156.156 94.3478 157.486 94.4506C158.816 94.5533 160.052 95.1533 160.931 96.1229C161.107 96.3227 161.265 96.5362 161.404 96.7612L196 92L194.865 103.4L159.294 103.486C158.283 103.97 157.135 104.118 156.029 103.906C154.922 103.694 153.92 103.134 153.177 102.313C152.759 101.843 152.442 101.297 152.242 100.708C152.043 100.118 151.965 99.4968 152.014 98.8786C152.064 98.2604 152.238 97.6576 152.529 97.1046C152.819 96.5516 153.219 96.0592 153.707 95.6557C153.741 95.6275 153.775 95.5999 153.81 95.5727Z" fill="#FE8310"/>
<path d="M264 63.1901C256.511 76.2718 247.21 91.4745 244.714 90.8685C240.367 89.819 240.222 86.1076 238.839 91.6475C237.451 97.193 240.856 99.7467 236.929 99.3787C232.997 98.9946 234.384 94.4232 232.157 99.5087C231.813 100.299 230.334 100.975 228.074 101.548C224.556 102.452 219.149 103.117 213.21 103.615C209.498 103.918 205.581 104.162 201.789 104.351C190.346 104.913 180.049 105 180.049 105L179.941 103.718L179.14 94.2229L179 92.616C179 92.616 187.274 91.0634 195.607 89.4024C203.08 87.9145 210.606 86.3456 212.279 85.7235C215.83 84.4251 218.573 82.8454 219.149 81.5142C219.191 81.4379 219.24 81.3655 219.294 81.2979C219.789 80.6272 221.522 78.5875 224.045 75.6769C230.629 68.081 242.583 54.5555 251.944 44C252.127 44.1191 252.304 44.238 252.487 44.3624C253.999 46.7645 255.457 49.4588 256.484 50.5084C257.809 51.8745 258.994 53.3697 260.024 54.9718C260.045 54.9967 260.063 55.024 260.078 55.0531C261.695 57.6031 263.011 60.3338 264 63.1901Z" fill="#E6E6E6"/>
</svg>
