<svg width="497" height="330" viewBox="0 0 497 330" fill="none" xmlns="http://www.w3.org/2000/svg">
<path d="M434.535 10.3281H57.8008V189.095H434.535V10.3281Z" fill="#E6E6E6"/>
<path d="M423.766 25.6582H68.5762V174.809H423.766V25.6582Z" fill="white"/>
<path d="M434.377 0H57.6426V16.0048H434.377V0Z" fill="#F15A25"/>
<path d="M69.5367 10.3694C71.1751 10.3694 72.5032 9.04127 72.5032 7.40295C72.5032 5.76464 71.1751 4.43652 69.5367 4.43652C67.8984 4.43652 66.5703 5.76464 66.5703 7.40295C66.5703 9.04127 67.8984 10.3694 69.5367 10.3694Z" fill="white"/>
<path d="M80.7946 10.3694C82.4329 10.3694 83.761 9.04127 83.761 7.40295C83.761 5.76464 82.4329 4.43652 80.7946 4.43652C79.1562 4.43652 77.8281 5.76464 77.8281 7.40295C77.8281 9.04127 79.1562 10.3694 80.7946 10.3694Z" fill="white"/>
<path d="M92.0543 10.3694C93.6926 10.3694 95.0208 9.04127 95.0208 7.40295C95.0208 5.76464 93.6926 4.43652 92.0543 4.43652C90.416 4.43652 89.0879 5.76464 89.0879 7.40295C89.0879 9.04127 90.416 10.3694 92.0543 10.3694Z" fill="white"/>
<path d="M152.465 139.911H331.982V109.143C331.954 105.898 331.279 102.692 329.996 99.7119C328.713 96.7319 326.847 94.0382 324.509 91.789L324.46 91.7413C321.254 88.5243 310.539 80.3594 299.452 81.0517C293.595 81.4163 288.581 84.2387 284.55 89.4406C271.999 105.639 255.513 100.171 246.803 95.4702C239.127 91.3265 231.288 89.3816 223.502 89.6912C212.597 90.1176 197.249 94.1347 186.055 110.852C181.78 117.231 172.483 125.891 152.465 130.98V139.911Z" fill="#E4E4E4"/>
<path d="M342.141 140.627H152.813C152.656 140.627 152.505 140.564 152.394 140.453C152.283 140.342 152.221 140.191 152.221 140.034V49.2893C152.221 49.1322 152.283 48.9814 152.394 48.8703C152.505 48.7592 152.656 48.6968 152.813 48.6968C152.97 48.6968 153.121 48.7592 153.232 48.8703C153.343 48.9814 153.406 49.1322 153.406 49.2893V139.442H342.141C342.299 139.442 342.449 139.504 342.56 139.615C342.671 139.726 342.734 139.877 342.734 140.034C342.734 140.191 342.671 140.342 342.56 140.453C342.449 140.564 342.299 140.627 342.141 140.627Z" fill="#292929"/>
<path d="M188.822 105.731H187.66V139.793H188.822V105.731Z" fill="#292929"/>
<path d="M223.615 89.8223H222.453V139.793H223.615V89.8223Z" fill="#292929"/>
<path d="M258.477 100.281H257.314V139.793H258.477V100.281Z" fill="#292929"/>
<path d="M293.34 81.1064H292.178V139.793H293.34V81.1064Z" fill="#292929"/>
<path d="M328.203 94.4707H327.041V139.793H328.203V94.4707Z" fill="#292929"/>
<path d="M223.106 94.1785C225.069 94.1785 226.661 92.5868 226.661 90.6234C226.661 88.66 225.069 87.0684 223.106 87.0684C221.142 87.0684 219.551 88.66 219.551 90.6234C219.551 92.5868 221.142 94.1785 223.106 94.1785Z" fill="#F15A25"/>
<path d="M292.83 84.8811C294.794 84.8811 296.386 83.2895 296.386 81.3261C296.386 79.3627 294.794 77.771 292.83 77.771C290.867 77.771 289.275 79.3627 289.275 81.3261C289.275 83.2895 290.867 84.8811 292.83 84.8811Z" fill="#F15A25"/>
<path d="M257.969 104.056C259.933 104.056 261.524 102.465 261.524 100.501C261.524 98.5379 259.933 96.9463 257.969 96.9463C256.006 96.9463 254.414 98.5379 254.414 100.501C254.414 102.465 256.006 104.056 257.969 104.056Z" fill="#F15A25"/>
<path d="M188.243 109.286C190.206 109.286 191.798 107.694 191.798 105.731C191.798 103.767 190.206 102.176 188.243 102.176C186.279 102.176 184.688 103.767 184.688 105.731C184.688 107.694 186.279 109.286 188.243 109.286Z" fill="#F15A25"/>
<path d="M327.696 97.6648C329.659 97.6648 331.251 96.0732 331.251 94.1097C331.251 92.1463 329.659 90.5547 327.696 90.5547C325.732 90.5547 324.141 92.1463 324.141 94.1097C324.141 96.0732 325.732 97.6648 327.696 97.6648Z" fill="#F15A25"/>
<path d="M35.5246 322.757H42.6483L46.037 295.28L35.5234 295.281L35.5246 322.757Z" fill="white"/>
<path d="M33.8574 329.512L33.857 320.581L47.736 320.581C50.0673 320.581 52.3036 321.507 53.9521 323.155C55.6006 324.804 56.5267 327.04 56.5269 329.371V329.511L33.8574 329.512Z" fill="#292929" stroke="white" stroke-width="0.3"/>
<path d="M69.2238 322.757H76.3475L79.7362 295.28L69.2227 295.281L69.2238 322.757Z" fill="white"/>
<path d="M67.5586 329.512L67.5582 320.581L81.4371 320.581C83.7684 320.581 86.0048 321.507 87.6533 323.155C89.3018 324.804 90.2279 327.04 90.2281 329.371V329.511L67.5586 329.512Z" fill="#292929" stroke="white" stroke-width="0.3"/>
<path d="M82.5222 197.142C83.1243 196.457 83.5687 195.647 83.8241 194.771C84.0796 193.895 84.1399 192.974 84.0007 192.072C83.8615 191.17 83.5263 190.31 83.0186 189.551C82.5109 188.793 81.8432 188.155 81.0623 187.683L69.4696 132.024L56.8398 137L72.2065 190.146C71.5 191.51 71.3185 193.087 71.6964 194.576C72.0743 196.065 72.9853 197.364 74.2569 198.226C75.5284 199.088 77.0721 199.454 78.5955 199.255C80.1188 199.055 81.516 198.303 82.5222 197.142Z" fill="white"/>
<path d="M66.7088 312.107L69.8188 255.242L69.8214 255.194L69.7961 255.154L51.9404 226.668L51.6851 226.26L51.6635 226.741L47.8006 312.405L35.1172 311.45L27.9245 237.811L27.9222 237.788L27.9133 237.767C22.5366 225.068 21.2534 213.571 21.3141 205.25C21.3445 201.09 21.7108 197.723 22.0693 195.398C22.2485 194.235 22.4258 193.333 22.5581 192.722C22.6242 192.417 22.6791 192.184 22.7174 192.028C22.7366 191.95 22.7516 191.891 22.7617 191.852L22.7671 191.831L27.951 186.569L69.5567 182.961L87.2038 248.753L80.7439 311.785L66.7088 312.107Z" fill="#292929" stroke="white" stroke-width="0.3"/>
<path d="M46.2469 193.604C38.3404 193.549 30.444 193.027 22.599 192.042L22.2832 192L30.108 157.61L27.4136 113.362L52.8565 112.491C55.1598 112.407 57.4127 113.177 59.1827 114.653C60.9528 116.129 62.1152 118.207 62.4469 120.488L67.6542 155.79L72.4711 187.11L72.4066 187.204C68.945 192.28 57.3713 193.604 46.2469 193.604Z" fill="#F15A25"/>
<path d="M50.5391 119.81L55.7086 113.329C55.7086 113.329 64.7712 107.132 67.6394 120.412C70.5076 133.693 75.8365 155.252 75.8365 155.252L58.1156 156.687L50.5391 119.81Z" fill="#F15A25"/>
<path d="M1.55152 197.722C0.949423 197.037 0.505 196.227 0.249553 195.351C-0.00589336 194.475 -0.0661529 193.554 0.073028 192.652C0.212209 191.75 0.547445 190.89 1.05511 190.131C1.56278 189.373 2.23054 188.735 3.01135 188.263L14.6041 132.604L27.2339 137.58L11.8672 190.726C12.5737 192.091 12.7552 193.667 12.3773 195.156C11.9994 196.645 11.0884 197.944 9.81684 198.806C8.5453 199.669 7.00159 200.035 5.47824 199.835C3.9549 199.635 2.55774 198.883 1.55152 197.722Z" fill="white"/>
<path d="M33.5338 120.39L28.3643 113.91C28.3643 113.91 19.3016 107.712 16.4335 120.993C13.5653 134.273 8.23633 155.833 8.23633 155.833L25.9573 157.268L33.5338 120.39Z" fill="#F15A25"/>
<path d="M55.3195 105.87H21.6188C20.9653 105.869 20.3388 105.609 19.8767 105.147C19.4146 104.685 19.1546 104.058 19.1539 103.405L19.1539 88.8788C19.1539 83.7561 21.1889 78.8432 24.8112 75.2209C28.4335 71.5986 33.3464 69.5636 38.4692 69.5636C43.5919 69.5636 48.5048 71.5986 52.1271 75.2209C55.7494 78.8432 57.7844 83.7561 57.7844 88.8788V103.405C57.7837 104.058 57.5237 104.685 57.0616 105.147C56.5995 105.609 55.973 105.869 55.3195 105.87Z" fill="#292929" stroke="white" stroke-width="0.3"/>
<path d="M42.1873 105.146C50.0691 105.146 56.4585 98.7561 56.4585 90.8743C56.4585 82.9925 50.0691 76.603 42.1873 76.603C34.3055 76.603 27.916 82.9925 27.916 90.8743C27.916 98.7561 34.3055 105.146 42.1873 105.146Z" fill="white"/>
<path d="M41.5789 87.3219L40.5579 90.181H37.6302L37.2214 84.4564L36.9305 84.4167L34.8719 90.181H28.9879V90.0406C28.9924 85.998 30.6004 82.1223 33.4589 79.2637C36.3175 76.4051 40.1932 74.7971 44.2358 74.7926L47.1409 74.7926C51.1836 74.7972 55.0593 76.4051 57.9178 79.2637C60.7764 82.1223 62.3844 85.998 62.3889 90.0406V90.181H42.0712L41.8698 87.3617L41.5789 87.3219Z" fill="#292929" stroke="white" stroke-width="0.3"/>
<path d="M41.7633 108.731C41.6082 108.731 41.4533 108.718 41.3006 108.69L26.2109 106.028V81.0894H42.8217L42.4105 81.5688C36.6887 88.2419 40.9994 99.0623 44.0782 104.918C44.3051 105.347 44.4063 105.831 44.37 106.315C44.3338 106.799 44.1617 107.263 43.8735 107.653C43.6321 107.987 43.3149 108.259 42.9481 108.446C42.5813 108.634 42.1752 108.731 41.7633 108.731Z" fill="#292929"/>
<path d="M458.19 322.757H451.067L447.678 295.28L458.192 295.281L458.19 322.757Z" fill="#FE8310"/>
<path d="M459.859 320.581L459.859 329.512L437.189 329.511V329.371C437.189 327.04 438.115 324.804 439.764 323.155C441.412 321.507 443.648 320.581 445.979 320.581L459.859 320.581Z" fill="#292929" stroke="white" stroke-width="0.3"/>
<path d="M432.62 322.757H425.497L422.107 295.28L432.622 295.281L432.62 322.757Z" fill="#FE8310"/>
<path d="M434.289 320.581L434.288 329.512L411.619 329.511V329.371C411.619 327.04 412.545 324.804 414.194 323.155C415.842 321.507 418.078 320.581 420.409 320.581L434.289 320.581Z" fill="#292929" stroke="white" stroke-width="0.3"/>
<path d="M349.656 130.221C350.225 131.004 350.959 131.653 351.806 132.121C352.654 132.59 353.593 132.867 354.559 132.933C355.525 132.999 356.493 132.853 357.396 132.504C358.3 132.156 359.115 131.613 359.786 130.915L373.881 136.42L379.316 128.67L359.301 121.176C358.054 120.127 356.465 119.572 354.836 119.616C353.206 119.66 351.65 120.3 350.461 121.415C349.272 122.53 348.533 124.042 348.385 125.665C348.237 127.288 348.689 128.909 349.656 130.221Z" fill="#FE8310"/>
<path d="M467.575 177.327L461.061 315.469L443.641 314.509L441.979 222.327L441.68 222.318L434.361 314.864L420.32 314.516L414.132 183.338L432.559 177.327H467.575Z" fill="#292929" stroke="white" stroke-width="0.3"/>
<path d="M468.385 149.928L468.38 149.949L468.381 149.97L470.142 179.652L470.123 179.661C470.052 179.696 469.945 179.747 469.806 179.814C469.526 179.947 469.113 180.141 468.581 180.382C467.517 180.863 465.975 181.535 464.066 182.294C460.248 183.811 454.964 185.675 449.099 187.062C443.234 188.45 436.792 189.36 430.658 188.973C424.56 188.588 418.774 186.923 414.155 183.183L414.16 183.17C414.188 183.095 414.23 182.983 414.284 182.836C414.392 182.542 414.549 182.11 414.745 181.552C415.139 180.438 415.691 178.826 416.327 176.834C417.598 172.85 419.202 167.345 420.535 161.263C421.867 155.182 422.929 148.52 423.113 142.222C423.296 135.939 422.607 130.005 420.43 125.368L420.164 99.8209L467.517 89.5323L472.789 130.358L468.385 149.928Z" fill="#292929" stroke="white" stroke-width="0.3"/>
<path d="M391.828 127.882C391.929 127.992 391.929 127.992 391.93 127.992L391.93 127.991L391.932 127.99L391.94 127.983L391.97 127.955L392.088 127.846C392.192 127.751 392.345 127.609 392.543 127.427C392.937 127.061 393.509 126.53 394.217 125.868C395.632 124.544 397.591 122.694 399.764 120.593C404.11 116.393 409.319 111.184 412.762 107.159C416.198 103.142 418.032 101.31 419.003 100.482C419.491 100.066 419.752 99.9125 419.882 99.8595C419.912 99.8473 419.933 99.8416 419.945 99.8389L428.114 105.584L429.449 121.783L391.351 147.227L364.529 134.728L368.688 119.364L391.775 128.022L391.862 128.054L391.929 127.992L391.828 127.882Z" fill="#292929" stroke="white" stroke-width="0.3"/>
<path d="M470.304 195.117C471.179 194.703 471.953 194.103 472.572 193.358C473.19 192.613 473.637 191.742 473.882 190.805C474.127 189.868 474.164 188.89 473.989 187.937C473.815 186.985 473.434 186.083 472.873 185.294L480.907 172.47L474.305 165.688L463.214 183.956C461.951 184.986 461.11 186.443 460.849 188.052C460.589 189.661 460.928 191.31 461.802 192.686C462.676 194.061 464.024 195.069 465.591 195.517C467.158 195.965 468.835 195.823 470.304 195.117Z" fill="#FE8310"/>
<path d="M465.826 174.292L479.474 146.301L479.512 146.222L479.462 146.149L464.967 125.345L460.373 97.4787L467.726 89.4822C467.739 89.4781 467.756 89.473 467.777 89.4671C467.836 89.4505 467.925 89.4276 468.042 89.4035C468.274 89.3553 468.616 89.302 469.048 89.2836C469.911 89.2469 471.136 89.3496 472.572 89.9117C475.44 91.0349 479.176 94.003 482.547 101.427C485.923 108.864 489.5 120.132 492.234 129.548C493.6 134.254 494.755 138.495 495.569 141.56C495.976 143.092 496.297 144.33 496.517 145.185C496.627 145.613 496.711 145.944 496.768 146.169L496.833 146.425L496.841 146.457L479.271 180.3L465.826 174.292Z" fill="#292929" stroke="white" stroke-width="0.3"/>
<path d="M447.614 85.9881C455.106 81.8922 457.86 72.4979 453.764 65.0053C449.668 57.5126 440.274 54.759 432.781 58.8548C425.289 62.9507 422.535 72.345 426.631 79.8376C430.727 87.3302 440.121 90.0839 447.614 85.9881Z" fill="#FE8310"/>
<path d="M454.605 59.9934L454.544 60.1161L454.661 60.1879C456.609 61.3872 457.649 62.9432 458.119 64.6023C458.591 66.2657 458.492 68.0419 458.146 69.678C457.799 71.3133 457.207 72.7997 456.7 73.8785C456.447 74.4176 456.215 74.854 456.048 75.1552C455.964 75.3059 455.896 75.4227 455.849 75.5016C455.847 75.5038 455.846 75.506 455.845 75.5081C455.187 75.2263 454.59 75.2999 454.071 75.5783C453.529 75.8697 453.079 76.3811 452.722 76.9186C452.364 77.4582 452.092 78.0371 451.909 78.4793C451.843 78.6386 451.789 78.7806 451.746 78.8973L444.716 65.2906L444.652 65.1683L444.525 65.2207L444.582 65.3594L444.525 65.2207L444.525 65.2208L444.524 65.2212L444.52 65.223L444.502 65.2301C444.496 65.2326 444.488 65.2357 444.479 65.2392C444.467 65.2444 444.451 65.2505 444.433 65.2577C444.372 65.2819 444.282 65.3171 444.165 65.3613C443.931 65.4496 443.592 65.5734 443.17 65.7151C442.327 65.9985 441.156 66.3529 439.845 66.6373C438.534 66.9217 437.086 67.1353 435.688 67.1388C434.288 67.1424 432.948 66.9355 431.845 66.3875C430.683 65.8101 429.649 65.7507 428.754 65.9966C427.863 66.2414 427.122 66.785 426.533 67.3919C425.944 67.9992 425.501 68.6761 425.206 69.1994C425.108 69.3731 425.026 69.5303 424.96 69.6629L423.647 62.4765L426.188 61.0159L426.431 60.8763L426.18 60.7516L424.242 59.7883L427.286 58.7651L427.516 58.6878L427.344 58.5166L425.603 56.7847L429.169 54.9902L429.199 54.9805C429.225 54.9718 429.265 54.9587 429.318 54.9414C429.425 54.9067 429.586 54.8549 429.803 54.7868C430.238 54.6507 430.896 54.4492 431.789 54.1882C433.575 53.6663 436.302 52.9065 440.065 51.9557C443.775 51.0183 446.652 52.2156 448.607 53.6514C449.586 54.37 450.333 55.1478 450.835 55.746C451.086 56.045 451.275 56.2987 451.402 56.4772C451.465 56.5664 451.512 56.6368 451.544 56.6845C451.559 56.7084 451.571 56.7266 451.579 56.7387L451.587 56.7522L451.589 56.7554L451.59 56.7561L451.59 56.7562L451.59 56.7562L451.612 56.7928L451.651 56.812L455.288 58.6191L454.605 59.9934Z" fill="#292929" stroke="white" stroke-width="0.3"/>
</svg>
