<svg width="108" height="108" viewBox="0 0 108 108" fill="none" xmlns="http://www.w3.org/2000/svg">
<g clip-path="url(#clip0_546_36)">
<path d="M99 25.7401L78.3 8.37012L72.495 15.2551L93.195 32.6251L99 25.7401ZM35.46 15.2551L29.7 8.37012L9 25.6951L14.805 32.5801L35.46 15.2551ZM54 18.0001C31.635 18.0001 13.5 36.1351 13.5 58.5001C13.5 80.8651 31.59 99.0001 54 99.0001C76.365 99.0001 94.5 80.8651 94.5 58.5001C94.5 36.1351 76.365 18.0001 54 18.0001ZM54 90.0001C36.585 90.0001 22.5 75.9151 22.5 58.5001C22.5 41.0851 36.585 27.0001 54 27.0001C71.415 27.0001 85.5 41.0851 85.5 58.5001C85.5 75.9151 71.415 90.0001 54 90.0001ZM47.43 65.3851L37.845 55.8001L33.075 60.5701L47.385 74.8801L74.385 47.8801L69.615 43.1101L47.43 65.3851Z" fill="#F15A25"/>
</g>
<defs>
<clipPath id="clip0_546_36">
<rect width="108" height="108" fill="white"/>
</clipPath>
</defs>
</svg>
