<svg width="91" height="90" viewBox="0 0 91 90" fill="none" xmlns="http://www.w3.org/2000/svg">
<path d="M33.584 90C32.0746 90 30.5859 89.6523 29.2359 88.9844C27.8859 88.3166 26.7118 87.3468 25.8065 86.1522L1.96046 54.7009C1.19026 53.6908 0.629022 52.5403 0.309077 51.3154C-0.0108677 50.0904 -0.0832955 48.815 0.0958917 47.5622C0.275079 46.3095 0.702391 45.1041 1.35334 44.015C2.00428 42.9259 2.86607 41.9745 3.88934 41.2155C4.9126 40.4564 6.07726 39.9045 7.31652 39.5913C8.55578 39.2782 9.84529 39.21 11.1112 39.3907C12.3772 39.5714 13.5946 39.9974 14.6939 40.6443C15.7931 41.2912 16.7524 42.1462 17.517 43.1605L33.118 63.7351L73.1869 4.28283C74.6173 2.16043 76.8415 0.687063 79.3701 0.186809C81.8988 -0.313444 84.5247 0.200422 86.6703 1.61536C88.8159 3.03029 90.3054 5.23039 90.8111 7.73166C91.3169 10.2329 90.7973 12.8305 89.3669 14.9529L41.6748 85.7171C40.812 86.9968 39.6517 88.0534 38.291 88.7981C36.9304 89.5427 35.409 89.9539 33.8545 89.997C33.7644 89.9985 33.6743 90 33.584 90Z" fill="#F15A25"/>
</svg>
