<svg width="733" height="156" viewBox="0 0 733 156" fill="none" xmlns="http://www.w3.org/2000/svg">
<path d="M77 155C119.526 155 154 120.302 154 77.5C154 34.6979 119.526 0 77 0C34.4741 0 0 34.6979 0 77.5C0 120.302 34.4741 155 77 155Z" fill="#F2F2F2"/>
<path d="M465 155C507.526 155 542 120.302 542 77.5C542 34.6979 507.526 0 465 0C422.474 0 388 34.6979 388 77.5C388 120.302 422.474 155 465 155Z" fill="#F2F2F2"/>
<path d="M656 155C698.526 155 733 120.302 733 77.5C733 34.6979 698.526 0 656 0C613.474 0 579 34.6979 579 77.5C579 120.302 613.474 155 656 155Z" fill="#F2F2F2"/>
<path d="M268 155C310.526 155 345 120.302 345 77.5C345 34.6979 310.526 0 268 0C225.474 0 191 34.6979 191 77.5C191 120.302 225.474 155 268 155Z" fill="#F2F2F2"/>
<path d="M56 49C62.0751 49 67 44.0751 67 38C67 31.9249 62.0751 27 56 27C49.9249 27 45 31.9249 45 38C45 44.0751 49.9249 49 56 49Z" fill="#292929"/>
<path d="M73.5 90C88.6878 90 101 77.6878 101 62.5C101 47.3122 88.6878 35 73.5 35C58.3122 35 46 47.3122 46 62.5C46 77.6878 58.3122 90 73.5 90Z" fill="#292929"/>
<path d="M75.5 90C87.9264 90 98 79.9264 98 67.5C98 55.0736 87.9264 45 75.5 45C63.0736 45 53 55.0736 53 67.5C53 79.9264 63.0736 90 75.5 90Z" fill="#FE8310"/>
<path d="M90.7826 44.7114C86.8808 42.3432 82.4115 41.0622 77.8421 41.0022C73.2728 40.9422 68.7712 42.1055 64.808 44.3705C60.8448 46.6355 57.5656 49.9189 55.3133 53.8775C53.0609 57.8361 51.9182 62.3244 52.0046 66.8732C63.3506 69.7093 75.2704 71.8797 87.3702 67.5515L90.2277 60.589L91.9123 67.5567C95.5971 69.0562 99.2914 70.3249 102.986 67.5422C103.137 63.0063 102.089 58.5104 99.9475 54.5039C97.806 50.4974 94.6457 47.1208 90.7826 44.7114Z" fill="#292929"/>
<path d="M45.5862 7.82614C38.1419 4.35503 28.8015 5.98381 22.603 11.4267C16.4045 16.8696 13.4577 25.7279 14.6543 33.9667C15.875 42.3715 20.8995 49.6092 25.5309 56.6802C30.1624 63.7512 34.6871 71.4994 34.6819 79.9954C34.6782 86.1146 32.2883 91.9826 28.0363 96.3126C23.7843 100.642 18.0173 103.081 12 103.093C19.0623 106.185 26.4335 109.337 34.114 108.971C41.7946 108.604 49.8449 103.583 51.0978 95.8684C52.0005 90.3097 49.3187 84.8892 47.082 79.7347C43.4388 71.3357 40.8055 62.5204 39.2391 53.4798C38.4921 49.1649 38.0056 44.6287 39.389 40.4795C40.4905 37.4047 42.5345 34.7714 45.2195 32.9677C47.9045 31.164 51.0884 30.2854 54.3017 30.4616L56.8395 28.1398C57.9684 19.8911 53.0305 11.2972 45.5862 7.82614Z" fill="#292929"/>
<path d="M433.083 46.825C432.016 52.4836 430.267 57.9958 427.873 63.2437C414.165 91.8804 453.204 82.5463 467.155 82.5463C482.408 82.5463 497.003 90.4669 494.774 55.2732C493.821 40.24 482.408 28 467.155 28C454.126 28 435.807 33.7187 433.083 46.825Z" fill="#292929"/>
<path d="M465 83C477.15 83 487 72.9264 487 60.5C487 48.0736 477.15 38 465 38C452.85 38 443 48.0736 443 60.5C443 72.9264 452.85 83 465 83Z" fill="#FE8310"/>
<path d="M656 83C668.15 83 678 72.9264 678 60.5C678 48.0736 668.15 38 656 38C643.85 38 634 48.0736 634 60.5C634 72.9264 643.85 83 656 83Z" fill="white"/>
<path d="M450.217 37.7115C454.119 35.3433 458.589 34.0622 463.158 34.0022C467.727 33.9422 472.229 35.1055 476.192 37.3705C480.155 39.6355 483.434 42.9189 485.687 46.8775C487.939 50.8361 489.082 55.3244 488.995 59.8732C477.649 62.7093 465.73 64.8796 453.63 60.5515L450.772 53.589L449.088 60.5567C445.403 62.0561 441.709 63.3249 438.014 60.5422C437.863 56.0063 438.911 51.5104 441.053 47.5039C443.194 43.4974 446.354 40.1208 450.217 37.7115Z" fill="#292929"/>
<path d="M265.5 87C279.031 87 290 76.031 290 62.5C290 48.969 279.031 38 265.5 38C251.969 38 241 48.969 241 62.5C241 76.031 251.969 87 265.5 87Z" fill="#FE8310"/>
<path d="M135 129.7C121.626 144.96 102.805 154.334 82.5988 155.799C62.3927 157.263 42.4228 150.7 27 137.527L33.6211 119C35.1174 115.71 37.4786 112.89 40.4516 110.842C43.4247 108.795 46.8973 107.598 50.4972 107.379L54.7094 107.12L64.7534 98.433C64.7534 98.433 91.8163 97.464 91.4149 97L107.808 106.888L107.794 106.82L114.238 107.215C117.838 107.433 121.312 108.63 124.285 110.677C127.258 112.725 129.619 115.545 131.114 118.837L135 129.7Z" fill="#F15A25"/>
<path d="M326 129.7C312.626 144.96 293.805 154.334 273.599 155.799C253.393 157.263 233.423 150.7 218 137.527L224.621 119C226.117 115.71 228.479 112.89 231.452 110.842C234.425 108.795 237.897 107.598 241.497 107.379L245.709 107.12L255.753 98.433C255.753 98.433 282.816 97.464 282.415 97L298.808 106.888L298.794 106.82L305.238 107.215C308.838 107.433 312.312 108.63 315.285 110.677C318.258 112.725 320.619 115.545 322.114 118.837L326 129.7Z" fill="#292929"/>
<path d="M525 128.7C511.626 143.96 492.805 153.334 472.599 154.799C452.393 156.263 432.423 149.7 417 136.527L423.621 118C425.117 114.71 427.479 111.89 430.452 109.842C433.425 107.795 436.897 106.598 440.497 106.379L444.709 106.12L454.753 97.433C454.753 97.433 481.816 96.464 481.415 96L497.808 105.888L497.794 105.82L504.238 106.215C507.838 106.433 511.312 107.63 514.285 109.677C517.258 111.725 519.619 114.545 521.114 117.837L525 128.7Z" fill="#F15A25"/>
<path d="M716 128.7C702.626 143.96 683.805 153.334 663.599 154.799C643.393 156.263 623.423 149.7 608 136.527L614.621 118C616.117 114.71 618.479 111.89 621.452 109.842C624.425 107.795 627.897 106.598 631.497 106.379L635.709 106.12L645.753 97.433C645.753 97.433 672.816 96.464 672.415 96L688.808 105.888L688.794 105.82L695.238 106.215C698.838 106.433 702.312 107.63 705.285 109.677C708.258 111.725 710.619 114.545 712.114 117.837L716 128.7Z" fill="white"/>
<path d="M291.847 47.2605C289.751 39.7369 284.987 33.2392 278.452 28.987C273.243 25.6467 266.743 23.9414 260.842 25.7079C254.941 27.4744 250.056 33.2806 250.442 39.554C248.312 38.8272 245.891 39.7941 244.331 41.446C242.772 43.0979 241.934 45.3201 241.333 47.532C239.44 54.5656 239.565 61.9923 241.695 68.9576L241.578 69.9573C244.457 69.4798 246.641 67.0032 247.999 64.3645C249.357 61.7258 250.138 58.7985 251.61 56.2243C253.081 53.6502 255.525 51.354 258.441 51.2736L258.184 55.7419C260.692 54.4462 263.201 53.1504 265.709 51.8547C265.112 53.2857 264.516 54.7167 263.919 56.1477C266.11 55.2297 268.3 54.3117 270.491 53.3937C270.246 54.7697 270.001 56.1458 269.756 57.5218C271.929 52.5639 278.647 50.3859 283.218 53.1578C285.872 54.7677 287.613 57.6368 288.529 60.6497C289.445 63.6627 289.626 66.8499 289.801 70C293.186 62.9129 293.913 54.8406 291.847 47.2605Z" fill="#292929"/>
</svg>
