<svg width="201" height="207" viewBox="0 0 201 207" fill="none" xmlns="http://www.w3.org/2000/svg">
<path d="M100.504 174C98.98 174 97.4463 173.951 95.9369 173.855L95.9853 173.094C97.4806 173.189 98.9993 173.238 100.5 173.238L100.545 173.237V174L100.509 174L100.504 174ZM105.156 173.849L105.106 173.088C106.618 172.989 108.145 172.84 109.646 172.644L109.745 173.399C108.228 173.598 106.684 173.749 105.156 173.849ZM91.3464 173.412C89.8266 173.214 88.2952 172.965 86.7947 172.669L86.9421 171.921C88.4262 172.214 89.9412 172.461 91.4447 172.655L91.3464 173.412ZM114.296 172.65L114.148 171.903C115.632 171.608 117.127 171.26 118.59 170.869L118.788 171.605C117.309 172.001 115.797 172.352 114.296 172.65ZM82.3017 171.629C80.8251 171.235 79.3394 170.787 77.8866 170.295L78.1307 169.573C79.5679 170.059 81.0374 170.503 82.4979 170.892L82.3017 171.629ZM123.201 170.265L122.956 169.543C124.385 169.058 125.819 168.517 127.217 167.937L127.51 168.641C126.096 169.228 124.646 169.774 123.201 170.265ZM73.5622 168.67C72.148 168.085 70.7328 167.445 69.3556 166.765L69.6928 166.082C71.0549 166.753 72.4547 167.388 73.8536 167.966L73.5622 168.67ZM131.704 166.736L131.366 166.053C132.724 165.381 134.075 164.657 135.384 163.9L135.765 164.56C134.443 165.325 133.077 166.058 131.704 166.736ZM65.2845 164.588C63.958 163.822 62.6395 163.001 61.3656 162.15L61.7891 161.516C63.0494 162.359 64.3536 163.17 65.6656 163.928L65.2845 164.588ZM139.677 162.121L139.252 161.488C140.509 160.647 141.755 159.753 142.957 158.829L143.422 159.433C142.206 160.367 140.946 161.271 139.677 162.121ZM57.6151 159.461C56.401 158.529 55.2009 157.544 54.0484 156.534L54.5508 155.961C55.6909 156.96 56.878 157.934 58.0792 158.856L57.6151 159.461ZM146.985 156.505L146.482 155.933C147.62 154.934 148.74 153.884 149.811 152.813L150.35 153.352C149.267 154.435 148.135 155.496 146.985 156.505ZM50.6805 153.382C49.5966 152.3 48.5349 151.168 47.5248 150.019L48.0972 149.516C49.0966 150.653 50.1468 151.772 51.219 152.843L50.6805 153.382ZM153.505 149.986L152.931 149.483C153.931 148.344 154.906 147.158 155.829 145.957L156.433 146.421C155.5 147.635 154.515 148.835 153.505 149.986ZM44.5951 146.458C43.6617 145.245 42.7563 143.985 41.9041 142.715L42.5371 142.29C43.38 143.547 44.2758 144.793 45.1991 145.993L44.5951 146.458ZM159.125 142.672L158.491 142.248C159.335 140.988 160.147 139.685 160.906 138.373L161.565 138.755C160.798 140.081 159.977 141.399 159.125 142.672ZM39.4634 138.805C38.6954 137.48 37.9623 136.114 37.2844 134.745L37.9673 134.407C38.6379 135.761 39.3632 137.112 40.1228 138.423L39.4634 138.805ZM163.745 134.685L163.062 134.348C163.733 132.989 164.368 131.59 164.949 130.188L165.653 130.48C165.065 131.897 164.423 133.312 163.745 134.685ZM35.3768 130.552C34.7895 129.139 34.2419 127.69 33.7492 126.244L34.4708 125.998C34.9579 127.428 35.4996 128.862 36.0805 130.259L35.3768 130.552ZM167.281 126.157L166.559 125.912C167.045 124.477 167.49 123.008 167.881 121.546L168.617 121.743C168.222 123.221 167.772 124.706 167.281 126.157ZM32.4069 121.831C32.0098 120.353 31.657 118.842 31.358 117.34L32.1056 117.191C32.4011 118.677 32.7502 120.171 33.143 121.634L32.4069 121.831ZM169.66 117.25L168.912 117.102C169.206 115.617 169.454 114.102 169.649 112.6L170.405 112.699C170.207 114.217 169.956 115.748 169.66 117.25ZM30.6068 112.79C30.4075 111.276 30.2553 109.732 30.1541 108.201L30.9147 108.151C31.0147 109.666 31.1654 111.193 31.3624 112.691L30.6068 112.79ZM170.852 108.109L170.091 108.06C170.188 106.554 170.238 105.02 170.238 103.5L170.237 103.319H171L171 103.498C171 105.036 170.95 106.587 170.852 108.109ZM30.7622 103.591H30L30.0002 103.498C30.0002 101.996 30.048 100.476 30.1425 98.9827L30.9032 99.0308C30.8098 100.508 30.7623 102.012 30.7623 103.5L30.7622 103.591ZM170.079 98.7598C169.978 97.248 169.826 95.7207 169.626 94.2205L170.382 94.12C170.583 95.6367 170.737 97.1806 170.84 98.7088L170.079 98.7598ZM31.339 94.4896L30.5831 94.3921C30.7789 92.8737 31.0279 91.3421 31.3226 89.84L32.0706 89.987C31.7789 91.4726 31.5327 92.9876 31.339 94.4896ZM168.876 89.7207C168.579 88.2364 168.228 86.7424 167.833 85.2798L168.569 85.0811C168.968 86.5598 169.323 88.0704 169.624 89.5711L168.876 89.7207ZM33.0963 85.5418L32.3598 85.3461C32.7531 83.8653 33.201 82.3795 33.6908 80.9299L34.4127 81.1737C33.9284 82.6074 33.4855 84.077 33.0963 85.5418ZM166.5 80.9171C166.011 79.4858 165.467 78.053 164.885 76.6584L165.588 76.3648C166.177 77.7748 166.726 79.2234 167.221 80.6704L166.5 80.9171ZM36.0165 76.8958L35.312 76.6048C35.8971 75.1888 36.5372 73.7731 37.2146 72.3971L37.8983 72.7339C37.2282 74.0948 36.595 75.4951 36.0165 76.8958ZM162.992 72.5134C162.322 71.1623 161.595 69.8121 160.832 68.4999L161.491 68.117C162.262 69.4433 162.997 70.8086 163.675 72.1744L162.992 72.5134ZM40.0493 68.7048L39.3891 68.3241C40.1541 66.998 40.9735 65.6789 41.825 64.4037L42.4588 64.8268C41.6166 66.0884 40.8059 67.3932 40.0493 68.7048ZM158.413 64.6354C157.567 63.3779 156.67 62.1332 155.746 60.9358L156.35 60.4703C157.283 61.6807 158.191 62.9389 159.046 64.21L158.413 64.6354ZM45.1163 61.115L44.5114 60.6513C45.4432 59.4357 46.4272 58.2349 47.4359 57.0828L48.0094 57.5848C47.0115 58.7247 46.0381 59.9124 45.1163 61.115ZM152.843 57.4169C151.843 56.2821 150.792 55.164 149.717 54.0935L150.255 53.5535C151.341 54.6355 152.404 55.7659 153.415 56.9131L152.843 57.4169ZM51.1252 54.2507L50.5856 53.7126C51.667 52.6285 52.798 51.566 53.947 50.5549L54.4505 51.1269C53.3138 52.1274 52.1949 53.1783 51.1252 54.2507ZM146.381 50.9799C145.24 49.9816 144.051 49.009 142.85 48.089L143.313 47.4839C144.528 48.4137 145.729 49.3969 146.883 50.406L146.381 50.9799ZM57.9712 48.2265L57.506 47.6229C58.7181 46.6888 59.9771 45.7826 61.2476 44.9295L61.6726 45.5621C60.4157 46.4061 59.1703 47.3027 57.9712 48.2265ZM139.136 45.4339C137.875 44.5932 136.57 43.7834 135.256 43.0268L135.637 42.3663C136.964 43.1312 138.284 43.95 139.559 44.7998L139.136 45.4339ZM65.5387 43.1452L65.1561 42.4861C66.4782 41.7185 67.8436 40.9845 69.2146 40.3044L69.5532 40.9873C68.1971 41.6599 66.8466 42.386 65.5387 43.1452ZM131.226 40.8784C129.865 40.2091 128.464 39.577 127.063 38.9992L127.353 38.2948C128.77 38.8787 130.186 39.5178 131.562 40.1944L131.226 40.8784ZM73.6997 39.0977L73.4065 38.3941C74.8186 37.8059 76.2675 37.2574 77.7132 36.7639L77.9595 37.4852C76.5295 37.9734 75.0964 38.516 73.6997 39.0977ZM122.784 37.3981C121.349 36.9145 119.879 36.4725 118.415 36.0846L118.61 35.3477C120.09 35.7399 121.576 36.1867 123.027 36.6757L122.784 37.3981ZM82.323 36.1547L82.125 35.4186C83.6026 35.0208 85.1133 34.667 86.6149 34.3669L86.7646 35.1142C85.2789 35.4112 83.7848 35.7611 82.323 36.1547ZM113.969 35.0619C112.485 34.7714 110.97 34.5264 109.466 34.3332L109.563 33.5774C111.083 33.7724 112.615 34.0202 114.116 34.3139L113.969 35.0619ZM91.2646 34.3682L91.1648 33.6127C92.6787 33.4125 94.2224 33.2592 95.7538 33.1572L95.8044 33.9177C94.2898 34.0186 92.7621 34.1702 91.2646 34.3682ZM104.925 33.9002C103.462 33.8087 101.973 33.7622 100.5 33.7622L100.364 33.7623V33.0002L100.499 33C101.989 33 103.494 33.0469 104.972 33.1396L104.925 33.9002Z" fill="#FE8310"/>
<path d="M100.028 153L100.028 152.233C101.512 152.232 103.009 152.162 104.478 152.025L104.548 152.789C103.056 152.928 101.535 152.999 100.028 153ZM95.5095 152.795C94.0105 152.658 92.5022 152.448 91.0274 152.172L91.1654 151.417C92.6176 151.689 94.1021 151.895 95.5785 152.031L95.5095 152.795ZM109.029 152.161L108.89 151.407C110.346 151.133 111.805 150.787 113.227 150.378L113.434 151.117C111.99 151.532 110.508 151.883 109.029 152.161ZM86.621 151.132C85.1754 150.719 83.7315 150.231 82.3292 149.683L82.6033 148.968C83.9836 149.507 85.405 149.987 86.828 150.394L86.621 151.132ZM117.724 149.662L117.45 148.947C118.827 148.407 120.197 147.794 121.522 147.126L121.862 147.812C120.516 148.491 119.124 149.114 117.724 149.662ZM78.1884 147.837C76.8431 147.161 75.5128 146.412 74.2347 145.612L74.6345 144.96C75.893 145.747 77.2026 146.484 78.527 147.151L78.1884 147.837ZM125.812 145.583L125.411 144.931C126.666 144.144 127.902 143.287 129.083 142.384L129.542 142.996C128.342 143.913 127.087 144.783 125.812 145.583ZM70.5011 143.028C69.3028 142.115 68.1312 141.132 67.0187 140.109L67.5302 139.542C68.6255 140.549 69.7791 141.516 70.9589 142.416L70.5011 143.028ZM133.021 140.072L132.509 139.505C133.601 138.498 134.661 137.427 135.658 136.322L136.22 136.839C135.207 137.962 134.13 139.049 133.021 140.072ZM63.8162 136.879C62.8013 135.757 61.8272 134.575 60.9206 133.366L61.5264 132.903C62.4187 134.093 63.3778 135.257 64.3771 136.362L63.8162 136.879ZM139.112 133.323L138.506 132.86C139.399 131.667 140.247 130.418 141.027 129.148L141.672 129.553C140.881 130.842 140.02 132.111 139.112 133.323ZM58.3567 129.6C57.5631 128.31 56.8199 126.968 56.1476 125.61L56.8271 125.267C57.4889 126.604 58.2206 127.925 59.0018 129.194L58.3567 129.6ZM143.877 125.56L143.197 125.217C143.857 123.881 144.463 122.496 144.998 121.101L145.706 121.378C145.163 122.795 144.547 124.202 143.877 125.56ZM54.3144 121.432C53.77 120.017 53.285 118.559 52.8725 117.099L53.6029 116.888C54.0091 118.326 54.4867 119.761 55.0225 121.154L54.3144 121.432ZM147.143 117.043L146.413 116.834C146.816 115.395 147.158 113.921 147.428 112.452L148.175 112.593C147.901 114.084 147.554 115.582 147.143 117.043ZM51.8354 112.649C51.5599 111.16 51.3498 109.637 51.2109 108.123L51.9673 108.052C52.1041 109.543 52.3109 111.042 52.5821 112.509L51.8354 112.649ZM148.795 108.065L148.038 107.995C148.172 106.511 148.24 104.999 148.24 103.5L148.24 103.386H149L149 103.496C149 105.022 148.931 106.558 148.795 108.065ZM51.7597 103.557H51V103.5C51 101.998 51.0675 100.481 51.2005 98.9921L51.9572 99.0611C51.8261 100.527 51.7597 102.021 51.7597 103.5V103.557ZM148.027 98.8913C147.888 97.3992 147.68 95.9001 147.407 94.4355L148.154 94.2938C148.431 95.7813 148.642 97.304 148.783 98.8194L148.027 98.8913ZM52.5617 94.6031L51.8146 94.4639C52.087 92.9714 52.4324 91.4738 52.841 90.0121L53.5721 90.2209C53.1698 91.6595 52.8299 93.1338 52.5617 94.6031ZM146.382 90.0569C145.974 88.6198 145.495 87.1854 144.957 85.7933L145.665 85.5145C146.211 86.9285 146.698 88.3856 147.112 89.8456L146.382 90.0569ZM54.9817 85.9522L54.2728 85.6756C54.814 84.2601 55.4279 82.8522 56.0975 81.4914L56.7778 81.8332C56.1186 83.1726 55.5144 84.5585 54.9817 85.9522ZM143.147 81.6821C142.486 80.3483 141.752 79.0277 140.968 77.7576L141.613 77.3516C142.409 78.6419 143.154 79.9833 143.826 81.3381L143.147 81.6821ZM58.9441 77.8998L58.2979 77.4962C59.0884 76.2053 59.9482 74.9359 60.8539 73.7229L61.4604 74.1849C60.5688 75.3792 59.7221 76.6291 58.9441 77.8998ZM138.44 74.0519C137.545 72.862 136.585 71.6996 135.585 70.5965L136.145 70.0783C137.16 71.1984 138.136 72.3791 139.045 73.5876L138.44 74.0519ZM64.3038 70.7196L63.7418 70.2033C64.7532 69.08 65.8282 67.9911 66.9371 66.9664L67.4498 67.5326C66.3581 68.5415 65.2996 69.6138 64.3038 70.7196ZM132.428 67.4202C131.332 66.4144 130.177 65.4485 128.996 64.5497L129.453 63.9367C130.653 64.8497 131.826 65.8306 132.939 66.8521L132.428 67.4202ZM70.8721 64.6505L70.4129 64.039C71.6104 63.1213 72.8644 62.2491 74.1401 61.4468L74.5414 62.0985C73.2856 62.8882 72.0511 63.7469 70.8721 64.6505ZM125.317 62.0102C124.059 61.2246 122.748 60.4892 121.423 59.824L121.76 59.1368C123.108 59.8122 124.438 60.5595 125.716 61.3574L125.317 62.0102ZM78.4278 59.8992L78.0876 59.213C79.4314 58.5333 80.8226 57.9092 82.2227 57.3583L82.4983 58.0733C81.1203 58.6157 79.7508 59.2299 78.4278 59.8992ZM117.344 58.0119C115.963 57.4741 114.541 56.996 113.118 56.5905L113.324 55.8519C114.77 56.2637 116.214 56.7496 117.617 57.2958L117.344 58.0119ZM86.7196 56.6372L86.5112 55.8993C87.9564 55.4821 89.4379 55.1289 90.9146 54.8492L91.0548 55.6035C89.6011 55.8787 88.1426 56.2265 86.7196 56.6372ZM108.78 55.5722C107.327 55.3024 105.842 55.0978 104.366 54.9642L104.434 54.1997C105.933 54.3356 107.441 54.5434 108.917 54.8175L108.78 55.5722ZM95.4661 54.9797L95.3956 54.2157C96.8875 54.0751 98.408 54.0026 99.9144 54L99.9159 54.7674C98.4321 54.7701 96.9354 54.8415 95.4661 54.9797Z" fill="#FE8310"/>
<path d="M107 203.137C104.811 202.425 102.081 201.168 100.364 199.791L101.662 202.97C57.4483 203.581 17.7327 174.565 4.97187 132.173C-7.74489 89.9276 9.23906 43.955 46.2828 20.0901L46.9668 23.4549C47.6313 21.3591 49.2074 18.8036 50.634 17C48.3743 17.4389 45.3762 17.665 43.2053 17.2934L45.8869 19.442C27.9466 31.0705 14.1668 48.0816 6.53198 68.0256C-1.31952 88.67 -2.11571 111.325 4.26723 132.468C10.6502 153.611 23.8545 172.056 41.8265 184.934C58.902 197.116 79.354 203.69 100.343 203.743C100.792 203.743 101.242 203.734 101.693 203.728L100.652 207C102.253 205.491 104.875 204.021 107 203.137Z" fill="#292929"/>
<path d="M196.748 74.9368C190.719 54.8319 178.574 37.1149 162.008 24.2594C145.442 11.4039 125.283 4.05167 104.345 3.22921L105.56 0C103.876 1.43115 101.174 2.76748 99 3.54205C101.153 4.37507 103.819 5.78297 105.463 7.25849L104.333 3.99286C125.034 4.81004 144.969 12.0587 161.374 24.7342C177.779 37.4096 189.842 54.8839 195.891 74.7349C201.939 94.5859 201.673 115.83 195.131 135.523C188.588 155.216 176.092 172.382 159.375 184.642L158.492 181.301C157.95 183.445 156.524 186.104 155.203 188C157.438 187.426 160.424 187.022 162.618 187.267L159.81 185.269C176.597 172.96 189.163 155.741 195.778 135.982C202.393 116.224 202.732 94.8965 196.748 74.9368Z" fill="#292929"/>
<path d="M100.5 119C109.06 119 116 112.06 116 103.5C116 94.9396 109.06 88 100.5 88C91.9396 88 85 94.9396 85 103.5C85 112.06 91.9396 119 100.5 119Z" fill="#F15A25"/>
</svg>
