<svg width="342" height="284" viewBox="0 0 342 284" fill="none" xmlns="http://www.w3.org/2000/svg">
<path d="M341.002 282.041C341 282.314 340.891 282.575 340.699 282.769C340.604 282.864 340.492 282.939 340.367 282.99C340.243 283.041 340.111 283.067 339.976 283.066H335.854C335.719 283.067 335.586 283.041 335.461 282.989C335.336 282.938 335.223 282.863 335.128 282.767C335.033 282.672 334.957 282.559 334.906 282.434C334.854 282.31 334.828 282.176 334.829 282.041V157.415C334.829 154.667 333.906 152.438 332.773 152.432H23.8632C22.7249 152.438 21.8072 154.667 21.802 157.415V281.278C21.8012 281.532 21.7058 281.778 21.5344 281.966C21.3629 282.155 21.1276 282.273 20.874 282.298C20.0434 282.38 19.2128 282.451 18.3873 282.518C18.3668 282.518 18.3463 282.523 18.3258 282.523C17.8746 282.564 17.4234 282.595 16.9722 282.631H16.9671C16.7312 282.205 16.5056 281.77 16.2749 281.334C16.2009 281.186 16.1623 281.023 16.1621 280.857V150.951C16.1621 150.193 16.1929 149.429 16.2441 148.675C16.3173 147.641 16.4457 146.611 16.6287 145.59C17.4952 140.828 19.4538 137.604 21.679 137.594H334.952C335.276 137.596 335.597 137.664 335.895 137.793C336.332 137.987 336.728 138.264 337.059 138.608C337.509 139.076 337.893 139.602 338.202 140.172C339.3 142.104 340.084 144.985 340.361 148.337C340.361 148.368 340.366 148.398 340.366 148.429C340.438 149.26 340.474 150.105 340.469 150.951L340.54 161.936L340.586 168.486L340.725 189.04L340.776 196.339L341.002 282.041Z" fill="#F1F2F3"/>
<path d="M192.775 101.181H167.734C167.38 101.181 167.041 101.322 166.79 101.573C166.54 101.824 166.4 102.164 166.4 102.518V142.063H194.112V102.518C194.112 102.342 194.078 102.168 194.011 102.006C193.943 101.844 193.845 101.696 193.721 101.572C193.597 101.448 193.449 101.349 193.287 101.282C193.124 101.215 192.95 101.181 192.775 101.181ZM180.339 123.65C179.556 123.646 178.806 123.333 178.252 122.78C177.698 122.226 177.386 121.476 177.382 120.694V116.132C177.382 115.348 177.694 114.597 178.248 114.042C178.803 113.488 179.555 113.176 180.339 113.176C181.123 113.176 181.875 113.488 182.43 114.042C182.984 114.597 183.296 115.348 183.296 116.132V120.694C183.292 121.476 182.979 122.226 182.426 122.78C181.872 123.333 181.122 123.646 180.339 123.65Z" fill="#2F2E41"/>
<path d="M234.239 39.4663H127.202C126.282 39.4678 125.4 39.8336 124.75 40.4837C124.1 41.1338 123.734 42.0151 123.732 42.9344V115.143C123.733 116.062 124.099 116.944 124.749 117.594C125.4 118.245 126.282 118.61 127.202 118.611H234.239C235.159 118.61 236.041 118.245 236.692 117.594C237.342 116.944 237.708 116.062 237.709 115.143V42.9344C237.707 42.0151 237.341 41.1338 236.691 40.4837C236.041 39.8336 235.159 39.4678 234.239 39.4663Z" fill="#292929"/>
<path d="M233.344 41.9709H128.094C127.601 41.972 127.129 42.1683 126.782 42.5167C126.434 42.8652 126.238 43.3373 126.238 43.8295V114.248C126.239 114.74 126.435 115.211 126.783 115.559C127.13 115.907 127.602 116.102 128.094 116.103H233.344C233.836 116.102 234.307 115.907 234.655 115.559C235.002 115.211 235.198 114.74 235.199 114.248V43.8296C235.199 43.3373 235.004 42.8652 234.656 42.5167C234.308 42.1683 233.836 41.972 233.344 41.9709Z" fill="white"/>
<path d="M166.316 140.798V144.614C166.317 144.811 166.396 145.001 166.535 145.141C166.675 145.28 166.865 145.359 167.062 145.36H193.454C193.652 145.359 193.841 145.28 193.981 145.14C194.12 145 194.199 144.811 194.2 144.614V140.798H166.316Z" fill="#292929"/>
<path d="M212.844 146.686H150.226C150.055 146.686 149.885 146.648 149.731 146.574C149.576 146.501 149.44 146.393 149.332 146.26C149.224 146.127 149.147 145.972 149.106 145.805C149.066 145.639 149.064 145.465 149.099 145.298L150.071 140.684C150.126 140.426 150.268 140.195 150.473 140.028C150.678 139.862 150.934 139.771 151.198 139.77H211.873C212.137 139.771 212.393 139.862 212.598 140.028C212.803 140.195 212.944 140.426 213 140.684L213.971 145.298C214.007 145.465 214.004 145.639 213.964 145.805C213.924 145.972 213.847 146.127 213.739 146.26C213.631 146.393 213.494 146.501 213.34 146.574C213.185 146.648 213.016 146.686 212.844 146.686Z" fill="#2F2E41"/>
<path d="M153.321 140.601H151.893C151.755 140.601 151.643 140.713 151.643 140.851V141.507C151.643 141.646 151.755 141.758 151.893 141.758H153.321C153.459 141.758 153.571 141.646 153.571 141.507V140.851C153.571 140.713 153.459 140.601 153.321 140.601Z" fill="#292929"/>
<path d="M157.18 140.601H155.752C155.614 140.601 155.502 140.713 155.502 140.851V141.507C155.502 141.646 155.614 141.758 155.752 141.758H157.18C157.318 141.758 157.431 141.646 157.431 141.507V140.851C157.431 140.713 157.318 140.601 157.18 140.601Z" fill="#292929"/>
<path d="M161.036 140.601H159.608C159.469 140.601 159.357 140.713 159.357 140.851V141.507C159.357 141.646 159.469 141.758 159.608 141.758H161.036C161.174 141.758 161.286 141.646 161.286 141.507V140.851C161.286 140.713 161.174 140.601 161.036 140.601Z" fill="#292929"/>
<path d="M164.893 140.601H163.465C163.327 140.601 163.215 140.713 163.215 140.851V141.507C163.215 141.646 163.327 141.758 163.465 141.758H164.893C165.031 141.758 165.143 141.646 165.143 141.507V140.851C165.143 140.713 165.031 140.601 164.893 140.601Z" fill="#292929"/>
<path d="M168.751 140.601H167.323C167.184 140.601 167.072 140.713 167.072 140.851V141.507C167.072 141.646 167.184 141.758 167.323 141.758H168.751C168.889 141.758 169.001 141.646 169.001 141.507V140.851C169.001 140.713 168.889 140.601 168.751 140.601Z" fill="#292929"/>
<path d="M172.608 140.601H171.18C171.042 140.601 170.93 140.713 170.93 140.851V141.507C170.93 141.646 171.042 141.758 171.18 141.758H172.608C172.746 141.758 172.858 141.646 172.858 141.507V140.851C172.858 140.713 172.746 140.601 172.608 140.601Z" fill="#292929"/>
<path d="M176.463 140.601H175.035C174.897 140.601 174.785 140.713 174.785 140.851V141.507C174.785 141.646 174.897 141.758 175.035 141.758H176.463C176.602 141.758 176.714 141.646 176.714 141.507V140.851C176.714 140.713 176.602 140.601 176.463 140.601Z" fill="#292929"/>
<path d="M180.323 140.601H178.895C178.757 140.601 178.645 140.713 178.645 140.851V141.507C178.645 141.646 178.757 141.758 178.895 141.758H180.323C180.461 141.758 180.573 141.646 180.573 141.507V140.851C180.573 140.713 180.461 140.601 180.323 140.601Z" fill="#292929"/>
<path d="M184.178 140.601H182.75C182.612 140.601 182.5 140.713 182.5 140.851V141.507C182.5 141.646 182.612 141.758 182.75 141.758H184.178C184.317 141.758 184.429 141.646 184.429 141.507V140.851C184.429 140.713 184.317 140.601 184.178 140.601Z" fill="#292929"/>
<path d="M188.036 140.601H186.608C186.469 140.601 186.357 140.713 186.357 140.851V141.507C186.357 141.646 186.469 141.758 186.608 141.758H188.036C188.174 141.758 188.286 141.646 188.286 141.507V140.851C188.286 140.713 188.174 140.601 188.036 140.601Z" fill="#292929"/>
<path d="M191.895 140.601H190.467C190.329 140.601 190.217 140.713 190.217 140.851V141.507C190.217 141.646 190.329 141.758 190.467 141.758H191.895C192.033 141.758 192.145 141.646 192.145 141.507V140.851C192.145 140.713 192.033 140.601 191.895 140.601Z" fill="#292929"/>
<path d="M195.751 140.601H194.323C194.184 140.601 194.072 140.713 194.072 140.851V141.507C194.072 141.646 194.184 141.758 194.323 141.758H195.751C195.889 141.758 196.001 141.646 196.001 141.507V140.851C196.001 140.713 195.889 140.601 195.751 140.601Z" fill="#292929"/>
<path d="M199.608 140.601H198.18C198.042 140.601 197.93 140.713 197.93 140.851V141.507C197.93 141.646 198.042 141.758 198.18 141.758H199.608C199.746 141.758 199.858 141.646 199.858 141.507V140.851C199.858 140.713 199.746 140.601 199.608 140.601Z" fill="#292929"/>
<path d="M203.465 140.601H202.037C201.899 140.601 201.787 140.713 201.787 140.851V141.507C201.787 141.646 201.899 141.758 202.037 141.758H203.465C203.604 141.758 203.716 141.646 203.716 141.507V140.851C203.716 140.713 203.604 140.601 203.465 140.601Z" fill="#292929"/>
<path d="M207.323 140.601H205.895C205.757 140.601 205.645 140.713 205.645 140.851V141.507C205.645 141.646 205.757 141.758 205.895 141.758H207.323C207.461 141.758 207.573 141.646 207.573 141.507V140.851C207.573 140.713 207.461 140.601 207.323 140.601Z" fill="#292929"/>
<path d="M211.178 140.601H209.75C209.612 140.601 209.5 140.713 209.5 140.851V141.507C209.5 141.646 209.612 141.758 209.75 141.758H211.178C211.317 141.758 211.429 141.646 211.429 141.507V140.851C211.429 140.713 211.317 140.601 211.178 140.601Z" fill="#292929"/>
<path d="M153.276 142.529H151.848C151.71 142.529 151.598 142.641 151.598 142.779V143.435C151.598 143.574 151.71 143.686 151.848 143.686H153.276C153.414 143.686 153.526 143.574 153.526 143.435V142.779C153.526 142.641 153.414 142.529 153.276 142.529Z" fill="#292929"/>
<path d="M157.133 142.529H155.705C155.567 142.529 155.455 142.641 155.455 142.779V143.435C155.455 143.574 155.567 143.686 155.705 143.686H157.133C157.272 143.686 157.384 143.574 157.384 143.435V142.779C157.384 142.641 157.272 142.529 157.133 142.529Z" fill="#292929"/>
<path d="M160.991 142.529H159.563C159.425 142.529 159.312 142.641 159.312 142.779V143.435C159.312 143.574 159.425 143.686 159.563 143.686H160.991C161.129 143.686 161.241 143.574 161.241 143.435V142.779C161.241 142.641 161.129 142.529 160.991 142.529Z" fill="#292929"/>
<path d="M164.846 142.529H163.418C163.28 142.529 163.168 142.641 163.168 142.779V143.435C163.168 143.574 163.28 143.686 163.418 143.686H164.846C164.984 143.686 165.097 143.574 165.097 143.435V142.779C165.097 142.641 164.984 142.529 164.846 142.529Z" fill="#292929"/>
<path d="M168.706 142.529H167.278C167.139 142.529 167.027 142.641 167.027 142.779V143.435C167.027 143.574 167.139 143.686 167.278 143.686H168.706C168.844 143.686 168.956 143.574 168.956 143.435V142.779C168.956 142.641 168.844 142.529 168.706 142.529Z" fill="#292929"/>
<path d="M172.561 142.529H171.133C170.995 142.529 170.883 142.641 170.883 142.779V143.435C170.883 143.574 170.995 143.686 171.133 143.686H172.561C172.699 143.686 172.811 143.574 172.811 143.435V142.779C172.811 142.641 172.699 142.529 172.561 142.529Z" fill="#292929"/>
<path d="M176.419 142.529H174.991C174.852 142.529 174.74 142.641 174.74 142.779V143.435C174.74 143.574 174.852 143.686 174.991 143.686H176.419C176.557 143.686 176.669 143.574 176.669 143.435V142.779C176.669 142.641 176.557 142.529 176.419 142.529Z" fill="#292929"/>
<path d="M180.278 142.529H178.85C178.712 142.529 178.6 142.641 178.6 142.779V143.435C178.6 143.574 178.712 143.686 178.85 143.686H180.278C180.416 143.686 180.528 143.574 180.528 143.435V142.779C180.528 142.641 180.416 142.529 180.278 142.529Z" fill="#292929"/>
<path d="M184.133 142.529H182.705C182.567 142.529 182.455 142.641 182.455 142.779V143.435C182.455 143.574 182.567 143.686 182.705 143.686H184.133C184.272 143.686 184.384 143.574 184.384 143.435V142.779C184.384 142.641 184.272 142.529 184.133 142.529Z" fill="#292929"/>
<path d="M187.991 142.529H186.563C186.425 142.529 186.312 142.641 186.312 142.779V143.435C186.312 143.574 186.425 143.686 186.563 143.686H187.991C188.129 143.686 188.241 143.574 188.241 143.435V142.779C188.241 142.641 188.129 142.529 187.991 142.529Z" fill="#292929"/>
<path d="M191.848 142.529H190.42C190.282 142.529 190.17 142.641 190.17 142.779V143.435C190.17 143.574 190.282 143.686 190.42 143.686H191.848C191.986 143.686 192.098 143.574 192.098 143.435V142.779C192.098 142.641 191.986 142.529 191.848 142.529Z" fill="#292929"/>
<path d="M195.706 142.529H194.278C194.139 142.529 194.027 142.641 194.027 142.779V143.435C194.027 143.574 194.139 143.686 194.278 143.686H195.706C195.844 143.686 195.956 143.574 195.956 143.435V142.779C195.956 142.641 195.844 142.529 195.706 142.529Z" fill="#292929"/>
<path d="M199.561 142.529H198.133C197.995 142.529 197.883 142.641 197.883 142.779V143.435C197.883 143.574 197.995 143.686 198.133 143.686H199.561C199.699 143.686 199.811 143.574 199.811 143.435V142.779C199.811 142.641 199.699 142.529 199.561 142.529Z" fill="#292929"/>
<path d="M203.42 142.529H201.992C201.854 142.529 201.742 142.641 201.742 142.779V143.435C201.742 143.574 201.854 143.686 201.992 143.686H203.42C203.559 143.686 203.671 143.574 203.671 143.435V142.779C203.671 142.641 203.559 142.529 203.42 142.529Z" fill="#292929"/>
<path d="M207.276 142.529H205.848C205.71 142.529 205.598 142.641 205.598 142.779V143.435C205.598 143.574 205.71 143.686 205.848 143.686H207.276C207.414 143.686 207.526 143.574 207.526 143.435V142.779C207.526 142.641 207.414 142.529 207.276 142.529Z" fill="#292929"/>
<path d="M211.133 142.529H209.705C209.567 142.529 209.455 142.641 209.455 142.779V143.435C209.455 143.574 209.567 143.686 209.705 143.686H211.133C211.272 143.686 211.384 143.574 211.384 143.435V142.779C211.384 142.641 211.272 142.529 211.133 142.529Z" fill="#292929"/>
<path d="M185.29 144.843H170.362C170.223 144.843 170.111 144.955 170.111 145.093V145.749C170.111 145.887 170.223 145.999 170.362 145.999H185.29C185.428 145.999 185.54 145.887 185.54 145.749V145.093C185.54 144.955 185.428 144.843 185.29 144.843Z" fill="#292929"/>
<path d="M228.055 51.6739H129.573C129.471 51.6718 129.373 51.6296 129.301 51.5564C129.23 51.4832 129.189 51.3848 129.189 51.2824C129.189 51.1799 129.23 51.0816 129.301 51.0084C129.373 50.9352 129.471 50.893 129.573 50.8909H228.055C228.158 50.893 228.255 50.9352 228.327 51.0084C228.399 51.0816 228.439 51.1799 228.439 51.2824C228.439 51.3848 228.399 51.4832 228.327 51.5564C228.255 51.6296 228.158 51.6718 228.055 51.6739Z" fill="#CACACA"/>
<path d="M136.276 48.8912C137.543 48.8912 138.571 47.841 138.571 46.5456C138.571 45.2501 137.543 44.2 136.276 44.2C135.008 44.2 133.98 45.2501 133.98 46.5456C133.98 47.841 135.008 48.8912 136.276 48.8912Z" fill="#292929"/>
<path d="M144.207 48.8912C145.475 48.8912 146.502 47.841 146.502 46.5456C146.502 45.2501 145.475 44.2 144.207 44.2C142.94 44.2 141.912 45.2501 141.912 46.5456C141.912 47.841 142.94 48.8912 144.207 48.8912Z" fill="#292929"/>
<path d="M152.135 48.8912C153.403 48.8912 154.43 47.841 154.43 46.5456C154.43 45.2501 153.403 44.2 152.135 44.2C150.867 44.2 149.84 45.2501 149.84 46.5456C149.84 47.841 150.867 48.8912 152.135 48.8912Z" fill="#292929"/>
<path d="M223.283 44.7817H217.65C217.539 44.784 217.433 44.8298 217.354 44.9096C217.276 44.9893 217.232 45.0964 217.232 45.2081C217.232 45.3197 217.276 45.4269 217.354 45.5066C217.433 45.5863 217.539 45.6322 217.65 45.6344H223.283C223.394 45.6322 223.501 45.5863 223.579 45.5066C223.657 45.4269 223.701 45.3197 223.701 45.2081C223.701 45.0964 223.657 44.9893 223.579 44.9096C223.501 44.8298 223.394 44.784 223.283 44.7817Z" fill="#292929"/>
<path d="M223.283 46.3818H217.65C217.539 46.3841 217.433 46.43 217.354 46.5097C217.276 46.5894 217.232 46.6965 217.232 46.8082C217.232 46.9198 217.276 47.027 217.354 47.1067C217.433 47.1864 217.539 47.2323 217.65 47.2345H223.283C223.394 47.2323 223.501 47.1864 223.579 47.1067C223.657 47.027 223.701 46.9198 223.701 46.8082C223.701 46.6965 223.657 46.5894 223.579 46.5097C223.501 46.43 223.394 46.3841 223.283 46.3818Z" fill="#292929"/>
<path d="M223.283 47.9802H217.65C217.539 47.9824 217.433 48.0283 217.354 48.1081C217.276 48.1878 217.232 48.2949 217.232 48.4066C217.232 48.5182 217.276 48.6254 217.354 48.7051C217.433 48.7848 217.539 48.8307 217.65 48.8329H223.283C223.394 48.8307 223.501 48.7848 223.579 48.7051C223.657 48.6254 223.701 48.5182 223.701 48.4066C223.701 48.2949 223.657 48.1878 223.579 48.1081C223.501 48.0283 223.394 47.9824 223.283 47.9802Z" fill="#292929"/>
<path d="M186.681 74.5469H174.375C173.45 74.5469 172.701 75.296 172.701 76.22V76.22C172.701 77.144 173.45 77.8931 174.375 77.8931H186.681C187.605 77.8931 188.354 77.144 188.354 76.22V76.22C188.354 75.296 187.605 74.5469 186.681 74.5469Z" fill="#F15A25"/>
<path d="M194.631 81.2393H166.426C165.501 81.2393 164.752 81.9883 164.752 82.9124V82.9124C164.752 83.8364 165.501 84.5855 166.426 84.5855H194.631C195.555 84.5855 196.304 83.8364 196.304 82.9124V82.9124C196.304 81.9883 195.555 81.2393 194.631 81.2393Z" fill="#E6E6E6"/>
<path d="M194.631 87.9321H166.426C165.501 87.9321 164.752 88.6812 164.752 89.6052C164.752 90.5293 165.501 91.2784 166.426 91.2784H194.631C195.555 91.2784 196.304 90.5293 196.304 89.6052C196.304 88.6812 195.555 87.9321 194.631 87.9321Z" fill="#E6E6E6"/>
<path d="M130.537 151.72H99.7736C98.6858 151.72 97.6425 152.152 96.8733 152.921C96.104 153.69 95.6719 154.733 95.6719 155.821C95.6719 156.908 96.104 157.951 96.8733 158.72C97.6425 159.489 98.6858 159.921 99.7736 159.921H111.054V191.701H119.257V159.921H130.537C131.625 159.921 132.668 159.489 133.437 158.72C134.207 157.951 134.639 156.908 134.639 155.821C134.639 154.733 134.207 153.69 133.437 152.921C132.668 152.152 131.625 151.72 130.537 151.72Z" fill="#292929"/>
<path d="M150.839 209.301H68.5559C60.579 209.271 52.8788 206.374 46.862 201.138C40.8451 195.903 36.9132 188.678 35.7846 180.783L32.872 170.073C26.8434 147.878 17.6608 126.663 5.60477 107.076C0.0943916 98.1297 -2.74179 89.4697 3.70009 81.1321C3.75494 81.0611 3.80888 80.9911 3.86191 80.9221C9.02868 74.1991 34.7454 72.7437 43.1289 72.4606C43.4601 72.4493 43.7926 72.4437 44.1263 72.4438H95.3056C95.6395 72.4438 95.9719 72.4494 96.3027 72.4606C100.822 72.5923 105.222 73.9446 109.034 76.3741C112.847 78.8035 115.931 82.2195 117.958 86.2595C120.122 90.3842 121.128 95.0175 120.87 99.6678C120.612 104.318 119.1 108.812 116.494 112.672C98.5161 139.67 93.0118 156.598 98.647 167.561C104.098 178.165 120.807 183.586 151.231 184.622C159.407 184.9 163.159 191.265 163.186 197.06C163.211 202.706 159.604 208.94 151.622 209.284C151.363 209.295 151.102 209.301 150.839 209.301Z" fill="#474747"/>
<path d="M82.5354 282.342H113.299C114.386 282.342 115.43 281.91 116.199 281.141C116.968 280.372 117.4 279.329 117.4 278.242C117.4 277.154 116.968 276.111 116.199 275.342C115.43 274.573 114.386 274.141 113.299 274.141H102.019V204.944H93.8152V274.141H82.5354C81.4475 274.141 80.4042 274.573 79.635 275.342C78.8657 276.111 78.4336 277.154 78.4336 278.242C78.4336 279.329 78.8657 280.372 79.635 281.141C80.4042 281.91 81.4475 282.342 82.5354 282.342Z" fill="#474747"/>
<path d="M80.0771 75.0122L80.7219 78.9298C81.027 80.8294 82.1317 94.2484 81.3133 95.8493C81.2412 92.8603 75.6734 88.1608 72.0658 89.2338L66.4041 90.4913L62.8902 91.2729L60.0302 91.8998L51.7195 93.715C51.705 93.6185 51.6944 93.5161 51.6799 93.4196C51.6603 93.2981 51.6407 93.1765 51.616 93.056C51.4613 92.2768 51.179 91.5285 50.7806 90.8411C50.7384 91.7619 50.4666 92.6574 49.9898 93.4462C49.9767 93.4668 49.9654 93.4883 49.9559 93.5107C49.8082 93.7496 49.6453 93.9786 49.4682 94.1965C49.46 94.2022 49.4526 94.209 49.4462 94.2166C49.4462 94.2166 47.7386 67.0042 47.9174 66.7531C48.0484 66.5746 48.1803 66.4011 48.3183 66.2316C48.4553 66.0571 48.5883 65.8886 48.7313 65.7181C48.7497 65.7019 48.7652 65.6828 48.7773 65.6616C49.1779 65.1876 49.6021 64.7341 50.0483 64.3029C50.1795 64.1767 50.3157 64.0494 50.4519 63.9221C52.531 61.999 55.0152 60.5665 57.7214 59.7301C58.0267 59.6363 58.3441 59.5505 58.6664 59.4636C58.9848 59.3828 59.3093 59.3059 59.6358 59.2391L59.7463 59.2165C59.902 59.1847 60.0638 59.1568 60.2205 59.13C60.4174 59.0949 60.6154 59.0649 60.8094 59.0409C63.3273 58.6783 65.8924 58.8225 68.3538 59.4648C68.3588 59.4638 68.3598 59.4688 68.3649 59.4678C70.4196 60.0046 72.3725 60.874 74.1461 62.0417C77.2139 64.0667 78.4081 67.3697 79.2561 71.0783C79.5534 72.3516 79.8037 73.6764 80.0771 75.0122Z" fill="#2F2E41"/>
<path d="M110.379 254.445L115.678 257.323L129.707 237.931L121.885 233.684L110.379 254.445Z" fill="#FE8310"/>
<path d="M112.928 247.535L122.549 250.547L121.018 254.576L127.615 264.148C127.941 264.621 128.107 265.185 128.089 265.759C128.072 266.333 127.871 266.886 127.516 267.338C127.162 267.79 126.672 268.116 126.119 268.27C125.566 268.424 124.978 268.397 124.441 268.193L113.241 263.939L112.825 259.22L110.557 262.919L106.334 261.316L112.928 247.535Z" fill="#292929"/>
<path d="M140.394 167.712C139.548 167.918 138.668 167.936 137.814 167.765C136.961 167.594 136.155 167.238 135.454 166.721C134.753 166.205 134.174 165.542 133.757 164.778C133.34 164.014 133.096 163.167 133.042 162.299L87.8398 146.042L96.1355 138.825L139.039 155.902C140.505 155.908 141.917 156.451 143.009 157.428C144.101 158.406 144.797 159.75 144.964 161.205C145.131 162.661 144.758 164.128 143.916 165.327C143.074 166.526 141.821 167.375 140.394 167.712Z" fill="#FE8310"/>
<path d="M75.2144 105.767C75.2144 105.767 67.6013 105.935 66.9244 114.624C66.2476 123.313 82.8592 144.805 85.433 148.349C88.0067 151.893 116.594 156.256 116.594 156.256L126.313 149.203C116.101 142.588 106.782 137.516 100.528 137.744L75.2144 105.767Z" fill="white"/>
<path d="M65.877 144.107L67.7321 152.075C67.7321 152.075 67.7503 159.423 69.052 160.778C70.3445 162.126 98.7669 159.419 98.7669 159.419C98.7669 159.419 95.7534 147.578 95.7935 138.619L65.877 144.107Z" fill="#FE8310"/>
<path d="M125.92 246.033L115.665 240.395C115.47 227.055 123.496 209.003 133.016 190.095C111.726 193.755 91.641 194.928 74.2684 190.5C71.4164 189.747 68.9752 187.902 67.4726 185.365C65.9699 182.827 65.5263 179.8 66.2378 176.938C66.3054 176.657 66.3836 176.379 66.4724 176.104C68.5515 169.762 63.8895 165.787 68.1775 158.812C79.4555 154.962 90.1691 153.874 99.9662 157.274L106.105 170.843L136.531 166.907C138.001 166.731 139.491 166.848 140.916 167.251C142.34 167.653 143.671 168.334 144.831 169.253C145.992 170.173 146.958 171.312 147.676 172.607C148.394 173.902 148.848 175.325 149.012 176.796C149.053 177.126 149.08 177.458 149.092 177.791C142.94 206.624 136.042 232.569 125.92 246.033Z" fill="#292929"/>
<path d="M67.2856 89.0425C74.167 87.6348 78.604 80.9168 77.196 74.0374C75.7879 67.158 69.0679 62.7222 62.1865 64.1299C55.3051 65.5376 50.868 72.2556 52.2761 79.135C53.6842 86.0144 60.4041 90.4502 67.2856 89.0425Z" fill="#FE8310"/>
<path d="M61.7486 93.6579L73.4699 92.9661C73.9642 92.9369 74.4553 93.0626 74.8747 93.3257C75.2942 93.5887 75.6211 93.976 75.8099 94.4337L79.1223 102.461L92.889 113.836C92.889 113.836 98.3395 120.77 98.3522 129.726C98.3649 138.681 100.286 159.409 100.286 159.409C100.286 159.409 92.3312 148.215 87.4212 151.192C86.5859 151.698 86.2921 152.734 85.4171 153.258C84.9807 153.519 83.9724 153.265 83.5316 153.527C76.7658 157.542 69.7098 161.465 69.0505 160.777C67.756 159.426 66.1857 152.526 66.1857 152.526L55.4564 113.115C54.8747 111.042 54.7592 108.865 55.1182 106.742C55.4771 104.618 56.3017 102.601 57.5326 100.833C58.2822 99.7782 59.0675 98.9933 59.7974 98.8635C61.4361 98.5146 60.5644 94.8429 61.7486 93.6579Z" fill="white"/>
<path d="M161.456 271.139L166.403 267.7L155.195 246.559L147.893 251.635L161.456 271.139Z" fill="#FE8310"/>
<path d="M162.202 256.954L154.448 263.883C142.118 250.149 132.797 230.886 124.898 209.011C104.201 202.951 88.5934 193.179 74.9679 181.575C70.3456 177.665 66.8805 172.642 70.8228 167.878C71.0071 167.656 71.1995 167.44 71.4001 167.232C76.0547 162.45 87.8588 163.362 94.7723 158.98L110.216 175.483L109.245 179.908L138.253 189.731C139.649 190.22 140.934 190.98 142.034 191.968C143.135 192.956 144.028 194.152 144.664 195.487C145.3 196.823 145.665 198.27 145.738 199.747C145.811 201.224 145.591 202.7 145.09 204.092C144.982 204.406 144.86 204.716 144.725 205.02L162.202 256.954Z" fill="#292929"/>
<path d="M158.57 269.744L166.491 263.509L168.952 267.048L180.579 267.013C181.153 267.011 181.713 267.193 182.177 267.531C182.64 267.87 182.984 268.348 183.156 268.896C183.329 269.443 183.322 270.032 183.136 270.575C182.951 271.118 182.596 271.588 182.125 271.916L172.287 278.752L168.157 276.43L169.929 280.391L166.22 282.968L158.57 269.744Z" fill="#292929"/>
<path d="M79.0561 192.978C78.2547 192.638 77.5376 192.126 76.9554 191.479C76.3732 190.832 75.94 190.065 75.6863 189.233C75.4326 188.4 75.3645 187.522 75.4869 186.661C75.6094 185.799 75.9193 184.975 76.3949 184.246L49.8594 144.213L60.8246 143.38L85.0263 182.697C86.1983 183.577 87.0067 184.856 87.2984 186.292C87.5901 187.728 87.3447 189.221 86.6088 190.489C85.8729 191.756 84.6976 192.709 83.3056 193.168C81.9136 193.627 80.4016 193.559 79.0561 192.978Z" fill="#FE8310"/>
<path d="M63.7977 104.374C63.7977 104.374 57.5921 99.9621 51.857 106.526C46.122 113.09 46.6009 140.246 46.547 144.626C46.5301 145.997 48.5109 148.956 51.24 152.374C52.4652 153.909 53.8412 155.536 55.2549 157.153C56.073 158.089 55.3681 160.037 56.1896 160.946C57.0066 161.851 59.3501 161.718 60.1272 162.557C63.8158 166.543 66.8124 169.577 66.8124 169.577L78.8205 169.724C78.9559 160.8 72.8429 152.835 64.9894 145.136L63.7977 104.374Z" fill="white"/>
<path d="M80.6332 70.4103C80.1626 70.6426 79.7061 70.8668 79.2576 71.0789C77.4579 71.9633 75.5981 72.7196 73.6919 73.3423C73.3747 72.4798 72.8908 71.6881 72.2678 71.0124C72.4272 71.9455 72.346 72.9039 72.0318 73.7969C69.1465 74.5113 66.1178 74.3944 63.2961 73.4598C65.1414 76.8754 66.5047 84.073 66.4055 90.4919C66.3623 93.8858 65.9028 97.0614 64.8993 99.3438L63.6099 95.422C63.4903 94.0211 63.25 92.6331 62.8916 91.2735C62.027 87.4584 61.2198 90.0093 60.0316 91.9004L51.7209 93.7156C51.7064 93.6191 51.6958 93.5167 51.6813 93.4202C51.6617 93.2986 51.642 93.1771 51.6174 93.0566C51.4627 92.2774 51.1804 91.5291 50.782 90.8417C50.7398 91.7624 50.468 92.658 49.9911 93.4468C49.9781 93.4673 49.9668 93.4889 49.9573 93.5113C49.8096 93.7501 49.6467 93.9792 49.4696 94.197C49.4614 94.2027 49.4539 94.2095 49.4475 94.2172C44.082 94.935 40.3206 67.2734 47.9198 66.7587C48.1408 66.7437 48.1827 66.4067 48.3197 66.2322C48.4567 66.0577 48.5897 65.8892 48.7327 65.7187C48.751 65.7025 48.7666 65.6834 48.7787 65.6622C49.1849 65.1919 49.6052 64.7397 50.0497 64.3035C50.1809 64.1772 50.3171 64.0499 50.4533 63.9227C52.5389 62.0089 55.0215 60.5792 57.7238 59.7357C58.0291 59.6419 58.3454 59.551 58.6678 59.4641C58.9862 59.3833 59.3107 59.3065 59.6372 59.2397L59.7477 59.2171C59.9034 59.1852 60.0652 59.1574 60.2219 59.1306C60.4188 59.0955 60.6168 59.0655 60.8108 59.0415C61.539 59.4084 62.1622 59.9543 62.6217 60.6278L67.9312 59.5417C68.0718 59.5129 68.2135 59.4891 68.3562 59.4704L68.3663 59.4684C74.9949 58.3583 79.2569 63.6863 80.6332 70.4103Z" fill="#2F2E41"/>
<path d="M51.694 65.5195C50.5571 66.3398 49.3611 67.1849 47.9739 67.3882C46.5866 67.5915 44.9626 66.9211 44.5787 65.573C44.1093 63.9247 45.5981 62.4239 46.9362 61.3527L51.1795 57.9558C51.9565 57.2669 52.8337 56.6999 53.7811 56.2743C54.2569 56.0649 54.7737 55.9653 55.2933 55.9826C55.8129 56 56.3219 56.134 56.7827 56.3746C57.2388 56.6824 57.6084 57.1019 57.8564 57.593C58.1044 58.0841 58.2224 58.6305 58.1994 59.1802C58.1389 60.2818 57.7752 61.3453 57.1485 62.2534C56.3608 63.4808 55.3328 64.5362 54.1265 65.356C52.9201 66.1758 51.5602 66.7432 50.1288 67.0238" fill="#2F2E41"/>
<path d="M83.8768 153.77H53.1135C52.0256 153.77 50.9823 154.202 50.2131 154.971C49.4439 155.74 49.0117 156.783 49.0117 157.871C49.0117 158.958 49.4439 160.001 50.2131 160.77C50.9823 161.539 52.0256 161.971 53.1135 161.971H64.3934V193.751H72.5969V161.971H83.8768C84.9646 161.971 86.0079 161.539 86.7772 160.77C87.5464 160.001 87.9785 158.958 87.9785 157.871C87.9785 156.783 87.5464 155.74 86.7772 154.971C86.0079 154.202 84.9646 153.77 83.8768 153.77Z" fill="#292929"/>
<path d="M262.992 215.748L268 221.204L291.433 204.49L284.042 196.438L262.992 215.748Z" fill="#FE8310"/>
<path d="M273.358 223.47V223.464L272.85 218.016L272.619 217.908L271.271 217.267L264.908 214.259L264.775 214.115L263.498 212.721L256.428 219.21L266.005 229.646L272.573 236.802L272.794 236.597C273.694 235.772 274.423 234.778 274.938 233.672C275.454 232.566 275.746 231.369 275.798 230.15C275.851 228.931 275.662 227.713 275.243 226.567C274.825 225.421 274.184 224.368 273.358 223.47Z" fill="#292929"/>
<path d="M237.047 270.175L244.134 272.327L255.81 246.023L245.35 242.847L237.047 270.175Z" fill="#FE8310"/>
<path d="M255.398 276.064C254.827 274.986 254.047 274.032 253.103 273.257C252.159 272.483 251.071 271.904 249.902 271.554L246.687 267.12L246.436 267.141L237.94 267.92L237.75 267.863L235.945 267.315L233.156 276.495L256.008 283.435L256.095 283.143C256.452 281.976 256.574 280.749 256.454 279.534C256.335 278.319 255.976 277.14 255.398 276.064Z" fill="#292929"/>
<path d="M295.488 132.451C295.488 132.451 340.736 176.126 312.131 189.645H303.29C303.29 189.645 300.633 180.208 294.55 172.25C293.715 171.158 290.586 171.38 289.716 170.315C284.41 163.812 278.658 158.227 274.685 158.448L275.635 188.625L277.173 199.389C277.981 204.953 255.186 253.539 255.186 253.539L240.859 247.909C240.859 247.909 255.786 207.892 255.961 202.123L243.999 138.69L295.488 132.451Z" fill="#292929"/>
<path d="M299.259 134.605C299.028 134.934 298.727 135.207 298.377 135.404C297.8 135.73 297.176 135.962 296.526 136.091C286.338 138.403 253.058 143.196 244.418 140.91C243.357 140.633 242.665 140.243 242.439 139.731C241.716 138.111 241.808 131.268 242.234 123.005C242.311 121.457 244.018 119.781 244.121 118.162C244.193 116.947 242.66 115.804 242.742 114.568C243.306 106.214 244.034 97.6997 244.521 92.3177C244.828 88.8578 245.039 86.6948 245.039 86.6948L239.783 53.5673L240.029 53.1624L240.306 53.024L257.252 44.6383L258.175 42.2805C258.442 41.6016 258.907 41.0184 259.509 40.6064C260.111 40.1943 260.823 39.9722 261.553 39.9688L272.715 39.9227C273.294 39.9195 273.866 40.0545 274.382 40.3166C274.899 40.5788 275.345 40.9603 275.684 41.4296L278.709 45.6173L298.705 58.4316L298.628 58.6674L289.245 87.2125L289.199 89.4371V89.4422L288.851 107.331L289.82 109.755L288.728 113.733C288.728 113.733 289.23 118.382 291.922 121.837C294.362 124.974 297.469 128.244 298.874 130.899V130.904C299.654 132.37 299.915 133.641 299.259 134.605Z" fill="#292929"/>
<path d="M314.305 187.05L311.886 190.106C311.886 190.106 289.642 205.663 288.879 207.117L285.363 210.442L276.857 201.353L281.281 195.81C284.821 191.374 289.394 187.874 294.601 185.615L301.38 179.603L314.305 187.05Z" fill="#2F2E41"/>
<path d="M300.171 143.386L296.12 104.189L295.051 88.0573L306.388 86.0078C306.388 86.0078 305.939 97.5427 307.424 104.051C308.89 110.473 307.619 142.525 307.528 143.382C308.361 144.127 308.948 145.106 309.212 146.191C309.475 147.276 309.403 148.416 309.005 149.459C308.607 150.502 307.901 151.4 306.981 152.034C306.061 152.667 304.971 153.007 303.854 153.007C302.737 153.008 301.646 152.669 300.726 152.037C299.805 151.404 299.099 150.507 298.7 149.464C298.3 148.421 298.227 147.282 298.49 146.196C298.753 145.111 299.339 144.131 300.171 143.386Z" fill="#FE8310"/>
<path d="M311.231 112.312L296.658 115.327L295.383 110.249L293.898 108.673L290.93 93.1306L286.672 84.0257L287.779 52.8901L298.594 58.6245L298.607 58.6347C300.261 60.4298 301.401 62.999 303.297 65.5771C309.27 73.7007 309.933 93.4404 309.752 104.253C309.749 104.43 309.927 104.618 310.142 104.815C311.159 105.748 311.823 107.004 312.021 108.369C312.219 109.735 311.94 111.128 311.231 112.312Z" fill="#292929"/>
<path d="M234.181 144.923L238.232 105.727L239.301 89.5949L227.963 87.5454C227.963 87.5454 228.413 99.0803 226.927 105.588C225.462 112.01 226.733 144.063 226.824 144.92C225.991 145.664 225.404 146.644 225.14 147.729C224.877 148.814 224.949 149.953 225.347 150.997C225.745 152.04 226.451 152.938 227.371 153.571C228.29 154.205 229.381 154.544 230.498 154.545C231.615 154.546 232.706 154.207 233.626 153.574C234.546 152.942 235.253 152.044 235.652 151.002C236.051 149.959 236.124 148.819 235.862 147.734C235.599 146.649 235.013 145.669 234.181 144.923Z" fill="#FE8310"/>
<path d="M247.683 85.5625L244.525 92.3182L243.423 94.6709L240.454 110.212L238.972 111.786L237.696 116.865L237.096 116.742L226.277 114.502L223.124 113.851C222.413 112.667 222.133 111.275 222.332 109.908C222.53 108.542 223.193 107.286 224.211 106.352C224.426 106.158 224.606 105.968 224.601 105.789C224.421 94.9784 225.083 75.2392 231.056 67.115C232.953 64.5368 234.091 61.9688 235.747 60.1748C235.752 60.1697 235.752 60.1645 235.758 60.1645L239.788 53.5677L240.034 53.1628L240.311 53.0244L247.683 85.5625Z" fill="#292929"/>
<path d="M266.814 36.7459C275.016 36.7459 281.665 30.0987 281.665 21.899C281.665 13.6992 275.016 7.052 266.814 7.052C258.612 7.052 251.963 13.6992 251.963 21.899C251.963 30.0987 258.612 36.7459 266.814 36.7459Z" fill="#FE8310"/>
<path d="M283.512 15.3858C283.461 12.8537 283.174 9.6143 281.4 7.03093C279.902 4.85763 276.882 3.13538 274.068 3.9965C274.099 3.4338 273.974 2.87337 273.706 2.37749C273.438 1.88162 273.038 1.46973 272.55 1.18761C271.484 0.536646 270.202 0.418759 269.069 0.311119C266.213 0.0445816 263.254 -0.23221 260.363 0.316242C257.117 0.931328 254.461 2.60231 253.082 4.90376L253.051 4.97552L252.769 6.33896C252.732 6.52182 252.655 6.69437 252.544 6.84478C252.434 6.99519 252.292 7.11989 252.128 7.21033C251.965 7.30206 251.783 7.35651 251.596 7.3698C251.409 7.3831 251.221 7.3549 251.046 7.28722C250.855 7.21548 250.648 7.19491 250.447 7.22753C250.245 7.26015 250.055 7.34484 249.896 7.47322C249.737 7.60161 249.614 7.76926 249.54 7.95958C249.466 8.1499 249.442 8.35631 249.472 8.55842L249.549 9.10174L248.734 8.94797C248.529 8.90836 248.318 8.92408 248.121 8.99351C247.925 9.06293 247.75 9.18355 247.616 9.3429C247.482 9.50225 247.392 9.69457 247.357 9.89997C247.322 10.1054 247.343 10.3164 247.416 10.5113L247.642 11.1315C247.474 11.1338 247.307 11.1699 247.153 11.2377C246.999 11.3055 246.86 11.4036 246.745 11.5262C246.58 11.7049 246.476 11.9313 246.449 12.1726C246.421 12.414 246.471 12.6579 246.591 12.8691C247.505 14.4284 248.8 15.73 250.354 16.6519C251.053 17.073 251.807 17.3955 252.595 17.6104C252.759 17.6566 252.928 17.6976 253.102 17.7334C259.398 19.0897 265.888 19.2843 272.253 18.3075C271.878 19.5629 271.734 20.8758 271.827 22.1826C272.032 23.8177 272.991 25.1657 274.273 25.6168C274.563 25.7151 274.862 25.7871 275.165 25.8321C275.455 25.8791 275.742 25.9494 276.021 26.0422C276.433 26.1933 276.799 26.4505 277.08 26.7878C277.361 27.1252 277.548 27.5308 277.621 27.9636C277.695 28.3964 277.654 28.841 277.5 29.2524C277.347 29.6639 277.088 30.0276 276.749 30.3068C276.749 30.3068 278.093 31.4191 278.262 31.3627C278.922 31.0711 279.474 30.58 279.841 29.9583C282.399 26.278 283.635 21.3778 283.512 15.3858Z" fill="#2F2E41"/>
</svg>
