<svg width="234" height="228" viewBox="0 0 234 228" fill="none" xmlns="http://www.w3.org/2000/svg">
<path d="M199.899 33.1746C189.119 22.6174 176.278 14.2468 162.126 8.55123C147.974 2.85562 132.793 -0.0510732 117.47 0.000679092C53.2673 0.000679092 0.940705 50.7305 0.940705 112.974C0.940705 132.924 6.34975 152.304 16.4623 169.404L0 228L61.7337 212.268C78.7839 221.274 97.9507 226.062 117.47 226.062C181.673 226.062 234 175.332 234 113.088C234 82.8784 221.888 54.4925 199.899 33.1746ZM117.47 206.91C100.067 206.91 83.0171 202.35 68.0834 193.8L64.5558 191.748L27.8683 201.096L37.6281 166.44L35.2764 162.906C25.6077 147.938 20.4737 130.636 20.4603 112.974C20.4603 61.2185 63.9678 19.0386 117.353 19.0386C143.222 19.0386 167.563 28.8426 185.789 46.6265C194.814 55.3357 201.965 65.6948 206.83 77.1035C211.695 88.5122 214.175 100.743 214.128 113.088C214.363 164.844 170.855 206.91 117.47 206.91ZM170.62 136.686C167.68 135.318 153.335 128.478 150.748 127.452C148.043 126.54 146.162 126.084 144.163 128.82C142.164 131.67 136.637 138.054 134.991 139.878C133.345 141.816 131.581 142.044 128.641 140.562C125.701 139.194 116.294 136.116 105.241 126.54C96.5397 119.016 90.7779 109.782 89.0141 106.932C87.3678 104.082 88.7789 102.6 90.3075 101.118C91.601 99.8644 93.2472 97.8124 94.6583 96.2164C96.0693 94.6204 96.6573 93.3664 97.598 91.5424C98.5387 89.6044 98.0683 88.0084 97.3628 86.6404C96.6573 85.2724 90.7779 71.3645 88.4261 65.6645C86.0744 60.1925 83.605 60.8765 81.8412 60.7625H76.197C74.198 60.7625 71.1407 61.4465 68.4362 64.2965C65.8492 67.1465 58.3236 73.9865 58.3236 87.8944C58.3236 101.802 68.7889 115.254 70.2 117.078C71.6111 119.016 90.7779 147.516 119.94 159.714C126.877 162.678 132.286 164.388 136.52 165.642C143.457 167.808 149.807 167.466 154.863 166.782C160.508 165.984 172.149 159.942 174.5 153.33C176.97 146.718 176.97 141.132 176.147 139.878C175.324 138.624 173.56 138.054 170.62 136.686Z" fill="#54E173"/>
</svg>
