<svg width="237" height="237" viewBox="0 0 237 237" fill="none" xmlns="http://www.w3.org/2000/svg">
<mask id="mask0_612_170" style="mask-type:luminance" maskUnits="userSpaceOnUse" x="28" y="28" width="181" height="181">
<path d="M28.416 28.2935H208.706V208.583H28.416V28.2935Z" fill="white"/>
</mask>
<g mask="url(#mask0_612_170)">
<mask id="mask1_612_170" style="mask-type:luminance" maskUnits="userSpaceOnUse" x="28" y="28" width="181" height="181">
<path d="M118.561 28.2935C68.7752 28.2935 28.416 68.6526 28.416 118.438C28.416 168.224 68.7752 208.583 118.561 208.583C168.347 208.583 208.706 168.224 208.706 118.438C208.706 68.6526 168.347 28.2935 118.561 28.2935Z" fill="white"/>
</mask>
<g mask="url(#mask1_612_170)">
<path d="M28.416 28.2935H208.706V208.583H28.416V28.2935Z" fill="#292929"/>
</g>
</g>
<path d="M118.557 50.6802C118.233 50.6802 117.911 50.6962 117.59 50.727C117.268 50.759 116.949 50.8058 116.632 50.8687C116.315 50.9326 116.002 51.0103 115.693 51.104C115.383 51.1977 115.079 51.3062 114.781 51.4307C114.483 51.5541 114.19 51.6912 113.906 51.8442C113.62 51.9962 113.344 52.1618 113.076 52.3412C112.807 52.5205 112.548 52.7124 112.298 52.9169C112.047 53.1225 111.809 53.3384 111.58 53.5669C111.352 53.7954 111.135 54.0341 110.93 54.2831C110.725 54.5333 110.533 54.7926 110.353 55.0611C110.174 55.3295 110.008 55.606 109.855 55.8904C109.703 56.1749 109.565 56.4662 109.442 56.7643C109.318 57.0625 109.209 57.3663 109.115 57.6759C109.021 57.9844 108.944 58.2974 108.88 58.6138C108.817 58.9302 108.77 59.2489 108.738 59.5711C108.706 59.8921 108.69 60.2142 108.69 60.5364C108.69 60.8596 108.706 61.1818 108.738 61.5028C108.77 61.8238 108.817 62.1436 108.88 62.4601C108.944 62.7765 109.021 63.0895 109.115 63.3979C109.209 63.7075 109.318 64.0102 109.442 64.3095C109.565 64.6077 109.703 64.899 109.855 65.1834C110.008 65.4679 110.174 65.7443 110.353 66.0128C110.533 66.2812 110.725 66.5405 110.93 66.7907C111.135 67.0397 111.352 67.2785 111.58 67.507C111.809 67.7354 112.047 67.9513 112.298 68.157C112.548 68.3614 112.807 68.5534 113.076 68.7327C113.344 68.9121 113.62 69.0777 113.906 69.2296C114.19 69.3827 114.483 69.5198 114.781 69.6432C115.079 69.7677 115.383 69.8762 115.693 69.9699C116.002 70.0635 116.315 70.1412 116.632 70.2041C116.949 70.268 117.268 70.3149 117.59 70.3468C117.911 70.3777 118.233 70.3937 118.557 70.3937C118.88 70.3937 119.202 70.3777 119.524 70.3468C119.845 70.3149 120.165 70.268 120.481 70.2041C120.798 70.1412 121.111 70.0635 121.42 69.9699C121.73 69.8762 122.034 69.7677 122.332 69.6432C122.63 69.5198 122.923 69.3827 123.207 69.2296C123.493 69.0777 123.769 68.9121 124.038 68.7327C124.306 68.5534 124.565 68.3614 124.815 68.157C125.066 67.9513 125.304 67.7354 125.533 67.507C125.761 67.2785 125.978 67.0397 126.183 66.7907C126.388 66.5405 126.58 66.2812 126.76 66.0128C126.939 65.7443 127.105 65.4679 127.258 65.1834C127.41 64.899 127.548 64.6077 127.671 64.3095C127.795 64.0102 127.904 63.7075 127.998 63.3979C128.092 63.0895 128.169 62.7765 128.233 62.4601C128.296 62.1436 128.343 61.8238 128.375 61.5028C128.407 61.1818 128.423 60.8596 128.423 60.5364C128.423 60.2142 128.407 59.8921 128.375 59.5711C128.343 59.2489 128.296 58.9302 128.233 58.6138C128.169 58.2974 128.092 57.9844 127.998 57.6759C127.904 57.3663 127.795 57.0625 127.671 56.7643C127.548 56.4662 127.41 56.1749 127.258 55.8904C127.105 55.606 126.939 55.3295 126.76 55.0611C126.58 54.7926 126.388 54.5333 126.183 54.2831C125.978 54.0341 125.761 53.7954 125.533 53.5669C125.304 53.3384 125.066 53.1225 124.815 52.9169C124.565 52.7124 124.306 52.5205 124.038 52.3412C123.769 52.1618 123.493 51.9962 123.207 51.8442C122.923 51.6912 122.63 51.5541 122.332 51.4307C122.034 51.3062 121.73 51.1977 121.42 51.104C121.111 51.0103 120.798 50.9326 120.481 50.8687C120.165 50.8058 119.845 50.759 119.524 50.727C119.202 50.6962 118.88 50.6802 118.557 50.6802ZM77.4411 66.8958C74.8172 66.9883 72.5245 68.9372 72.0732 71.6194C71.5615 74.6901 73.6508 77.6076 76.7123 78.1182L99.9842 82.9801L104.623 83.7466L111.609 147.187C111.878 150.051 114.202 152.208 117.054 152.297C116.505 152.308 115.958 152.347 115.413 152.411C114.867 152.476 114.325 152.567 113.79 152.685C113.253 152.802 112.723 152.944 112.199 153.113C111.677 153.282 111.163 153.476 110.659 153.695C110.156 153.913 109.663 154.155 109.184 154.423C108.703 154.689 108.237 154.978 107.784 155.288C107.332 155.6 106.897 155.933 106.476 156.287C106.056 156.641 105.655 157.015 105.271 157.407C104.887 157.8 104.524 158.211 104.18 158.639C103.836 159.067 103.514 159.511 103.214 159.97C102.913 160.43 102.636 160.903 102.381 161.389C102.126 161.875 101.895 162.373 101.69 162.882C101.483 163.39 101.303 163.907 101.146 164.434C100.991 164.961 100.86 165.493 100.756 166.032C100.653 166.571 100.575 167.114 100.523 167.66C100.472 168.207 100.447 168.754 100.449 169.303C100.45 169.852 100.479 170.399 100.534 170.945C100.59 171.492 100.671 172.034 100.778 172.572C100.887 173.11 101.02 173.643 101.179 174.167C101.339 174.692 101.524 175.209 101.733 175.716C101.943 176.223 102.176 176.72 102.435 177.204C102.693 177.689 102.974 178.159 103.278 178.617C103.58 179.074 103.906 179.516 104.253 179.941C104.599 180.368 104.966 180.775 105.352 181.166C105.738 181.557 106.143 181.927 106.565 182.278C106.987 182.629 107.425 182.958 107.88 183.267C108.335 183.575 108.803 183.862 109.285 184.125C109.767 184.387 110.261 184.626 110.767 184.842C111.272 185.057 111.787 185.247 112.31 185.412C112.835 185.578 113.365 185.717 113.903 185.83C114.44 185.944 114.982 186.031 115.527 186.093C116.073 186.154 116.621 186.188 117.171 186.196C117.72 186.194 118.27 186.164 118.817 186.108C119.364 186.051 119.908 185.968 120.447 185.859C120.986 185.75 121.519 185.615 122.045 185.454C122.572 185.293 123.088 185.107 123.597 184.896C124.105 184.684 124.602 184.449 125.086 184.19C125.572 183.931 126.043 183.648 126.5 183.343C126.959 183.037 127.401 182.711 127.827 182.362C128.252 182.015 128.659 181.646 129.05 181.259C129.44 180.87 129.81 180.465 130.161 180.041C130.511 179.617 130.84 179.177 131.147 178.721C131.456 178.266 131.74 177.795 132.002 177.312C132.264 176.829 132.502 176.334 132.716 175.827C132.93 175.32 133.118 174.804 133.281 174.279C133.445 173.754 133.582 173.222 133.694 172.684C133.806 172.146 133.891 171.603 133.95 171.056C134.009 170.51 134.041 169.962 134.047 169.412C134.051 168.862 134.031 168.313 133.983 167.766C133.935 167.218 133.861 166.674 133.759 166.134C133.658 165.594 133.532 165.059 133.379 164.531C133.225 164.002 133.047 163.482 132.843 162.972C132.639 162.461 132.412 161.962 132.16 161.473C131.907 160.984 131.632 160.509 131.334 160.047C131.034 159.586 130.715 159.139 130.373 158.709C130.03 158.278 129.668 157.864 129.287 157.469C128.904 157.074 128.504 156.697 128.085 156.341C127.666 155.984 127.23 155.648 126.779 155.334C126.328 155.02 125.862 154.729 125.382 154.459C124.902 154.191 124.41 153.945 123.906 153.723C123.402 153.503 122.889 153.306 122.366 153.135C121.844 152.964 121.314 152.819 120.776 152.699C120.239 152.579 119.698 152.485 119.152 152.418C118.606 152.35 118.057 152.31 117.508 152.297C117.592 152.292 117.681 152.293 117.761 152.285C119.266 152.147 120.624 151.433 121.588 150.271C122.552 149.113 123.008 147.642 122.87 146.139L121.842 117.806C121.826 117.354 121.788 116.434 122.202 116.041C122.49 115.767 122.841 115.583 123.24 115.583C124.365 115.583 125.467 116.044 126.255 116.84L150.15 136.842C152.381 138.853 156.132 138.665 158.142 136.444C160.232 134.133 160.055 130.549 157.844 128.56L133.501 104.641C132.918 103.997 132.548 103.202 132.435 102.346L130.529 88.0395L158.65 93.6565C161.994 94.2151 165.012 91.7053 165.216 88.4199C165.397 85.5778 163.206 82.9607 160.224 82.4603L100.442 71.5749L78.5789 66.9735C78.1951 66.9072 77.817 66.8821 77.4411 66.8958Z" fill="white"/>
<mask id="mask2_612_170" style="mask-type:luminance" maskUnits="userSpaceOnUse" x="99" y="152" width="37" height="37">
<path d="M99.5332 152.372H135.398V188.237H99.5332V152.372Z" fill="white"/>
</mask>
<g mask="url(#mask2_612_170)">
<mask id="mask3_612_170" style="mask-type:luminance" maskUnits="userSpaceOnUse" x="99" y="152" width="37" height="37">
<path d="M117.466 152.372C107.562 152.372 99.5332 160.4 99.5332 170.305C99.5332 180.209 107.562 188.237 117.466 188.237C127.37 188.237 135.398 180.209 135.398 170.305C135.398 160.4 127.37 152.372 117.466 152.372Z" fill="white"/>
</mask>
<g mask="url(#mask3_612_170)">
<path d="M99.5332 152.372H135.398V188.237H99.5332V152.372Z" fill="#F15A25"/>
</g>
</g>
</svg>
